<?xml version="1.0" standalone="no"?>
<!DOCTYPE svg PUBLIC "-//W3C//DTD SVG 1.1//EN" "http://www.w3.org/Graphics/SVG/1.1/DTD/svg11.dtd" >
<svg xmlns="http://www.w3.org/2000/svg" xmlns:xlink="http://www.w3.org/1999/xlink" version="1.1">
<metadata>
Created by FontForge 20170731 at Mon Jul  6 23:44:48 2015
 By Aleksey,,,
Copyright (c) 2015 by Wei Huang. All rights reserved.
</metadata>
<defs>
<font id="WorkSans-Bold" horiz-adv-x="604" >
  <font-face 
    font-family="Work Sans"
    font-weight="700"
    font-stretch="normal"
    units-per-em="1000"
    panose-1="0 0 8 0 0 0 0 0 0 0"
    ascent="760"
    descent="-240"
    x-height="500"
    cap-height="660"
    bbox="-349 -341 1325 920"
    underline-thickness="50"
    underline-position="-200"
    unicode-range="U+0020-FB02"
  />
<missing-glyph horiz-adv-x="500" 
d="M50 0v660h400v-660h-400zM130 80h240v500h-240v-500z" />
    <glyph glyph-name="fi" unicode="fi" horiz-adv-x="706" 
d="M338 607q-83 0 -83 -72v-35h152v-121h-142v-379h-170v379h-80v121h80v46q0 90 56 135t146 45q78 0 115 -29l-17 -106q-22 16 -57 16zM561 558q-52 0 -75.5 19.5t-23.5 61.5q0 43 23.5 62.5t75.5 19.5t75.5 -19.5t23.5 -62.5q0 -42 -23.5 -61.5t-75.5 -19.5zM476 0v500
h170v-500h-170z" />
    <glyph glyph-name="fl" unicode="fl" horiz-adv-x="742" 
d="M338 607q-83 0 -83 -72v-35h152v-121h-142v-379h-170v379h-80v121h80v46q0 90 56 135t146 45q78 0 115 -29l-17 -106q-22 16 -57 16zM690 111q24 0 51 9l-11 -105q-40 -25 -104 -25q-80 0 -116 37.5t-36 120.5v564h170v-539q0 -34 10 -48t36 -14z" />
    <glyph glyph-name="f_t.liga" unicode="ft" horiz-adv-x="791" 
d="M763 133l17 -105q-53 -38 -141 -38q-183 0 -184 160v229h-190v-379h-170v379h-80v121h80v46q0 90 54.5 135.5t138.5 45.5q67 0 104 -28l-12 -105q-23 13 -52 13q-73 0 -73 -72v-35h200v112l170 47v-159h150v-121h-150v-201q0 -67 66 -67q41 0 72 22z" />
    <glyph glyph-name="g_j.liga" unicode="gj" horiz-adv-x="862" 
d="M717 558q-99 0 -99 81q0 82 99 82t99 -82q0 -42 -24 -61.5t-75 -19.5zM350 111q89 0 137 -38t48 -112q0 -85 -70.5 -130.5t-193.5 -45.5q-122 0 -187 31.5t-65 86.5q0 73 88 97q-72 33 -72 102q0 35 22.5 62t59.5 40q-80 45 -80 136q0 82 63.5 126t181.5 44q56 0 102 -11
q8 63 48 102t108 33l19 -113q-44 6 -73.5 -7t-38.5 -39q72 -43 72 -135q0 -82 -59.5 -125.5t-177.5 -43.5q-52 0 -96 9q-34 -8 -34 -34q0 -35 65 -35h133zM632 -25v525h170v-534q0 -181 -188 -181q-45 0 -81 14l24 121q14 -11 38 -11q37 0 37 66zM278 412q-36 0 -56 -19
t-20 -53q0 -33 20 -52t56 -19t56 19t20 52q0 34 -20 53t-56 19zM277 -105q60 0 92 13.5t32 35.5q0 32 -63 32h-112q-78 0 -78 -36q0 -45 129 -45z" />
    <glyph glyph-name="j_j.liga" unicode="jj" horiz-adv-x="580" 
d="M145 721q100 0 100 -82q0 -81 -100 -81q-98 0 -98 81q0 82 98 82zM435 721q100 0 100 -82q0 -81 -100 -81q-98 0 -98 81q0 82 98 82zM231 500v-528q0 -187 -194 -187q-79 0 -131 32l24 110q23 -20 63 -20q68 0 68 80v513h170zM521 500v-534q0 -181 -197 -181
q-52 0 -93 22l24 121q19 -19 50 -19q46 0 46 66v525h170z" />
    <glyph glyph-name="t_t.liga" unicode="tt" horiz-adv-x="814" 
d="M787 133l17 -105q-55 -38 -141 -38q-184 0 -184 160v229h-210v-201q0 -36 13 -51.5t44 -15.5q38 0 67 23l19 -106q-51 -38 -136 -38q-176 0 -177 160v229h-86v121h86v112l170 47v-159h210v112l170 47v-159h149v-121h-149v-201q0 -67 66 -67q41 0 72 22z" />
    <glyph glyph-name=".notdef" horiz-adv-x="500" 
d="M50 0v660h400v-660h-400zM130 80h240v500h-240v-500z" />
    <glyph glyph-name=".null" horiz-adv-x="0" 
 />
    <glyph glyph-name="nonmarkingreturn" horiz-adv-x="333" 
 />
    <glyph glyph-name="space" unicode=" " horiz-adv-x="286" 
 />
    <glyph glyph-name="exclam" unicode="!" horiz-adv-x="301" 
d="M239 660v-213l-19 -232h-139l-19 232v213h177zM150 159q45 0 71 -22t26 -62q0 -39 -26 -61t-71 -22t-70.5 22t-25.5 61q0 40 25.5 62t70.5 22z" />
    <glyph glyph-name="quotedbl" unicode="&#x22;" horiz-adv-x="447" 
d="M205 678l-29 -277h-113v277h142zM403 678l-29 -277h-113v277h142z" />
    <glyph glyph-name="numbersign" unicode="#" horiz-adv-x="689" 
d="M662 400h-132l-22 -138h111v-102h-128l-26 -160h-115l26 160h-130l-25 -160h-116l25 160h-104v102h121l22 138h-100v102h117l25 158h116l-25 -158h129l25 158h116l-25 -158h115v-102zM392 262l23 138h-130l-22 -138h129z" />
    <glyph glyph-name="dollar" unicode="$" horiz-adv-x="638" 
d="M279 -88v90q-172 11 -254 124l85 99q22 -44 66.5 -71.5t102.5 -35.5v152q-41 8 -67.5 15t-61 21.5t-54.5 33t-34.5 49t-14.5 69.5q0 80 61.5 135t170.5 65v90h97v-90q84 -6 137.5 -35.5t97.5 -83.5l-85 -96q-55 88 -150 98v-157q50 -10 83.5 -21t70.5 -32t56 -56t19 -84
q0 -80 -63 -130t-166 -59v-90h-97zM279 404v134q-77 -12 -77 -70q0 -25 20 -39.5t57 -24.5zM376 120q75 11 75 64q0 26 -19 40.5t-56 24.5v-129z" />
    <glyph glyph-name="percent" unicode="%" horiz-adv-x="938" 
d="M216 670q84 0 135 -51.5t51 -136.5t-51 -136.5t-135 -51.5t-135 51.5t-51 136.5t51 136.5t135 51.5zM175 0l459 661h130l-459 -661h-130zM216 556q-59 0 -59 -74t59 -74q60 0 60 74t-60 74zM721 366q84 0 135 -51.5t51 -136.5t-51 -136.5t-135 -51.5t-135 51.5t-51 136.5
t51 136.5t135 51.5zM721 252q-29 0 -44.5 -19.5t-15.5 -54.5t15.5 -54.5t44.5 -19.5q60 0 60 74t-60 74z" />
    <glyph glyph-name="ampersand" unicode="&#x26;" horiz-adv-x="646" 
d="M642 109l-15 -119q-56 0 -94.5 12t-85.5 50q-72 -62 -190 -62q-104 0 -167.5 47t-64.5 132q0 54 31 102.5t104 75.5q-40 48 -54 81.5t-14 73.5q0 68 52 118t149 50q95 0 146.5 -44t51.5 -112q0 -123 -143 -181q31 -34 47 -52l67 -72q26 56 23 130l113 -3q0 -117 -64 -196
q49 -38 108 -31zM297 558q-28 0 -44 -16.5t-16 -45.5q0 -20 10.5 -40t42.5 -58q40 28 53 52t13 54q0 54 -59 54zM274 102q52 0 97 20q-16 16 -58 60q-60 62 -87 91q-32 -24 -43.5 -44.5t-11.5 -47.5q0 -35 28.5 -57t74.5 -22z" />
    <glyph glyph-name="quotesingle" unicode="'" horiz-adv-x="250" 
d="M205 678l-29 -277h-113v277h142z" />
    <glyph glyph-name="parenleft" unicode="(" horiz-adv-x="391" 
d="M301 736l80 -78q-86 -77 -123.5 -166t-37.5 -219q0 -131 37.5 -220t123.5 -166l-80 -78q-234 156 -234 464q0 307 234 463z" />
    <glyph glyph-name="parenright" unicode=")" horiz-adv-x="391" 
d="M90 736q234 -157 234 -463q0 -307 -234 -464l-80 78q86 77 123 165.5t37 220.5q0 130 -37.5 219t-122.5 166z" />
    <glyph glyph-name="asterisk" unicode="*" horiz-adv-x="588" 
d="M372 456l34 -32l83 -109l-98 -71l-78 113l-19 42l-20 -42l-78 -113l-97 71l83 109l34 32l-47 5l-130 39l37 115l129 -45l41 -23l-9 46l-4 137h121l-3 -137l-9 -46l41 23l130 45l37 -115l-132 -39z" />
    <glyph glyph-name="plus" unicode="+" 
d="M553 386v-122h-183v-204h-135v204h-184v122h184v203h135v-203h183z" />
    <glyph glyph-name="comma" unicode="," horiz-adv-x="290" 
d="M142 172q53 0 80.5 -36t27.5 -93q0 -66 -35.5 -119t-103.5 -82l-75 53q99 37 124 107l-4 3q-11 -11 -31 -11q-33 0 -58 22t-25 62q0 45 27.5 69.5t72.5 24.5z" />
    <glyph glyph-name="hyphen" unicode="-" horiz-adv-x="528" 
d="M447 337v-139h-366v139h366z" />
    <glyph glyph-name="period" unicode="." horiz-adv-x="290" 
d="M145 172q47 0 73.5 -24t26.5 -67q0 -42 -26.5 -66t-73.5 -24t-73.5 24t-26.5 66q0 43 26.5 67t73.5 24z" />
    <glyph glyph-name="slash" unicode="/" horiz-adv-x="468" 
d="M453 712l-280 -782h-158l280 782h158z" />
    <glyph glyph-name="zero" unicode="0" horiz-adv-x="644" 
d="M322 -10q-274 0 -274 340t274 340t274 -340t-274 -340zM322 124q55 0 79.5 48t24.5 158t-24.5 158t-79.5 48t-79.5 -48t-24.5 -158t24.5 -158t79.5 -48z" />
    <glyph glyph-name="one" unicode="1" horiz-adv-x="439" 
d="M228 660h137v-660h-166v491q-77 -70 -156 -84l-16 142q51 6 113.5 40.5t87.5 70.5z" />
    <glyph glyph-name="two" unicode="2" horiz-adv-x="596" 
d="M60 0v110q167 104 241.5 184.5t74.5 151.5q0 40 -23 64.5t-66 24.5q-47 0 -73.5 -34.5t-27.5 -100.5l-147 45q2 107 73.5 166t185.5 59q122 0 185.5 -63t63.5 -149q0 -93 -69.5 -171t-210.5 -159v-1q66 4 133 4h155v-131h-495z" />
    <glyph glyph-name="three" unicode="3" horiz-adv-x="593" 
d="M299 670q111 0 173 -50t62 -135q0 -74 -42.5 -113t-81.5 -39v-3q20 0 41.5 -7.5t44 -23.5t37 -47t14.5 -72q0 -85 -71.5 -137.5t-184.5 -52.5q-106 0 -169.5 39t-90.5 125l156 67q10 -98 102 -98q44 0 68.5 21t23.5 59t-24 54.5t-74 16.5h-37v109h29q92 0 92 76
q1 38 -19.5 58t-58.5 20q-84 0 -92 -89l-151 51q16 88 83.5 129.5t169.5 41.5z" />
    <glyph glyph-name="four" unicode="4" horiz-adv-x="646" 
d="M618 263v-118h-101v-145h-152v145h-332v81l283 434h201v-397h101zM309 439l-116 -176h172v176l4 108h-2q-18 -45 -58 -108z" />
    <glyph glyph-name="five" unicode="5" horiz-adv-x="583" 
d="M338 426q96 0 151.5 -55.5t55.5 -144.5q0 -116 -72.5 -176t-184.5 -60q-90 0 -153 31t-105 101l151 86q10 -44 34 -66t74 -22q47 0 74 24t27 70q-2 93 -101 93q-72 0 -105 -39l-130 19l42 373h412v-133h-287l-15 -124q-3 -17 -5 -24h1q42 47 136 47z" />
    <glyph glyph-name="six" unicode="6" horiz-adv-x="616" 
d="M340 670q180 0 230 -146l-141 -66q-21 76 -100 76q-56 0 -91 -52.5t-35 -141.5v-16h2q17 42 59 64.5t101 22.5q94 0 154 -56.5t60 -148.5q0 -100 -67 -158t-187 -58q-133 0 -204 87t-71 253q0 168 80 254t210 86zM328 295q-43 0 -68.5 -23.5t-25.5 -64.5t25.5 -64.5
t68.5 -23.5q45 0 69.5 23t24.5 65t-24.5 65t-69.5 23z" />
    <glyph glyph-name="seven" unicode="7" horiz-adv-x="614" 
d="M42 660h543v-122q-118 -114 -167 -245t-49 -293h-170q0 301 218 525h-375v135z" />
    <glyph glyph-name="eight" unicode="8" horiz-adv-x="627" 
d="M313 668q115 0 181.5 -49.5t66.5 -135.5q0 -51 -27.5 -88.5t-77.5 -56.5v-1q126 -41 126 -162q0 -86 -71.5 -135.5t-197.5 -49.5q-124 0 -196 49.5t-72 135.5q0 121 126 162v1q-105 40 -105 145q0 86 66.5 135.5t180.5 49.5zM313 543q-41 0 -64 -20t-23 -56
q0 -35 23.5 -55.5t63.5 -20.5q41 0 64.5 20.5t23.5 55.5q0 36 -23.5 56t-64.5 20zM313 115q48 0 75 22t27 60q0 39 -27 60.5t-75 21.5q-47 0 -74 -21.5t-27 -60.5q0 -38 27 -60t74 -22z" />
    <glyph glyph-name="nine" unicode="9" horiz-adv-x="615" 
d="M298 670q132 0 202.5 -88t70.5 -256q0 -336 -280 -336q-183 0 -242 144l154 61q9 -37 29.5 -56t61.5 -19q122 0 122 187v16h-3q-13 -42 -57 -64.5t-101 -22.5q-91 0 -152.5 58t-61.5 152q0 105 67.5 164.5t189.5 59.5zM293 535q-45 0 -69.5 -23t-24.5 -65t24.5 -65
t69.5 -23q44 0 69 23.5t25 64.5t-25 64.5t-69 23.5z" />
    <glyph glyph-name="colon" unicode=":" horiz-adv-x="302" 
d="M151 510q47 0 73.5 -24t26.5 -66q0 -43 -26.5 -66.5t-73.5 -23.5t-73.5 23.5t-26.5 66.5q0 42 26.5 66t73.5 24zM151 172q47 0 73.5 -24t26.5 -67q0 -42 -26.5 -66t-73.5 -24t-73.5 24t-26.5 66q0 43 26.5 67t73.5 24z" />
    <glyph glyph-name="semicolon" unicode=";" horiz-adv-x="302" 
d="M152 330q-47 0 -73.5 23.5t-26.5 66.5q0 42 26.5 66t73.5 24t73.5 -24t26.5 -66q0 -43 -26.5 -66.5t-73.5 -23.5zM149 172q53 0 80.5 -36t27.5 -93q0 -66 -35.5 -119t-103.5 -82l-75 53q99 37 124 107l-4 3q-11 -11 -31 -11q-33 0 -58 22t-25 62q0 45 27.5 69.5
t72.5 24.5z" />
    <glyph glyph-name="less" unicode="&#x3c;" 
d="M553 588v-161l-371 -130l371 -131v-161l-490 218v147z" />
    <glyph glyph-name="equal" unicode="=" 
d="M539 483v-117h-474v117h474zM539 267v-117h-474v117h474z" />
    <glyph glyph-name="greater" unicode="&#x3e;" 
d="M51 588l490 -218v-147l-490 -218v161l370 131l-370 130v161z" />
    <glyph glyph-name="question" unicode="?" horiz-adv-x="607" 
d="M308 670q118 0 187.5 -45t69.5 -136q0 -168 -190 -189l-10 -86h-146l-9 152q92 7 132 31.5t40 65.5q0 69 -86 69q-44 0 -70 -25.5t-30 -75.5l-164 63q12 80 79.5 128t196.5 48zM293 161q45 0 70.5 -22t25.5 -62t-25.5 -62.5t-70.5 -22.5q-46 0 -71.5 22.5t-25.5 62.5
t25.5 62t71.5 22z" />
    <glyph glyph-name="at" unicode="@" horiz-adv-x="946" 
d="M493 660q187 0 294.5 -106.5t107.5 -293.5q0 -128 -61 -194t-149 -66q-102 0 -139 85q-55 -83 -154 -83q-74 0 -118 52.5t-44 136.5q0 132 66 204t165 72q49 0 76.5 -23t35.5 -54l21 68h122l-45 -287q-6 -44 5.5 -64.5t46.5 -20.5q42 0 68 45t26 129q0 157 -86 241
t-238 84q-163 0 -261 -97t-98 -265q0 -156 94 -244.5t230 -88.5q76 0 120 14.5t81 42.5l43 -60q-50 -35 -104 -53t-143 -18q-179 0 -292.5 109.5t-113.5 297.5q0 196 124 316.5t320 120.5zM480 357q-45 0 -74.5 -39.5t-29.5 -106.5q0 -93 69 -93q31 0 55 19.5t29 55.5l11 81
q10 83 -60 83z" />
    <glyph glyph-name="A" unicode="A" horiz-adv-x="677" 
d="M496 0l-45 149h-228l-46 -149h-173l232 660h206l231 -660h-177zM259 266h156l-48 158l-29 104h-2l-27 -103z" />
    <glyph glyph-name="B" unicode="B" horiz-adv-x="684" 
d="M73 0v660h321q238 -1 238 -178q0 -58 -34 -98t-100 -50v-1q74 -10 112.5 -51.5t38.5 -103.5q0 -86 -61 -132t-179 -46h-336zM239 390h124q93 0 93 72t-93 72h-124v-144zM239 121h141q93 0 93 74q0 72 -93 72h-141v-146z" />
    <glyph glyph-name="C" unicode="C" horiz-adv-x="681" 
d="M658 189q-28 -100 -104 -149.5t-185 -49.5q-151 0 -237.5 90.5t-86.5 249.5t86.5 249.5t236.5 90.5q108 0 183 -45.5t99 -136.5l-151 -61q-14 60 -43 84t-82 24q-73 0 -113 -52.5t-40 -152.5t38.5 -152.5t111.5 -52.5q108 0 131 108z" />
    <glyph glyph-name="D" unicode="D" horiz-adv-x="718" 
d="M353 660q155 0 237.5 -85.5t82.5 -244.5t-82.5 -244.5t-237.5 -85.5h-280v660h280zM336 130q83 0 122 50t39 150t-39 150t-122 50h-91v-400h91z" />
    <glyph glyph-name="E" unicode="E" horiz-adv-x="631" 
d="M245 133h355v-133h-527v660h514v-133h-342v-134h272v-125h-272v-135z" />
    <glyph glyph-name="F" unicode="F" horiz-adv-x="612" 
d="M586 527h-341v-140h272v-133h-272v-254h-172v660h513v-133z" />
    <glyph glyph-name="G" unicode="G" horiz-adv-x="723" 
d="M355 357h310v-357h-120l-5 78q-57 -88 -189 -88q-137 0 -222 89.5t-85 249.5q0 159 88 250t241 91q113 0 182 -40t109 -129l-159 -63q-25 97 -127 97q-76 0 -116.5 -52t-40.5 -153q0 -208 162 -208q61 0 98.5 28t37.5 81v10h-164v116z" />
    <glyph glyph-name="H" unicode="H" horiz-adv-x="742" 
d="M497 660h172v-660h-172v266h-252v-266h-172v660h172v-261h252v261z" />
    <glyph glyph-name="I" unicode="I" horiz-adv-x="318" 
d="M245 660v-660h-172v660h172z" />
    <glyph glyph-name="J" unicode="J" horiz-adv-x="621" 
d="M559 660v-406q0 -125 -72.5 -194.5t-205.5 -69.5q-143 0 -205.5 74t-39.5 197l170 30q-13 -89 7 -127.5t76 -38.5q53 0 75.5 35t22.5 112v388h172z" />
    <glyph glyph-name="K" unicode="K" horiz-adv-x="693" 
d="M489 0l-164 283l-80 -97v-186h-172v660h172v-293l236 293h191l-224 -268l236 -392h-195z" />
    <glyph glyph-name="L" unicode="L" horiz-adv-x="602" 
d="M245 133h331v-133h-503v660h172v-527z" />
    <glyph glyph-name="M" unicode="M" horiz-adv-x="910" 
d="M837 660v-660h-152v303l5 203h-2l-163 -506h-139l-163 506h-2l5 -203v-303h-153v660h245l104 -336l37 -140h2l38 139l103 337h235z" />
    <glyph glyph-name="N" unicode="N" horiz-adv-x="741" 
d="M668 660v-660h-191l-205 357l-50 100h-1l4 -124v-333h-152v660h191l205 -357l50 -100h1l-4 124v333h152z" />
    <glyph glyph-name="O" unicode="O" horiz-adv-x="737" 
d="M369 670q151 0 237 -90.5t86 -249.5t-86 -249.5t-237 -90.5t-237.5 90.5t-86.5 249.5t86.5 249.5t237.5 90.5zM369 535q-72 0 -110 -52t-38 -153t38 -153t110 -52t109.5 52t37.5 153t-37.5 153t-109.5 52z" />
    <glyph glyph-name="P" unicode="P" horiz-adv-x="668" 
d="M376 660q123 0 189 -56.5t66 -162.5q0 -101 -66 -156.5t-189 -55.5h-131v-229h-172v660h303zM349 355q109 0 109 88q0 87 -109 87h-104v-175h104z" />
    <glyph glyph-name="Q" unicode="Q" horiz-adv-x="737" 
d="M523 -70q81 0 123 39l41 -125q-54 -48 -170 -48q-105 0 -159 53t-47 145q-125 17 -195.5 105t-70.5 231q0 159 86.5 249.5t237.5 90.5t237 -90.5t86 -249.5q0 -145 -71.5 -233t-198.5 -104q4 -35 29.5 -49t71.5 -14zM221 330q0 -101 38 -153t110 -52t109.5 52t37.5 153
t-37.5 153t-109.5 52t-110 -52t-38 -153z" />
    <glyph glyph-name="R" unicode="R" horiz-adv-x="689" 
d="M486 0l-141 241h-103v-241h-169v660h315q120 0 184.5 -54t64.5 -156q0 -145 -129 -191l168 -259h-190zM242 530v-167h117q55 0 80 20t25 64q0 43 -25 63t-80 20h-117z" />
    <glyph glyph-name="S" unicode="S" horiz-adv-x="644" 
d="M331 670q94 0 160.5 -28t123.5 -91l-97 -112q-65 97 -184 97q-52 0 -80 -18t-28 -48q0 -26 29 -42.5t103 -29.5q136 -23 194 -70.5t58 -134.5q0 -94 -78 -148.5t-201 -54.5q-112 0 -182 27.5t-121 84.5l89 121q38 -55 87 -77.5t118 -22.5q110 0 110 61q0 23 -28 37.5
t-101 28.5q-138 25 -197 72.5t-59 132.5q0 95 75.5 155t208.5 60z" />
    <glyph glyph-name="T" unicode="T" horiz-adv-x="653" 
d="M628 660v-133h-215v-527h-172v527h-216v133h603z" />
    <glyph glyph-name="U" unicode="U" horiz-adv-x="713" 
d="M651 660v-391q0 -279 -295 -279t-295 279v391h173v-394q0 -141 122 -141q124 0 124 141v394h171z" />
    <glyph glyph-name="V" unicode="V" horiz-adv-x="683" 
d="M677 660l-234 -660h-202l-235 660h181l121 -399l36 -130l35 128l123 401h175z" />
    <glyph glyph-name="W" unicode="W" horiz-adv-x="997" 
d="M470 320l-77 -320h-193l-190 660h185l109 -525l119 525h156l121 -524l109 524h178l-191 -660h-187l-78 320l-30 161h-2z" />
    <glyph glyph-name="X" unicode="X" horiz-adv-x="663" 
d="M655 0h-205l-124 217l-120 -217h-195l224 332l-211 328h203l114 -210l114 210h186l-211 -323z" />
    <glyph glyph-name="Y" unicode="Y" horiz-adv-x="657" 
d="M647 660l-233 -419v-241h-172v241l-233 419h178l93 -181l49 -110l50 110l93 181h175z" />
    <glyph glyph-name="Z" unicode="Z" horiz-adv-x="634" 
d="M224 130h379v-130h-566v124l369 406h-362v130h547v-124z" />
    <glyph glyph-name="bracketleft" unicode="[" horiz-adv-x="391" 
d="M365 594h-133v-643h133v-119h-280v881h280v-119z" />
    <glyph glyph-name="backslash" unicode="\" horiz-adv-x="468" 
d="M15 712h158l280 -782h-158z" />
    <glyph glyph-name="bracketright" unicode="]" horiz-adv-x="391" 
d="M306 713v-881h-280v119h133v643h-133v119h280z" />
    <glyph glyph-name="asciicircum" unicode="^" horiz-adv-x="612" 
d="M588 355h-150l-132 260l-131 -260h-150l209 369h144z" />
    <glyph glyph-name="underscore" unicode="_" horiz-adv-x="539" 
d="M539 -66v-135h-539v135h539z" />
    <glyph glyph-name="grave" unicode="`" horiz-adv-x="500" 
d="M250 738l67 -173h-124l-101 173h158z" />
    <glyph glyph-name="a" unicode="a" horiz-adv-x="581" 
d="M544 97q19 0 31 4l-13 -95q-29 -16 -68 -16q-108 0 -129 77q-45 -77 -178 -77q-75 0 -115 32t-40 93q0 64 45.5 103.5t149.5 60.5l113 22v18q0 34 -19 54t-52 20q-80 0 -93 -77l-138 40q13 73 72 113.5t159 40.5q239 0 239 -192v-182q0 -39 36 -39zM249 100q35 0 63 19.5
t28 51.5v43l-81 -19q-32 -8 -45.5 -19.5t-13.5 -32.5q0 -43 49 -43z" />
    <glyph glyph-name="b" unicode="b" horiz-adv-x="628" 
d="M382 510q96 0 151 -69t55 -193q0 -122 -54 -190t-152 -68q-59 0 -102.5 31.5t-64.5 84.5l-5 -106h-149v712h170v-296q45 94 151 94zM323 115q94 0 94 135t-94 135q-44 0 -68 -34t-24 -96v-10q0 -64 24.5 -97t67.5 -33z" />
    <glyph glyph-name="c" unicode="c" horiz-adv-x="571" 
d="M300 510q113 0 170 -43t71 -112l-158 -52q-10 86 -77 86q-99 0 -99 -141q0 -137 99 -137q71 0 83 81l153 -49q-11 -68 -72.5 -110.5t-162.5 -42.5q-130 0 -200 68t-70 192q0 123 69.5 191.5t193.5 68.5z" />
    <glyph glyph-name="d" unicode="d" horiz-adv-x="628" 
d="M398 712h170v-712h-153l-6 95q-22 -49 -64.5 -77t-98.5 -28q-97 0 -151.5 68t-54.5 190q0 124 55 193t152 69q105 0 151 -94v296zM305 115q41 0 65.5 29.5t27.5 85.5v40q-3 55 -27.5 85t-65.5 30q-94 0 -94 -135t94 -135z" />
    <glyph glyph-name="e" unicode="e" horiz-adv-x="582" 
d="M548 257q0 -34 -5 -56h-341q15 -91 105 -91q75 0 92 55l138 -44q-21 -64 -81.5 -97.5t-148.5 -33.5q-131 0 -200.5 68t-69.5 192t68 192t193 68q121 0 185.5 -66.5t64.5 -186.5zM297 391q-81 0 -96 -98h188q-12 98 -92 98z" />
    <glyph glyph-name="f" unicode="f" horiz-adv-x="415" 
d="M255 535v-35h152v-121h-142v-379h-170v379h-80v121h80v46q0 90 56 135t146 45q78 0 115 -29l-17 -106q-22 16 -57 16q-83 0 -83 -72z" />
    <glyph glyph-name="g" unicode="g" horiz-adv-x="566" 
d="M378 111q87 0 134.5 -38t47.5 -112q0 -85 -75.5 -130.5t-205.5 -45.5q-256 0 -256 118q0 71 93 94q-77 33 -77 104q0 35 22 62t60 40q-82 44 -82 137q0 81 64 125.5t180 44.5q54 0 100 -11q11 64 50 102.5t108 32.5l19 -113q-90 13 -117 -43q84 -44 84 -138
q0 -81 -64 -125t-180 -44q-54 0 -96 9q-31 -8 -31 -35q0 -34 52 -34h170zM283 413q-33 0 -53.5 -20t-20.5 -53t20.5 -52.5t53.5 -19.5t53.5 19.5t20.5 52.5t-20.5 53t-53.5 20zM291 -105q66 0 100.5 13.5t34.5 35.5q0 32 -61 32h-137q-76 0 -76 -35q0 -46 139 -46z" />
    <glyph glyph-name="h" unicode="h" horiz-adv-x="620" 
d="M389 510q79 0 126 -46t47 -131v-333h-170v286q0 95 -71 95q-40 0 -65 -29t-25 -89v-263h-170v712h170v-303q45 101 158 101z" />
    <glyph glyph-name="i" unicode="i" horiz-adv-x="291" 
d="M146 558q-52 0 -75.5 19.5t-23.5 61.5q0 43 23.5 62.5t75.5 19.5t75.5 -19.5t23.5 -62.5q0 -42 -23.5 -61.5t-75.5 -19.5zM231 500v-500h-170v500h170z" />
    <glyph glyph-name="j" unicode="j" horiz-adv-x="290" 
d="M145 721q100 0 100 -82q0 -81 -100 -81q-98 0 -98 81q0 82 98 82zM231 500v-528q0 -187 -194 -187q-79 0 -131 32l24 110q23 -20 63 -20q68 0 68 80v513h170z" />
    <glyph glyph-name="k" unicode="k" horiz-adv-x="622" 
d="M433 0l-121 205l-81 -90v-115h-170v712h170v-422l191 210h188l-184 -196l195 -304h-188z" />
    <glyph glyph-name="l" unicode="l" horiz-adv-x="327" 
d="M229 712v-539q0 -34 10 -48t36 -14q24 0 51 9l-11 -105q-40 -25 -104 -25q-80 0 -116 37.5t-36 120.5v564h170z" />
    <glyph glyph-name="m" unicode="m" horiz-adv-x="941" 
d="M712 510q76 0 123.5 -46t47.5 -131v-333h-170v294q0 86 -68 86q-40 0 -64 -29t-24 -84v-267h-170v294q0 86 -68 86q-38 0 -63 -29t-25 -87v-264h-170v500h152l5 -96q48 106 168 106q57 0 98.5 -26t59.5 -75q24 49 68.5 75t99.5 26z" />
    <glyph glyph-name="n" unicode="n" horiz-adv-x="620" 
d="M389 510q79 0 126 -46t47 -131v-333h-170v286q0 94 -71 94q-40 0 -65 -28.5t-25 -87.5v-264h-170v500h152l5 -96q48 106 171 106z" />
    <glyph glyph-name="o" unicode="o" horiz-adv-x="602" 
d="M301 510q125 0 194.5 -68.5t69.5 -191.5t-69.5 -191.5t-194.5 -68.5t-194.5 68.5t-69.5 191.5t69.5 191.5t194.5 68.5zM301 389q-48 0 -71 -33t-23 -106t23 -106t71 -33t71 33t23 106t-23 106t-71 33z" />
    <glyph glyph-name="p" unicode="p" horiz-adv-x="628" 
d="M382 510q98 0 152 -68t54 -190q0 -124 -55 -193t-151 -69q-106 0 -151 94v-294h-170v710h149l5 -106q21 53 64.5 84.5t102.5 31.5zM323 115q94 0 94 135t-94 135q-43 0 -67.5 -33t-24.5 -97v-10q0 -62 24 -96t68 -34z" />
    <glyph glyph-name="q" unicode="q" horiz-adv-x="629" 
d="M419 500h149v-710h-170v293q-46 -93 -151 -93q-97 0 -151.5 69t-54.5 193q0 122 54 190t151 68q59 0 102.5 -31t64.5 -84zM306 115q44 0 68 34t24 96v10q0 63 -24.5 96.5t-67.5 33.5q-94 0 -94 -135t94 -135z" />
    <glyph glyph-name="r" unicode="r" horiz-adv-x="430" 
d="M370 510q34 0 54 -11l-18 -144q-24 15 -63 15q-48 0 -80 -30.5t-32 -87.5v-252h-170v500h150l7 -108q38 118 152 118z" />
    <glyph glyph-name="s" unicode="s" horiz-adv-x="533" 
d="M268 -10q-172 0 -244 88l88 96q43 -71 148 -71q35 0 55 9.5t20 25.5q0 14 -20.5 24.5t-70.5 20.5q-112 22 -159.5 60t-47.5 101q0 67 63 116.5t178 49.5q160 0 229 -94l-92 -90q-40 71 -132 71q-36 0 -56 -11t-20 -27q0 -15 20.5 -25.5t71.5 -20.5q110 -19 158.5 -56.5
t48.5 -102.5q0 -73 -61 -118.5t-177 -45.5z" />
    <glyph glyph-name="t" unicode="t" horiz-adv-x="435" 
d="M407 133l17 -105q-55 -38 -141 -38q-183 0 -184 160v229h-86v121h86v112l170 47v-159h150v-121h-150v-201q0 -67 66 -67q41 0 72 22z" />
    <glyph glyph-name="u" unicode="u" horiz-adv-x="620" 
d="M389 500h170v-500h-152l-5 93q-47 -103 -173 -103q-171 0 -171 176v334h170v-291q0 -49 17 -69t52 -20q42 0 67 28.5t25 86.5v265z" />
    <glyph glyph-name="v" unicode="v" horiz-adv-x="561" 
d="M386 500h176l-180 -500h-203l-180 500h179l103 -392z" />
    <glyph glyph-name="w" unicode="w" horiz-adv-x="908" 
d="M720 500h178l-151 -500h-204l-90 321l-89 -321h-203l-152 500h179l84 -377l98 377h168l97 -377z" />
    <glyph glyph-name="x" unicode="x" horiz-adv-x="589" 
d="M583 0h-192l-98 174l-100 -174h-188l180 253l-173 247h193l92 -167l94 167h188l-174 -248z" />
    <glyph glyph-name="y" unicode="y" horiz-adv-x="570" 
d="M570 500l-183 -500q-41 -119 -96.5 -167t-151.5 -48q-85 0 -136 37l36 114q29 -26 86 -26q31 0 49 10.5t29 37.5l12 31l-58 136l-149 375h187l77 -285l24 -106l27 110l77 281h170z" />
    <glyph glyph-name="z" unicode="z" horiz-adv-x="515" 
d="M36 0v104l198 226l54 53l-80 -2h-171v119h439v-104l-197 -224l-54 -55l88 2h172v-119h-449z" />
    <glyph glyph-name="braceleft" unicode="{" horiz-adv-x="420" 
d="M289 -1q0 -43 25.5 -62.5t81.5 -19.5l-5 -108q-129 0 -183.5 38.5t-54.5 131.5v134q0 56 -25.5 80t-86.5 24v110q61 0 86.5 24t25.5 80v135q0 92 54.5 131t183.5 39l5 -108q-56 0 -81.5 -19t-25.5 -62v-151q0 -95 -100 -124q100 -28 100 -123v-150z" />
    <glyph glyph-name="bar" unicode="|" horiz-adv-x="320" 
d="M235 713v-881h-150v881h150z" />
    <glyph glyph-name="braceright" unicode="}" horiz-adv-x="420" 
d="M267 431q0 -56 25.5 -80t86.5 -24v-110q-61 0 -86.5 -24t-25.5 -80v-134q0 -93 -54.5 -131.5t-183.5 -38.5l-5 108q56 0 81.5 19.5t25.5 62.5v150q0 95 101 123q-101 29 -101 124v151q0 43 -25.5 62t-81.5 19l5 108q129 0 183.5 -39t54.5 -131v-135z" />
    <glyph glyph-name="asciitilde" unicode="~" horiz-adv-x="597" 
d="M554 425q-9 -194 -161 -194q-40 0 -72 16t-55.5 32t-42.5 16q-39 0 -48 -59h-132q9 194 161 194q40 0 72 -16t55.5 -32t42.5 -16q39 0 48 59h132z" />
    <glyph glyph-name="uni00A0" unicode="&#xa0;" horiz-adv-x="286" 
 />
    <glyph glyph-name="exclamdown" unicode="&#xa1;" horiz-adv-x="298" 
d="M149 341q-45 0 -70.5 22t-25.5 62q0 39 25.5 61t70.5 22t71 -22t26 -61q0 -40 -26 -62t-71 -22zM61 -160v213l19 232h139l19 -232v-213h-177z" />
    <glyph glyph-name="cent" unicode="&#xa2;" horiz-adv-x="575" 
d="M548 144q-7 -63 -57.5 -104t-137.5 -48v-92h-88v93q-107 13 -163.5 79.5t-56.5 177.5q0 112 57.5 179t162.5 79v92h88v-92q173 -16 193 -153l-127 -46q-12 67 -66 88v-295q56 17 70 85zM193 248q0 -121 72 -144v293q-72 -25 -72 -149z" />
    <glyph glyph-name="sterling" unicode="&#xa3;" horiz-adv-x="624" 
d="M593 176q13 -76 -24 -131t-113 -55q-72 0 -160 60q-55 -60 -141 -60q-53 0 -87 25t-34 68t36.5 68t90.5 25q37 0 74 -7q-2 46 -22 87h-160v99h91q-43 63 -43 119q0 83 63 139.5t175 56.5q197 0 236 -175l-138 -64q-14 63 -37.5 89.5t-65.5 26.5q-38 0 -61 -20.5
t-23 -54.5q0 -39 43 -102q4 -5 10 -15h195v-99h-149q5 -27 5 -51q0 -43 -13 -78q48 -22 84 -22q68 0 65 83zM159 54q47 0 65 41q-32 16 -65 16q-40 0 -40 -28q0 -29 40 -29z" />
    <glyph glyph-name="currency" unicode="&#xa4;" horiz-adv-x="646" 
d="M536 330q0 -60 -24 -103l98 -87l-98 -97l-89 99q-43 -21 -99 -21q-55 0 -102 22l-88 -100l-98 97l98 87q-24 45 -24 103q0 57 24 102l-98 86l98 98l89 -100q45 21 101 21t100 -21l88 100l98 -98l-97 -88q23 -44 23 -100zM324 242q37 0 60 24t23 64q0 39 -23 63t-60 24
q-38 0 -61 -24t-23 -63q0 -40 23 -64t61 -24z" />
    <glyph glyph-name="yen" unicode="&#xa5;" horiz-adv-x="678" 
d="M435 301l60 4h118v-60h-192v-66h192v-58h-192v-121h-164v121h-191v58h191v66h-191v60h117l60 -4l-224 359h176l100 -206l43 -102h2l44 103l99 205h176z" />
    <glyph glyph-name="brokenbar" unicode="&#xa6;" horiz-adv-x="272" 
d="M211 713v-380h-150v380h150zM211 212v-380h-150v380h150z" />
    <glyph glyph-name="section" unicode="&#xa7;" horiz-adv-x="623" 
d="M600 278q0 -91 -75 -146q16 -29 16 -72q0 -79 -62 -124.5t-170 -45.5q-86 0 -139.5 23.5t-93.5 72.5l88 82q25 -36 57.5 -51.5t85.5 -15.5q107 0 107 44q0 26 -29.5 40.5t-106.5 22.5q-134 13 -194 53t-60 113q0 93 75 145q-16 31 -16 72q0 81 63 130t172 49
q87 0 138.5 -23.5t91.5 -72.5l-87 -81q-27 35 -59 50.5t-84 15.5t-80 -14t-28 -38q0 -26 29.5 -40.5t106.5 -22.5q134 -13 194 -53t60 -113zM145 299q0 -27 30.5 -41t109.5 -22q102 -11 154 -33q40 19 40 50q0 26 -30.5 40.5t-109.5 22.5q-96 9 -155 33q-39 -19 -39 -50z
" />
    <glyph glyph-name="dieresis" unicode="&#xa8;" horiz-adv-x="500" 
d="M140 710q40 0 63 -20.5t23 -56.5t-23 -56.5t-63 -20.5q-39 0 -61.5 20.5t-22.5 56.5t22.5 56.5t61.5 20.5zM360 710q40 0 63 -20.5t23 -56.5t-23 -56.5t-63 -20.5q-39 0 -61.5 20.5t-22.5 56.5t22.5 56.5t61.5 20.5z" />
    <glyph glyph-name="copyright" unicode="&#xa9;" horiz-adv-x="772" 
d="M386 670q156 0 250 -93t94 -247t-94 -247t-250 -93t-250 93t-94 247t94 247t250 93zM386 586q-116 0 -185.5 -70t-69.5 -186t69.5 -186t185.5 -70t185.5 70t69.5 186t-69.5 186t-185.5 70zM382 520q142 0 180 -110l-96 -47q-19 41 -73 41q-70 0 -70 -75t70 -75
q59 0 77 45l91 -45q-25 -62 -65 -89t-114 -27q-82 0 -130 51.5t-48 139.5t48 139.5t130 51.5z" />
    <glyph glyph-name="ordfeminine" unicode="&#xaa;" horiz-adv-x="438" 
d="M392 382q14 0 20 3l-9 -67q-26 -12 -56 -12q-70 0 -87 56q-37 -56 -127 -56q-110 0 -110 84q0 44 32 70t104 41l80 16v12q0 48 -49 48q-50 0 -60 -51l-102 24q8 53 51 82.5t118 29.5q168 0 168 -135v-115q0 -30 27 -30zM182 381q23 0 40 12.5t17 35.5v36l-43 -10
q-52 -12 -52 -44q0 -30 38 -30zM34 151v89h365v-89h-365z" />
    <glyph glyph-name="guillemotleft" unicode="&#xab;" horiz-adv-x="585" 
d="M308 461l-121 -196l121 -196h-148l-125 196l125 196h148zM550 461l-121 -196l121 -196h-147l-126 196l126 196h147z" />
    <glyph glyph-name="logicalnot" unicode="&#xac;" 
d="M60 386h484v-289h-137v167h-347v122z" />
    <glyph glyph-name="uni00AD" unicode="&#xad;" horiz-adv-x="528" 
d="M447 337v-139h-366v139h366z" />
    <glyph glyph-name="registered" unicode="&#xae;" horiz-adv-x="772" 
d="M386 670q156 0 250 -93t94 -247t-94 -247t-250 -93t-250 93t-94 247t94 247t250 93zM386 74q116 0 185.5 70t69.5 186t-69.5 186t-185.5 70t-185.5 -70t-69.5 -186t69.5 -186t185.5 -70zM550 396q0 -84 -79 -110l87 -135h-121l-65 125h-28v-125h-101v364h176
q56 0 93.5 -33.5t37.5 -85.5zM344 431v-86h51q52 0 52 43t-52 43h-51z" />
    <glyph glyph-name="macron" unicode="&#xaf;" horiz-adv-x="500" 
d="M436 674v-105h-372v105h372z" />
    <glyph glyph-name="degree" unicode="&#xb0;" horiz-adv-x="495" 
d="M248 298q-93 0 -147.5 50.5t-54.5 135.5t54.5 135.5t147.5 50.5q92 0 147 -50.5t55 -135.5t-55 -135.5t-147 -50.5zM248 407q34 0 56 21.5t22 56.5q0 34 -22 55.5t-56 21.5q-35 0 -57 -21.5t-22 -55.5q0 -35 22 -56.5t57 -21.5z" />
    <glyph glyph-name="plusminus" unicode="&#xb1;" 
d="M364 477h189v-117h-189v-175h-123v175h-190v117h190v175h123v-175zM51 1v114h502v-114h-502z" />
    <glyph glyph-name="uni00B2" unicode="&#xb2;" horiz-adv-x="392" 
d="M29 333v77q65 36 89 52q117 79 117 133q0 45 -47 45q-54 0 -54 -76l-119 32q1 66 48.5 102.5t127.5 36.5q88 0 131 -38.5t43 -91.5q0 -74 -97 -139q-36 -23 -77 -38v-2q42 4 91 4h88v-97h-341z" />
    <glyph glyph-name="uni00B3" unicode="&#xb3;" horiz-adv-x="379" 
d="M188 735q77 0 118 -29.5t41 -83.5q0 -40 -23 -63.5t-61 -25.5v-3q43 -1 67.5 -23t24.5 -62q0 -54 -44 -86t-119 -32q-148 0 -183 101l115 42q4 -54 59 -54q23 0 36.5 11.5t13.5 31.5q0 36 -50 36h-23v65h19q47 0 47 40q0 41 -44 41q-47 0 -53 -52l-110 37q9 55 55 82
t114 27z" />
    <glyph glyph-name="acute" unicode="&#xb4;" horiz-adv-x="500" 
d="M250 738h158l-101 -173h-124z" />
    <glyph glyph-name="uni00B5" unicode="&#xb5;" horiz-adv-x="617" 
d="M389 500h170v-500h-150l-6 92q-42 -102 -153 -102q-15 0 -22 1v-201h-170v710h170v-291q0 -49 17.5 -69t52.5 -20q83 0 91 97v283z" />
    <glyph glyph-name="paragraph" unicode="&#xb6;" horiz-adv-x="740" 
d="M674 660v-760h-138v630h-108v-630h-139v331q-124 1 -189.5 55.5t-65.5 158.5q0 215 276 215h364z" />
    <glyph glyph-name="periodcentered" unicode="&#xb7;" horiz-adv-x="274" 
d="M137 443q47 0 73.5 -23.5t26.5 -66.5q0 -42 -26.5 -66t-73.5 -24t-73.5 24t-26.5 66q0 43 26.5 66.5t73.5 23.5z" />
    <glyph glyph-name="cedilla" unicode="&#xb8;" horiz-adv-x="500" 
d="M182 2l42 35q80 -11 123.5 -47.5t43.5 -86.5q0 -57 -39 -87.5t-104 -30.5q-81 0 -124 40l39 79q28 -28 72 -28q25 0 40 13t15 36q0 27 -23 45t-85 32z" />
    <glyph glyph-name="uni00B9" unicode="&#xb9;" horiz-adv-x="298" 
d="M152 730h104v-397h-123v216q0 26 3 65q-59 -45 -117 -49v101q33 5 75 24.5t58 39.5z" />
    <glyph glyph-name="ordmasculine" unicode="&#xba;" horiz-adv-x="422" 
d="M211 306q-85 0 -133 47t-48 131t48 131t133 47q86 0 134 -47t48 -131t-48 -131t-134 -47zM211 388q29 0 42 23t13 73t-13 73t-42 23q-55 0 -55 -96t55 -96zM36 151v89h350v-89h-350z" />
    <glyph glyph-name="guillemotright" unicode="&#xbb;" horiz-adv-x="585" 
d="M35 461h147l126 -196l-126 -196h-147l121 196zM277 461h148l125 -196l-125 -196h-148l121 196z" />
    <glyph glyph-name="onequarter" unicode="&#xbc;" horiz-adv-x="885" 
d="M133 484q0 27 3 64q-60 -44 -117 -48v101q33 5 75 24.5t58 39.5h104v-397h-123v216zM608 661h120l-477 -661h-120zM808 162h60v-81h-60v-85h-107v85h-201v56l161 257h147v-232zM701 240q0 44 3 80h-3q-16 -35 -31 -59l-64 -99h95v78z" />
    <glyph glyph-name="onehalf" unicode="&#xbd;" horiz-adv-x="953" 
d="M133 484q0 27 3 64q-60 -44 -117 -48v101q33 5 75 24.5t58 39.5h104v-397h-123v216zM608 661h120l-477 -661h-120zM843 93h88v-97h-341v77q65 36 89 52q117 79 117 133q0 45 -47 45q-54 0 -54 -76l-119 32q1 66 48.5 102.5t127.5 36.5q88 0 131 -38.5t43 -91.5
q0 -74 -97 -139q-36 -23 -77 -38v-2q42 4 91 4z" />
    <glyph glyph-name="threequarters" unicode="&#xbe;" horiz-adv-x="966" 
d="M188 670q77 0 118 -29.5t41 -83.5q0 -40 -23 -63.5t-61 -25.5v-3q43 -1 67.5 -23t24.5 -62q0 -54 -44 -86t-119 -32q-148 0 -183 101l115 42q4 -54 59 -54q23 0 36.5 11.5t13.5 31.5q0 36 -50 36h-23v65h19q47 0 47 40q0 41 -44 41q-47 0 -53 -52l-110 37q9 55 55 82
t114 27zM212 0l477 661h120l-477 -661h-120zM950 162v-81h-60v-85h-107v85h-201v56l161 257h147v-232h60zM688 162h95v78q0 44 3 80h-3q-16 -35 -31 -59z" />
    <glyph glyph-name="questiondown" unicode="&#xbf;" horiz-adv-x="605" 
d="M313 340q-45 0 -70.5 22t-25.5 62t25.5 62.5t70.5 22.5q46 0 71.5 -22.5t25.5 -62.5t-25.5 -62t-71.5 -22zM298 -169q-118 0 -187.5 45t-69.5 136q0 168 190 189l11 86h145l10 -153q-93 -7 -132.5 -31t-39.5 -65q0 -69 85 -69q44 0 70 25.5t30 74.5l164 -62
q-11 -80 -79 -128t-197 -48z" />
    <glyph glyph-name="Agrave" unicode="&#xc0;" horiz-adv-x="677" 
d="M394 723h-124l-92 159h161zM496 0l-45 149h-228l-46 -149h-173l232 660h206l231 -660h-177zM259 266h156l-48 158l-29 104h-2l-27 -103z" />
    <glyph glyph-name="Aacute" unicode="&#xc1;" horiz-adv-x="677" 
d="M483 882l-92 -159h-124l55 159h161zM496 0l-45 149h-228l-46 -149h-173l232 660h206l231 -660h-177zM259 266h156l-48 158l-29 104h-2l-27 -103z" />
    <glyph glyph-name="Acircumflex" unicode="&#xc2;" horiz-adv-x="677" 
d="M338 807l-67 -88h-126l111 167h164l111 -167h-126zM496 0l-45 149h-228l-46 -149h-173l232 660h206l231 -660h-177zM259 266h156l-48 158l-29 104h-2l-27 -103z" />
    <glyph glyph-name="Atilde" unicode="&#xc3;" horiz-adv-x="677" 
d="M273 776q-31 0 -37 -56h-96q6 159 132 159q33 0 57.5 -14.5t41 -28.5t31.5 -14q32 0 38 56h96q-6 -159 -132 -159q-33 0 -57 14.5t-41 28.5t-33 14zM496 0l-45 149h-228l-46 -149h-173l232 660h206l231 -660h-177zM259 266h156l-48 158l-29 104h-2l-27 -103z" />
    <glyph glyph-name="Adieresis" unicode="&#xc4;" horiz-adv-x="677" 
d="M227 716q-39 0 -61.5 20.5t-22.5 56.5t22.5 56.5t61.5 20.5q40 0 63 -20.5t23 -56.5t-23 -56.5t-63 -20.5zM447 716q-39 0 -61.5 20.5t-22.5 56.5t22.5 56.5t61.5 20.5q40 0 63 -20.5t23 -56.5t-23 -56.5t-63 -20.5zM496 0l-45 149h-228l-46 -149h-173l232 660h206
l231 -660h-177zM259 266h156l-48 158l-29 104h-2l-27 -103z" />
    <glyph glyph-name="Aring" unicode="&#xc5;" horiz-adv-x="677" 
d="M496 0l-45 149h-228l-46 -149h-173l230 638q-45 33 -45 94q0 58 40.5 93.5t109.5 35.5q70 0 110 -35.5t40 -93.5q0 -61 -46 -94l230 -638h-177zM339 782q-27 0 -42.5 -15t-15.5 -41t15.5 -41t42.5 -15t42.5 15t15.5 41t-15.5 41t-42.5 15zM259 266h156l-48 158l-28 104
h-4l-26 -103z" />
    <glyph glyph-name="AE" unicode="&#xc6;" horiz-adv-x="924" 
d="M581 127h313v-127h-473v196h-178l-74 -196h-173l283 660h601v-127h-299v-142h229v-120h-229v-144zM286 308h135v230h-48z" />
    <glyph glyph-name="Ccedilla" unicode="&#xc7;" horiz-adv-x="681" 
d="M658 189q-46 -161 -212 -192q53 -38 53 -94q0 -57 -39 -87.5t-104 -30.5q-81 0 -124 40l39 79q28 -28 72 -28q25 0 40 13t15 36q0 22 -15.5 38t-55.5 29q-133 12 -207.5 101t-74.5 237q0 159 86.5 249.5t236.5 90.5q108 0 183 -45.5t99 -136.5l-151 -61q-14 60 -43 84
t-82 24q-73 0 -113 -52.5t-40 -152.5t38.5 -152.5t111.5 -52.5q108 0 131 108z" />
    <glyph glyph-name="Egrave" unicode="&#xc8;" horiz-adv-x="631" 
d="M404 723h-124l-92 159h161zM245 133h355v-133h-527v660h514v-133h-342v-134h272v-125h-272v-135z" />
    <glyph glyph-name="Eacute" unicode="&#xc9;" horiz-adv-x="631" 
d="M468 882l-92 -159h-124l55 159h161zM245 133h355v-133h-527v660h514v-133h-342v-134h272v-125h-272v-135z" />
    <glyph glyph-name="Ecircumflex" unicode="&#xca;" horiz-adv-x="631" 
d="M323 807l-67 -88h-126l111 167h164l111 -167h-126zM245 133h355v-133h-527v660h514v-133h-342v-134h272v-125h-272v-135z" />
    <glyph glyph-name="Edieresis" unicode="&#xcb;" horiz-adv-x="631" 
d="M212 716q-39 0 -61.5 20.5t-22.5 56.5t22.5 56.5t61.5 20.5q40 0 63 -20.5t23 -56.5t-23 -56.5t-63 -20.5zM432 716q-39 0 -61.5 20.5t-22.5 56.5t22.5 56.5t61.5 20.5q40 0 63 -20.5t23 -56.5t-23 -56.5t-63 -20.5zM245 133h355v-133h-527v660h514v-133h-342v-134h272
v-125h-272v-135z" />
    <glyph glyph-name="Igrave" unicode="&#xcc;" horiz-adv-x="318" 
d="M160 882l55 -159h-124l-92 159h161zM245 660v-660h-172v660h172z" />
    <glyph glyph-name="Iacute" unicode="&#xcd;" horiz-adv-x="318" 
d="M142 882h161l-92 -159h-124zM245 660v-660h-172v660h172z" />
    <glyph glyph-name="Icircumflex" unicode="&#xce;" horiz-adv-x="318" 
d="M352 719h-126l-67 88l-67 -88h-126l111 167h164zM245 660v-660h-172v660h172z" />
    <glyph glyph-name="Idieresis" unicode="&#xcf;" horiz-adv-x="318" 
d="M56 870q39 0 61.5 -20.5t22.5 -56.5t-22.5 -56.5t-61.5 -20.5q-38 0 -60 20.5t-22 56.5t22 56.5t60 20.5zM260 870q39 0 61.5 -20.5t22.5 -56.5t-22.5 -56.5t-61.5 -20.5q-38 0 -60 20.5t-22 56.5t22 56.5t60 20.5zM245 660v-660h-172v660h172z" />
    <glyph glyph-name="Eth" unicode="&#xd0;" horiz-adv-x="741" 
d="M376 660q155 0 237.5 -85.5t82.5 -244.5t-82.5 -244.5t-237.5 -85.5h-280v273h-83v114h83v273h280zM359 130q83 0 122 50t39 150t-39 150t-122 50h-91v-143h131v-114h-131v-143h91z" />
    <glyph glyph-name="Ntilde" unicode="&#xd1;" horiz-adv-x="741" 
d="M570 878q-6 -159 -132 -159q-33 0 -57 14.5t-41 28.5t-33 14q-31 0 -37 -56h-96q6 159 132 159q33 0 57.5 -14.5t41 -28.5t31.5 -14q32 0 38 56h96zM668 660v-660h-191l-205 357l-50 100h-1l4 -124v-333h-152v660h191l205 -357l50 -100h1l-4 124v333h152z" />
    <glyph glyph-name="Ograve" unicode="&#xd2;" horiz-adv-x="737" 
d="M370 882l55 -159h-124l-92 159h161zM369 670q151 0 237 -90.5t86 -249.5t-86 -249.5t-237 -90.5t-237.5 90.5t-86.5 249.5t86.5 249.5t237.5 90.5zM369 535q-72 0 -110 -52t-38 -153t38 -153t110 -52t109.5 52t37.5 153t-37.5 153t-109.5 52z" />
    <glyph glyph-name="Oacute" unicode="&#xd3;" horiz-adv-x="737" 
d="M352 882h161l-92 -159h-124zM369 670q151 0 237 -90.5t86 -249.5t-86 -249.5t-237 -90.5t-237.5 90.5t-86.5 249.5t86.5 249.5t237.5 90.5zM369 535q-72 0 -110 -52t-38 -153t38 -153t110 -52t109.5 52t37.5 153t-37.5 153t-109.5 52z" />
    <glyph glyph-name="Ocircumflex" unicode="&#xd4;" horiz-adv-x="737" 
d="M562 719h-126l-67 88l-67 -88h-126l111 167h164zM369 670q151 0 237 -90.5t86 -249.5t-86 -249.5t-237 -90.5t-237.5 90.5t-86.5 249.5t86.5 249.5t237.5 90.5zM369 535q-72 0 -110 -52t-38 -153t38 -153t110 -52t109.5 52t37.5 153t-37.5 153t-109.5 52z" />
    <glyph glyph-name="Otilde" unicode="&#xd5;" horiz-adv-x="737" 
d="M566 878q-6 -159 -132 -159q-33 0 -57 14.5t-41 28.5t-33 14q-31 0 -37 -56h-96q6 159 132 159q33 0 57.5 -14.5t41 -28.5t31.5 -14q32 0 38 56h96zM369 670q151 0 237 -90.5t86 -249.5t-86 -249.5t-237 -90.5t-237.5 90.5t-86.5 249.5t86.5 249.5t237.5 90.5zM369 535
q-72 0 -110 -52t-38 -153t38 -153t110 -52t109.5 52t37.5 153t-37.5 153t-109.5 52z" />
    <glyph glyph-name="Odieresis" unicode="&#xd6;" horiz-adv-x="737" 
d="M257 870q40 0 63 -20.5t23 -56.5t-23 -56.5t-63 -20.5q-39 0 -61.5 20.5t-22.5 56.5t22.5 56.5t61.5 20.5zM477 870q40 0 63 -20.5t23 -56.5t-23 -56.5t-63 -20.5q-39 0 -61.5 20.5t-22.5 56.5t22.5 56.5t61.5 20.5zM369 670q151 0 237 -90.5t86 -249.5t-86 -249.5
t-237 -90.5t-237.5 90.5t-86.5 249.5t86.5 249.5t237.5 90.5zM369 535q-72 0 -110 -52t-38 -153t38 -153t110 -52t109.5 52t37.5 153t-37.5 153t-109.5 52z" />
    <glyph glyph-name="multiply" unicode="&#xd7;" 
d="M550 482l-156 -156l156 -156l-92 -92l-156 156l-156 -156l-92 92l156 156l-156 156l92 92l156 -156l156 156z" />
    <glyph glyph-name="Oslash" unicode="&#xd8;" horiz-adv-x="737" 
d="M601 584q91 -89 91 -254q0 -159 -86 -249.5t-237 -90.5q-101 0 -176 42l-43 -59h-86l73 101q-92 92 -92 256q0 159 86.5 249.5t237.5 90.5q104 0 178 -44l39 55h86zM369 535q-72 0 -110 -52t-38 -153q0 -75 21 -123l212 301q-33 27 -85 27zM369 125q72 0 109.5 52
t37.5 153q0 69 -18 116l-210 -298q32 -23 81 -23z" />
    <glyph glyph-name="Ugrave" unicode="&#xd9;" horiz-adv-x="713" 
d="M357 882l55 -159h-124l-92 159h161zM651 660v-391q0 -279 -295 -279t-295 279v391h173v-394q0 -141 122 -141q124 0 124 141v394h171z" />
    <glyph glyph-name="Uacute" unicode="&#xda;" horiz-adv-x="713" 
d="M340 882h161l-92 -159h-124zM651 660v-391q0 -279 -295 -279t-295 279v391h173v-394q0 -141 122 -141q124 0 124 141v394h171z" />
    <glyph glyph-name="Ucircumflex" unicode="&#xdb;" horiz-adv-x="713" 
d="M549 719h-126l-67 88l-67 -88h-126l111 167h164zM651 660v-391q0 -279 -295 -279t-295 279v391h173v-394q0 -141 122 -141q124 0 124 141v394h171z" />
    <glyph glyph-name="Udieresis" unicode="&#xdc;" horiz-adv-x="713" 
d="M245 870q40 0 63 -20.5t23 -56.5t-23 -56.5t-63 -20.5q-39 0 -61.5 20.5t-22.5 56.5t22.5 56.5t61.5 20.5zM465 870q40 0 63 -20.5t23 -56.5t-23 -56.5t-63 -20.5q-39 0 -61.5 20.5t-22.5 56.5t22.5 56.5t61.5 20.5zM651 660v-391q0 -279 -295 -279t-295 279v391h173
v-394q0 -141 122 -141q124 0 124 141v394h171z" />
    <glyph glyph-name="Yacute" unicode="&#xdd;" horiz-adv-x="657" 
d="M311 882h161l-92 -159h-124zM647 660l-233 -419v-241h-172v241l-233 419h178l93 -181l49 -110l50 110l93 181h175z" />
    <glyph glyph-name="Thorn" unicode="&#xde;" horiz-adv-x="666" 
d="M366 559q127 0 194.5 -56.5t66.5 -165.5q1 -108 -66.5 -165t-194.5 -57h-121v-115h-172v660h172v-101h121zM346 243q108 0 108 94q0 93 -108 93h-101v-187h101z" />
    <glyph glyph-name="germandbls" unicode="&#xdf;" horiz-adv-x="648" 
d="M433 363q84 0 132 -50.5t48 -128.5q0 -82 -56 -138t-164 -56q-79 0 -124 32l28 113q25 -23 66 -23t64 26t23 69q0 91 -107 91h-49l17 121h31q42 1 65.5 25.5t23.5 64.5q0 41 -24 63t-67 22q-60 0 -84.5 -34t-24.5 -112v-448h-170v461q0 125 66.5 190.5t216.5 65.5
q122 0 187 -54.5t65 -138.5q0 -64 -43.5 -111.5t-119.5 -47.5v-2z" />
    <glyph glyph-name="agrave" unicode="&#xe0;" horiz-adv-x="581" 
d="M343 565h-124l-101 173h158zM544 97q19 0 31 4l-13 -95q-29 -16 -68 -16q-108 0 -129 77q-45 -77 -178 -77q-75 0 -115 32t-40 93q0 64 45.5 103.5t149.5 60.5l113 22v18q0 34 -19 54t-52 20q-80 0 -93 -77l-138 40q13 73 72 113.5t159 40.5q239 0 239 -192v-182
q0 -39 36 -39zM249 100q35 0 63 19.5t28 51.5v43l-81 -19q-32 -8 -45.5 -19.5t-13.5 -32.5q0 -43 49 -43z" />
    <glyph glyph-name="aacute" unicode="&#xe1;" horiz-adv-x="581" 
d="M424 738l-101 -173h-124l67 173h158zM544 97q19 0 31 4l-13 -95q-29 -16 -68 -16q-108 0 -129 77q-45 -77 -178 -77q-75 0 -115 32t-40 93q0 64 45.5 103.5t149.5 60.5l113 22v18q0 34 -19 54t-52 20q-80 0 -93 -77l-138 40q13 73 72 113.5t159 40.5q239 0 239 -192v-182
q0 -39 36 -39zM249 100q35 0 63 19.5t28 51.5v43l-81 -19q-32 -8 -45.5 -19.5t-13.5 -32.5q0 -43 49 -43z" />
    <glyph glyph-name="acircumflex" unicode="&#xe2;" horiz-adv-x="581" 
d="M276 646l-68 -87h-123l108 173h166l108 -173h-123zM544 97q19 0 31 4l-13 -95q-29 -16 -68 -16q-108 0 -129 77q-45 -77 -178 -77q-75 0 -115 32t-40 93q0 64 45.5 103.5t149.5 60.5l113 22v18q0 34 -19 54t-52 20q-80 0 -93 -77l-138 40q13 73 72 113.5t159 40.5
q239 0 239 -192v-182q0 -39 36 -39zM249 100q35 0 63 19.5t28 51.5v43l-81 -19q-32 -8 -45.5 -19.5t-13.5 -32.5q0 -43 49 -43z" />
    <glyph glyph-name="atilde" unicode="&#xe3;" horiz-adv-x="581" 
d="M211 616q-31 0 -37 -56h-96q6 159 132 159q33 0 57.5 -14.5t41 -28.5t31.5 -14q32 0 38 56h96q-6 -159 -132 -159q-33 0 -57 14.5t-41 28.5t-33 14zM544 97q19 0 31 4l-13 -95q-29 -16 -68 -16q-108 0 -129 77q-45 -77 -178 -77q-75 0 -115 32t-40 93q0 64 45.5 103.5
t149.5 60.5l113 22v18q0 34 -19 54t-52 20q-80 0 -93 -77l-138 40q13 73 72 113.5t159 40.5q239 0 239 -192v-182q0 -39 36 -39zM249 100q35 0 63 19.5t28 51.5v43l-81 -19q-32 -8 -45.5 -19.5t-13.5 -32.5q0 -43 49 -43z" />
    <glyph glyph-name="adieresis" unicode="&#xe4;" horiz-adv-x="581" 
d="M165 556q-39 0 -61.5 20.5t-22.5 56.5t22.5 56.5t61.5 20.5q40 0 63 -20.5t23 -56.5t-23 -56.5t-63 -20.5zM385 556q-39 0 -61.5 20.5t-22.5 56.5t22.5 56.5t61.5 20.5q40 0 63 -20.5t23 -56.5t-23 -56.5t-63 -20.5zM544 97q19 0 31 4l-13 -95q-29 -16 -68 -16
q-108 0 -129 77q-45 -77 -178 -77q-75 0 -115 32t-40 93q0 64 45.5 103.5t149.5 60.5l113 22v18q0 34 -19 54t-52 20q-80 0 -93 -77l-138 40q13 73 72 113.5t159 40.5q239 0 239 -192v-182q0 -39 36 -39zM249 100q35 0 63 19.5t28 51.5v43l-81 -19q-32 -8 -45.5 -19.5
t-13.5 -32.5q0 -43 49 -43z" />
    <glyph glyph-name="aring" unicode="&#xe5;" horiz-adv-x="581" 
d="M277 551q-63 0 -99 32.5t-36 88.5t36 88.5t99 32.5t98.5 -32.5t35.5 -88.5t-35.5 -88.5t-98.5 -32.5zM277 723q-24 0 -38.5 -14t-14.5 -37t14.5 -37t38.5 -14q23 0 37.5 14t14.5 37t-14.5 37t-37.5 14zM544 97q19 0 31 4l-13 -95q-29 -16 -68 -16q-108 0 -129 77
q-45 -77 -178 -77q-75 0 -115 32t-40 93q0 64 45.5 103.5t149.5 60.5l113 22v18q0 34 -19 54t-52 20q-80 0 -93 -77l-138 40q13 73 72 113.5t159 40.5q239 0 239 -192v-182q0 -39 36 -39zM249 100q35 0 63 19.5t28 51.5v43l-81 -19q-32 -8 -45.5 -19.5t-13.5 -32.5
q0 -43 49 -43z" />
    <glyph glyph-name="ae" unicode="&#xe6;" horiz-adv-x="879" 
d="M842 270q0 -33 -4 -63h-329q14 -97 103 -97q66 0 83 55l137 -44q-21 -65 -79 -98t-146 -33q-131 0 -187 95q-56 -95 -225 -95q-80 0 -121.5 33.5t-41.5 90.5q0 63 44.5 99.5t141.5 55.5l125 25v25q0 74 -77 74q-71 0 -89 -75l-138 35q13 74 70.5 115.5t157.5 41.5
q117 0 174 -73q59 73 162 73q114 0 176.5 -66t62.5 -174zM602 391q-81 0 -94 -101h178q-9 101 -84 101zM252 91q38 0 64.5 22t26.5 63v40l-71 -17q-40 -10 -57 -23.5t-17 -38.5q0 -46 54 -46z" />
    <glyph glyph-name="ccedilla" unicode="&#xe7;" horiz-adv-x="571" 
d="M542 143q-8 -54 -49.5 -92.5t-109.5 -53.5q54 -36 54 -94q0 -57 -39 -87.5t-104 -30.5q-81 0 -124 40l39 79q28 -28 72 -28q25 0 40 13t15 36q0 22 -15.5 38t-55.5 29q-111 10 -169.5 77t-58.5 181q0 123 69.5 191.5t193.5 68.5q113 0 170 -43t71 -112l-158 -52
q-10 86 -77 86q-99 0 -99 -141q0 -137 99 -137q71 0 83 81z" />
    <glyph glyph-name="egrave" unicode="&#xe8;" horiz-adv-x="582" 
d="M362 565h-124l-101 173h158zM548 257q0 -34 -5 -56h-341q15 -91 105 -91q75 0 92 55l138 -44q-21 -64 -81.5 -97.5t-148.5 -33.5q-131 0 -200.5 68t-69.5 192t68 192t193 68q121 0 185.5 -66.5t64.5 -186.5zM297 391q-81 0 -96 -98h188q-12 98 -92 98z" />
    <glyph glyph-name="eacute" unicode="&#xe9;" horiz-adv-x="582" 
d="M443 738l-101 -173h-124l67 173h158zM548 257q0 -34 -5 -56h-341q15 -91 105 -91q75 0 92 55l138 -44q-21 -64 -81.5 -97.5t-148.5 -33.5q-131 0 -200.5 68t-69.5 192t68 192t193 68q121 0 185.5 -66.5t64.5 -186.5zM297 391q-81 0 -96 -98h188q-12 98 -92 98z" />
    <glyph glyph-name="ecircumflex" unicode="&#xea;" horiz-adv-x="582" 
d="M295 646l-68 -87h-123l108 173h166l108 -173h-123zM548 257q0 -34 -5 -56h-341q15 -91 105 -91q75 0 92 55l138 -44q-21 -64 -81.5 -97.5t-148.5 -33.5q-131 0 -200.5 68t-69.5 192t68 192t193 68q121 0 185.5 -66.5t64.5 -186.5zM297 391q-81 0 -96 -98h188
q-12 98 -92 98z" />
    <glyph glyph-name="edieresis" unicode="&#xeb;" horiz-adv-x="582" 
d="M184 556q-39 0 -61.5 20.5t-22.5 56.5t22.5 56.5t61.5 20.5q40 0 63 -20.5t23 -56.5t-23 -56.5t-63 -20.5zM404 556q-39 0 -61.5 20.5t-22.5 56.5t22.5 56.5t61.5 20.5q40 0 63 -20.5t23 -56.5t-23 -56.5t-63 -20.5zM548 257q0 -34 -5 -56h-341q15 -91 105 -91
q75 0 92 55l138 -44q-21 -64 -81.5 -97.5t-148.5 -33.5q-131 0 -200.5 68t-69.5 192t68 192t193 68q121 0 185.5 -66.5t64.5 -186.5zM297 391q-81 0 -96 -98h188q-12 98 -92 98z" />
    <glyph glyph-name="igrave" unicode="&#xec;" horiz-adv-x="291" 
d="M146 738l67 -173h-124l-101 173h158zM231 500v-500h-170v500h170z" />
    <glyph glyph-name="iacute" unicode="&#xed;" horiz-adv-x="291" 
d="M140 738h158l-101 -173h-124zM231 500v-500h-170v500h170z" />
    <glyph glyph-name="icircumflex" unicode="&#xee;" horiz-adv-x="291" 
d="M337 559h-123l-68 87l-68 -87h-123l108 173h166zM231 500v-500h-170v500h170z" />
    <glyph glyph-name="idieresis" unicode="&#xef;" horiz-adv-x="291" 
d="M49 554q-80 0 -80 79t80 79q81 0 81 -79t-81 -79zM242 554q-81 0 -81 79t81 79q80 0 80 -79t-80 -79zM231 500v-500h-170v500h170z" />
    <glyph glyph-name="eth" unicode="&#xf0;" 
d="M567 617l-100 -12q95 -124 95 -302q0 -160 -64.5 -236.5t-204.5 -76.5q-118 0 -185 67t-67 186q0 117 67 184.5t177 67.5q100 0 143 -70q-21 90 -76 154l-163 -35l-11 56l135 20q-47 43 -137 102h155q56 -30 102 -77l120 28zM304 111q97 0 97 132q0 140 -95 140
q-93 0 -93 -140q0 -132 91 -132z" />
    <glyph glyph-name="ntilde" unicode="&#xf1;" horiz-adv-x="620" 
d="M247 616q-31 0 -37 -56h-96q6 159 132 159q33 0 57.5 -14.5t41 -28.5t31.5 -14q32 0 38 56h96q-6 -159 -132 -159q-33 0 -57 14.5t-41 28.5t-33 14zM389 510q79 0 126 -46t47 -131v-333h-170v286q0 94 -71 94q-40 0 -65 -28.5t-25 -87.5v-264h-170v500h152l5 -96
q48 106 171 106z" />
    <glyph glyph-name="ograve" unicode="&#xf2;" horiz-adv-x="602" 
d="M301 738l67 -173h-124l-101 173h158zM301 510q125 0 194.5 -68.5t69.5 -191.5t-69.5 -191.5t-194.5 -68.5t-194.5 68.5t-69.5 191.5t69.5 191.5t194.5 68.5zM301 389q-48 0 -71 -33t-23 -106t23 -106t71 -33t71 33t23 106t-23 106t-71 33z" />
    <glyph glyph-name="oacute" unicode="&#xf3;" horiz-adv-x="602" 
d="M291 738h158l-101 -173h-124zM301 510q125 0 194.5 -68.5t69.5 -191.5t-69.5 -191.5t-194.5 -68.5t-194.5 68.5t-69.5 191.5t69.5 191.5t194.5 68.5zM301 389q-48 0 -71 -33t-23 -106t23 -106t71 -33t71 33t23 106t-23 106t-71 33z" />
    <glyph glyph-name="ocircumflex" unicode="&#xf4;" horiz-adv-x="602" 
d="M492 559h-123l-68 87l-68 -87h-123l108 173h166zM301 510q125 0 194.5 -68.5t69.5 -191.5t-69.5 -191.5t-194.5 -68.5t-194.5 68.5t-69.5 191.5t69.5 191.5t194.5 68.5zM301 389q-48 0 -71 -33t-23 -106t23 -106t71 -33t71 33t23 106t-23 106t-71 33z" />
    <glyph glyph-name="otilde" unicode="&#xf5;" horiz-adv-x="602" 
d="M499 718q-6 -159 -132 -159q-33 0 -57 14.5t-41 28.5t-33 14q-31 0 -37 -56h-96q6 159 132 159q33 0 57.5 -14.5t41 -28.5t31.5 -14q32 0 38 56h96zM301 510q125 0 194.5 -68.5t69.5 -191.5t-69.5 -191.5t-194.5 -68.5t-194.5 68.5t-69.5 191.5t69.5 191.5t194.5 68.5z
M301 389q-48 0 -71 -33t-23 -106t23 -106t71 -33t71 33t23 106t-23 106t-71 33z" />
    <glyph glyph-name="odieresis" unicode="&#xf6;" horiz-adv-x="602" 
d="M190 710q40 0 63 -20.5t23 -56.5t-23 -56.5t-63 -20.5q-39 0 -61.5 20.5t-22.5 56.5t22.5 56.5t61.5 20.5zM410 710q40 0 63 -20.5t23 -56.5t-23 -56.5t-63 -20.5q-39 0 -61.5 20.5t-22.5 56.5t22.5 56.5t61.5 20.5zM301 510q125 0 194.5 -68.5t69.5 -191.5t-69.5 -191.5
t-194.5 -68.5t-194.5 68.5t-69.5 191.5t69.5 191.5t194.5 68.5zM301 389q-48 0 -71 -33t-23 -106t23 -106t71 -33t71 33t23 106t-23 106t-71 33z" />
    <glyph glyph-name="divide" unicode="&#xf7;" 
d="M303 624q40 0 63 -22t23 -61t-23 -61t-63 -22t-63 22t-23 61t23 61t63 22zM554 386v-122h-504v122h504zM303 194q40 0 63 -22t23 -61t-23 -61t-63 -22t-63 22t-23 61t23 61t63 22z" />
    <glyph glyph-name="oslash" unicode="&#xf8;" horiz-adv-x="602" 
d="M301 510q91 0 154 -37l38 48h67l-64 -80q69 -69 69 -191q0 -123 -69.5 -191.5t-194.5 -68.5q-87 0 -145 33l-38 -50h-67l61 80q-75 69 -75 197q0 123 69.5 191.5t194.5 68.5zM222 178h1l23 35l116 153q-22 23 -61 23q-48 0 -71 -33t-23 -106q0 -39 15 -72zM301 111
q48 0 71 33t23 106q0 36 -12 60h-1l-22 -32l-113 -150q18 -17 54 -17z" />
    <glyph glyph-name="ugrave" unicode="&#xf9;" horiz-adv-x="620" 
d="M373 565h-124l-101 173h158zM389 500h170v-500h-152l-5 93q-47 -103 -173 -103q-171 0 -171 176v334h170v-291q0 -49 17 -69t52 -20q42 0 67 28.5t25 86.5v265z" />
    <glyph glyph-name="uacute" unicode="&#xfa;" horiz-adv-x="620" 
d="M454 738l-101 -173h-124l67 173h158zM389 500h170v-500h-152l-5 93q-47 -103 -173 -103q-171 0 -171 176v334h170v-291q0 -49 17 -69t52 -20q42 0 67 28.5t25 86.5v265z" />
    <glyph glyph-name="ucircumflex" unicode="&#xfb;" horiz-adv-x="620" 
d="M306 646l-68 -87h-123l108 173h166l108 -173h-123zM389 500h170v-500h-152l-5 93q-47 -103 -173 -103q-171 0 -171 176v334h170v-291q0 -49 17 -69t52 -20q42 0 67 28.5t25 86.5v265z" />
    <glyph glyph-name="udieresis" unicode="&#xfc;" horiz-adv-x="620" 
d="M194 556q-39 0 -61.5 20.5t-22.5 56.5t22.5 56.5t61.5 20.5q40 0 63 -20.5t23 -56.5t-23 -56.5t-63 -20.5zM414 556q-39 0 -61.5 20.5t-22.5 56.5t22.5 56.5t61.5 20.5q40 0 63 -20.5t23 -56.5t-23 -56.5t-63 -20.5zM389 500h170v-500h-152l-5 93q-47 -103 -173 -103
q-171 0 -171 176v334h170v-291q0 -49 17 -69t52 -20q42 0 67 28.5t25 86.5v265z" />
    <glyph glyph-name="yacute" unicode="&#xfd;" horiz-adv-x="570" 
d="M293 738h158l-101 -173h-124zM570 500l-183 -500q-41 -119 -96.5 -167t-151.5 -48q-85 0 -136 37l36 114q29 -26 86 -26q31 0 49 10.5t29 37.5l12 31l-58 136l-149 375h187l77 -285l24 -106l27 110l77 281h170z" />
    <glyph glyph-name="thorn" unicode="&#xfe;" horiz-adv-x="628" 
d="M386 510q90 0 146 -65t56 -190q0 -137 -60.5 -201t-146.5 -64q-104 0 -150 85v-285h-170v922h170v-299q46 97 155 97zM323 115q94 0 94 135t-94 135q-43 0 -67.5 -33t-24.5 -97v-10q0 -62 24 -96t68 -34z" />
    <glyph glyph-name="ydieresis" unicode="&#xff;" horiz-adv-x="570" 
d="M192 710q40 0 63 -20.5t23 -56.5t-23 -56.5t-63 -20.5q-39 0 -61.5 20.5t-22.5 56.5t22.5 56.5t61.5 20.5zM412 710q40 0 63 -20.5t23 -56.5t-23 -56.5t-63 -20.5q-39 0 -61.5 20.5t-22.5 56.5t22.5 56.5t61.5 20.5zM570 500l-183 -500q-41 -119 -96.5 -167t-151.5 -48
q-85 0 -136 37l36 114q29 -26 86 -26q31 0 49 10.5t29 37.5l12 31l-58 136l-149 375h187l77 -285l24 -106l27 110l77 281h170z" />
    <glyph glyph-name="Amacron" unicode="&#x100;" horiz-adv-x="677" 
d="M524 834v-105h-372v105h372zM496 0l-45 149h-228l-46 -149h-173l232 660h206l231 -660h-177zM259 266h156l-48 158l-29 104h-2l-27 -103z" />
    <glyph glyph-name="amacron" unicode="&#x101;" horiz-adv-x="581" 
d="M462 674v-105h-372v105h372zM544 97q19 0 31 4l-13 -95q-29 -16 -68 -16q-108 0 -129 77q-45 -77 -178 -77q-75 0 -115 32t-40 93q0 64 45.5 103.5t149.5 60.5l113 22v18q0 34 -19 54t-52 20q-80 0 -93 -77l-138 40q13 73 72 113.5t159 40.5q239 0 239 -192v-182
q0 -39 36 -39zM249 100q35 0 63 19.5t28 51.5v43l-81 -19q-32 -8 -45.5 -19.5t-13.5 -32.5q0 -43 49 -43z" />
    <glyph glyph-name="Abreve" unicode="&#x102;" horiz-adv-x="677" 
d="M338 715q-79 0 -124 43.5t-45 119.5h110q0 -31 16 -49.5t43 -18.5t43 18.5t16 49.5h110q0 -76 -45 -119.5t-124 -43.5zM496 0l-45 149h-228l-46 -149h-173l232 660h206l231 -660h-177zM259 266h156l-48 158l-29 104h-2l-27 -103z" />
    <glyph glyph-name="abreve" unicode="&#x103;" horiz-adv-x="581" 
d="M276 555q-79 0 -124 43.5t-45 119.5h110q0 -31 16 -49.5t43 -18.5t43 18.5t16 49.5h110q0 -76 -45 -119.5t-124 -43.5zM544 97q19 0 31 4l-13 -95q-29 -16 -68 -16q-108 0 -129 77q-45 -77 -178 -77q-75 0 -115 32t-40 93q0 64 45.5 103.5t149.5 60.5l113 22v18
q0 34 -19 54t-52 20q-80 0 -93 -77l-138 40q13 73 72 113.5t159 40.5q239 0 239 -192v-182q0 -39 36 -39zM249 100q35 0 63 19.5t28 51.5v43l-81 -19q-32 -8 -45.5 -19.5t-13.5 -32.5q0 -43 49 -43z" />
    <glyph glyph-name="Aogonek" unicode="&#x104;" horiz-adv-x="677" 
d="M657 -110l23 -82q-37 -23 -104 -23q-62 0 -100 29t-38 84q0 67 63 102h-5l-45 149h-228l-46 -149h-173l232 660h206l231 -660q-65 -11 -91 -30t-26 -46q0 -21 14.5 -32.5t40.5 -11.5q31 0 46 10zM259 266h156l-48 158l-29 104h-2l-27 -103z" />
    <glyph glyph-name="aogonek" unicode="&#x105;" horiz-adv-x="581" 
d="M503 -120q31 0 46 10l23 -82q-37 -23 -102 -23q-62 0 -100 28.5t-38 84.5q0 85 101 117q-47 17 -60 68q-39 -93 -186 -93q-75 0 -115 32t-40 93q0 64 45.5 103.5t149.5 60.5l113 22v18q0 34 -19 54t-52 20q-80 0 -93 -77l-138 40q13 73 72 113.5t159 40.5q239 0 239 -192
v-182q0 -39 36 -39q19 0 31 4l-13 -95q-111 -24 -111 -81q0 -45 52 -45zM249 100q35 0 63 19.5t28 51.5v43l-81 -19q-32 -8 -45.5 -19.5t-13.5 -32.5q0 -43 49 -43z" />
    <glyph glyph-name="Cacute" unicode="&#x106;" horiz-adv-x="681" 
d="M346 882h161l-92 -159h-124zM658 189q-28 -100 -104 -149.5t-185 -49.5q-151 0 -237.5 90.5t-86.5 249.5t86.5 249.5t236.5 90.5q108 0 183 -45.5t99 -136.5l-151 -61q-14 60 -43 84t-82 24q-73 0 -113 -52.5t-40 -152.5t38.5 -152.5t111.5 -52.5q108 0 131 108z" />
    <glyph glyph-name="cacute" unicode="&#x107;" horiz-adv-x="571" 
d="M287 738h158l-101 -173h-124zM300 510q113 0 170 -43t71 -112l-158 -52q-10 86 -77 86q-99 0 -99 -141q0 -137 99 -137q71 0 83 81l153 -49q-11 -68 -72.5 -110.5t-162.5 -42.5q-130 0 -200 68t-70 192q0 123 69.5 191.5t193.5 68.5z" />
    <glyph glyph-name="Ccaron" unicode="&#x10c;" horiz-adv-x="681" 
d="M552 888l-111 -167h-164l-111 167h126l67 -88l67 88h126zM658 189q-28 -100 -104 -149.5t-185 -49.5q-151 0 -237.5 90.5t-86.5 249.5t86.5 249.5t236.5 90.5q108 0 183 -45.5t99 -136.5l-151 -61q-14 60 -43 84t-82 24q-73 0 -113 -52.5t-40 -152.5t38.5 -152.5
t111.5 -52.5q108 0 131 108z" />
    <glyph glyph-name="ccaron" unicode="&#x10d;" horiz-adv-x="571" 
d="M484 738l-108 -173h-166l-108 173h123l68 -87l68 87h123zM300 510q113 0 170 -43t71 -112l-158 -52q-10 86 -77 86q-99 0 -99 -141q0 -137 99 -137q71 0 83 81l153 -49q-11 -68 -72.5 -110.5t-162.5 -42.5q-130 0 -200 68t-70 192q0 123 69.5 191.5t193.5 68.5z" />
    <glyph glyph-name="Dcaron" unicode="&#x10e;" horiz-adv-x="718" 
d="M407 721h-164l-111 167h126l67 -88l67 88h126zM353 660q155 0 237.5 -85.5t82.5 -244.5t-82.5 -244.5t-237.5 -85.5h-280v660h280zM336 130q83 0 122 50t39 150t-39 150t-122 50h-91v-400h91z" />
    <glyph glyph-name="dcaron" unicode="&#x10f;" horiz-adv-x="714" 
d="M398 416v296h170v-712h-153l-6 95q-22 -49 -64.5 -77t-98.5 -28q-97 0 -151.5 68t-54.5 190q0 124 55 193t152 69q105 0 151 -94zM631 712h129l-53 -239h-97zM305 115q41 0 65.5 29.5t27.5 85.5v40q-3 55 -27.5 85t-65.5 30q-94 0 -94 -135t94 -135z" />
    <glyph glyph-name="Dcroat" unicode="&#x110;" horiz-adv-x="741" 
d="M376 660q155 0 238 -85.5t83 -244.5t-83 -244.5t-238 -85.5h-280v273h-83v114h83v273h280zM359 130q83 0 122 50t39 150t-39 150t-122 50h-91v-143h131v-114h-131v-143h91z" />
    <glyph glyph-name="dcroat" unicode="&#x111;" horiz-adv-x="628" 
d="M644 635v-97h-76v-538h-153l-6 95q-22 -49 -64.5 -77t-98.5 -28q-97 0 -151.5 68t-54.5 190q0 124 55 193t152 69q105 0 151 -94v122h-130v97h130v77h170v-77h76zM305 115q41 0 65.5 29.5t27.5 85.5v40q-3 55 -27.5 85t-65.5 30q-94 0 -94 -135t94 -135z" />
    <glyph glyph-name="Emacron" unicode="&#x112;" horiz-adv-x="631" 
d="M509 834v-105h-372v105h372zM245 133h355v-133h-527v660h514v-133h-342v-134h272v-125h-272v-135z" />
    <glyph glyph-name="emacron" unicode="&#x113;" horiz-adv-x="582" 
d="M481 674v-105h-372v105h372zM548 257q0 -34 -5 -56h-341q15 -91 105 -91q75 0 92 55l138 -44q-21 -64 -81.5 -97.5t-148.5 -33.5q-131 0 -200.5 68t-69.5 192t68 192t193 68q121 0 185.5 -66.5t64.5 -186.5zM297 391q-81 0 -96 -98h188q-12 98 -92 98z" />
    <glyph glyph-name="Edotaccent" unicode="&#x116;" horiz-adv-x="631" 
d="M323 721q-91 0 -91 81q0 80 91 80q93 0 93 -80q0 -81 -93 -81zM245 133h355v-133h-527v660h514v-133h-342v-134h272v-125h-272v-135z" />
    <glyph glyph-name="edotaccent" unicode="&#x117;" horiz-adv-x="582" 
d="M295 561q-91 0 -91 81q0 80 91 80q93 0 93 -80q0 -81 -93 -81zM548 257q0 -34 -5 -56h-341q15 -91 105 -91q75 0 92 55l138 -44q-21 -64 -81.5 -97.5t-148.5 -33.5q-131 0 -200.5 68t-69.5 192t68 192t193 68q121 0 185.5 -66.5t64.5 -186.5zM297 391q-81 0 -96 -98h188
q-12 98 -92 98z" />
    <glyph glyph-name="Eogonek" unicode="&#x118;" horiz-adv-x="631" 
d="M585 -110l23 -82q-37 -23 -104 -23q-62 0 -100.5 28.5t-38.5 82.5q0 69 79 104h-371v660h514v-133h-342v-134h272v-125h-272v-135h355v-133h1q-65 -12 -91 -30.5t-26 -45.5q0 -44 55 -44q31 0 46 10z" />
    <glyph glyph-name="eogonek" unicode="&#x119;" horiz-adv-x="582" 
d="M548 257q0 -34 -5 -56h-341q15 -91 105 -91q75 0 92 55l138 -44q-31 -94 -143 -121q-69 -35 -69 -74q0 -22 14.5 -34t39.5 -12q31 0 46 10l23 -82q-37 -23 -103 -23q-62 0 -100.5 29t-38.5 83q0 55 54 96q-108 12 -165.5 78.5t-57.5 178.5q0 124 68 192t193 68
q121 0 185.5 -66.5t64.5 -186.5zM297 391q-81 0 -96 -98h188q-12 98 -92 98z" />
    <glyph glyph-name="Ecaron" unicode="&#x11a;" horiz-adv-x="631" 
d="M402 721h-164l-111 167h126l67 -88l67 88h126zM245 133h355v-133h-527v660h514v-133h-342v-134h272v-125h-272v-135z" />
    <glyph glyph-name="ecaron" unicode="&#x11b;" horiz-adv-x="582" 
d="M375 565h-166l-108 173h123l68 -87l68 87h123zM548 257q0 -34 -5 -56h-341q15 -91 105 -91q75 0 92 55l138 -44q-21 -64 -81.5 -97.5t-148.5 -33.5q-131 0 -200.5 68t-69.5 192t68 192t193 68q121 0 185.5 -66.5t64.5 -186.5zM297 391q-81 0 -96 -98h188q-12 98 -92 98z
" />
    <glyph glyph-name="Gbreve" unicode="&#x11e;" horiz-adv-x="723" 
d="M367 715q-79 0 -124 43.5t-45 119.5h110q0 -31 16 -49.5t43 -18.5t43 18.5t16 49.5h110q0 -76 -45 -119.5t-124 -43.5zM355 357h310v-357h-120l-5 78q-57 -88 -189 -88q-137 0 -222 89.5t-85 249.5q0 159 88 250t241 91q113 0 182 -40t109 -129l-159 -63q-25 97 -127 97
q-76 0 -116.5 -52t-40.5 -153q0 -208 162 -208q61 0 98.5 28t37.5 81v10h-164v116z" />
    <glyph glyph-name="gbreve" unicode="&#x11f;" horiz-adv-x="560" 
d="M284 555q-79 0 -124 43.5t-45 119.5h110q0 -31 16 -49.5t43 -18.5t43 18.5t16 49.5h110q0 -76 -45 -119.5t-124 -43.5zM571 521q-90 5 -103 -62q55 -44 55 -119q0 -81 -64 -125t-180 -44q-54 0 -96 9q-31 -8 -31 -35q0 -34 52 -34h170q87 0 134.5 -38t47.5 -112
q0 -85 -75.5 -130.5t-205.5 -45.5q-256 0 -256 118q0 71 93 94q-77 33 -77 104q0 35 22 62t60 40q-82 44 -82 137q0 81 64 125.5t180 44.5q76 0 131 -20q4 61 44 102.5t98 41.5zM279 268q33 0 53.5 19.5t20.5 52.5t-20.5 53t-53.5 20t-53.5 -20t-20.5 -53t20.5 -52.5
t53.5 -19.5zM361 -24h-137q-76 0 -76 -35q0 -46 139 -46q66 0 100.5 13.5t34.5 35.5q0 32 -61 32z" />
    <glyph glyph-name="uni0122" unicode="&#x122;" horiz-adv-x="723" 
d="M355 357h310v-357h-120l-5 78q-57 -88 -189 -88q-137 0 -222 89.5t-85 249.5q0 159 88 250t241 91q113 0 182 -40t109 -129l-159 -63q-25 97 -127 97q-76 0 -116.5 -52t-40.5 -153q0 -208 162 -208q61 0 98.5 28t37.5 81v10h-164v116zM285 -241l32 181h149l-71 -181h-110
z" />
    <glyph glyph-name="uni0123" unicode="&#x123;" horiz-adv-x="560" 
d="M383 772l-36 -209h-142l71 209h107zM378 111q87 0 134.5 -38t47.5 -112q0 -85 -75.5 -130.5t-205.5 -45.5q-256 0 -256 118q0 71 93 94q-77 33 -77 104q0 35 22 62t60 40q-82 44 -82 137q0 81 64 125.5t180 44.5q54 0 100 -11q11 64 50 102.5t108 32.5l19 -113
q-90 13 -117 -43q84 -44 84 -138q0 -81 -64 -125t-180 -44q-54 0 -96 9q-31 -8 -31 -35q0 -34 52 -34h170zM283 413q-33 0 -53.5 -20t-20.5 -53t20.5 -52.5t53.5 -19.5t53.5 19.5t20.5 52.5t-20.5 53t-53.5 20zM291 -105q66 0 100.5 13.5t34.5 35.5q0 32 -61 32h-137
q-76 0 -76 -35q0 -46 139 -46z" />
    <glyph glyph-name="Imacron" unicode="&#x12a;" horiz-adv-x="318" 
d="M300 834v-105h-283v105h283zM245 660v-660h-172v660h172z" />
    <glyph glyph-name="imacron" unicode="&#x12b;" horiz-adv-x="291" 
d="M283 674v-105h-274v105h274zM231 500v-500h-170v500h170z" />
    <glyph glyph-name="Iogonek" unicode="&#x12e;" horiz-adv-x="318" 
d="M235 -108l24 -83q-37 -24 -105 -24q-61 0 -99.5 28.5t-38.5 82.5q0 66 68 104h-11v660h172v-660q-111 -25 -111 -75q0 -44 53 -44q30 0 48 11z" />
    <glyph glyph-name="iogonek" unicode="&#x12f;" horiz-adv-x="291" 
d="M146 558q-52 0 -75.5 19.5t-23.5 61.5q0 43 23.5 62.5t75.5 19.5t75.5 -19.5t23.5 -62.5q0 -42 -23.5 -61.5t-75.5 -19.5zM223 -109l24 -82q-37 -24 -105 -24q-61 0 -99.5 28.5t-38.5 82.5q0 67 72 104h-15v500h170v-500q-108 -26 -108 -77q0 -20 14 -31.5t38 -11.5
q31 0 48 11z" />
    <glyph glyph-name="Idotaccent" unicode="&#x130;" horiz-adv-x="318" 
d="M159 882q93 0 93 -80q0 -81 -93 -81q-91 0 -91 81q0 80 91 80zM245 660v-660h-172v660h172z" />
    <glyph glyph-name="dotlessi" unicode="&#x131;" horiz-adv-x="291" 
d="M231 500v-500h-170v500h170z" />
    <glyph glyph-name="IJ" unicode="&#x132;" horiz-adv-x="939" 
d="M245 660v-660h-172v660h172zM877 660v-406q0 -125 -72.5 -194.5t-205.5 -69.5q-143 0 -205.5 74t-39.5 197l170 30q-13 -89 7 -127.5t76 -38.5q53 0 75.5 35t22.5 112v388h172z" />
    <glyph glyph-name="ij" unicode="&#x133;" horiz-adv-x="581" 
d="M436 721q100 0 100 -82q0 -81 -100 -81q-98 0 -98 81q0 82 98 82zM146 558q-52 0 -75.5 19.5t-23.5 61.5q0 43 23.5 62.5t75.5 19.5t75.5 -19.5t23.5 -62.5q0 -42 -23.5 -61.5t-75.5 -19.5zM231 500v-500h-170v500h170zM522 500v-528q0 -187 -194 -187q-79 0 -131 32
l24 110q23 -20 63 -20q68 0 68 80v513h170z" />
    <glyph glyph-name="uni0136" unicode="&#x136;" horiz-adv-x="693" 
d="M448 392l236 -392h-195l-164 283l-80 -97v-186h-172v660h172v-293l236 293h191zM259 -241l32 181h149l-71 -181h-110z" />
    <glyph glyph-name="uni0137" unicode="&#x137;" horiz-adv-x="622" 
d="M426 304l195 -304h-188l-121 205l-81 -90v-115h-170v712h170v-422l191 210h188zM225 -241l32 181h149l-71 -181h-110z" />
    <glyph glyph-name="Lacute" unicode="&#x139;" horiz-adv-x="602" 
d="M303 882l-92 -159h-124l55 159h161zM245 133h331v-133h-503v660h172v-527z" />
    <glyph glyph-name="lacute" unicode="&#x13a;" horiz-adv-x="331" 
d="M131 920h152l-79 -152h-123zM229 712v-539q0 -34 10 -48t36 -14q24 0 51 9l-11 -105q-40 -25 -104 -25q-80 0 -116 37.5t-36 120.5v564h170z" />
    <glyph glyph-name="uni013B" unicode="&#x13b;" horiz-adv-x="602" 
d="M245 133h331v-133h-503v660h172v-527zM232 -241l32 181h149l-71 -181h-110z" />
    <glyph glyph-name="uni013C" unicode="&#x13c;" horiz-adv-x="327" 
d="M229 712v-539q0 -34 10 -48t36 -14q24 0 51 9l-11 -105q-40 -25 -104 -25q-80 0 -116 37.5t-36 120.5v564h170zM268 -60l-71 -181h-110l32 181h149z" />
    <glyph glyph-name="Lcaron" unicode="&#x13d;" horiz-adv-x="602" 
d="M498 701l-60 -239h-109l24 239h145zM245 133h331v-133h-503v660h172v-527z" />
    <glyph glyph-name="lcaron" unicode="&#x13e;" horiz-adv-x="391" 
d="M229 712v-539q0 -34 10 -48t36 -14q24 0 51 9l-11 -105q-40 -25 -104 -25q-80 0 -116 37.5t-36 120.5v564h170zM418 712l-53 -239h-97l21 239h129z" />
    <glyph glyph-name="Ldot" unicode="&#x13f;" horiz-adv-x="644" 
d="M245 660v-527h331v-133h-503v660h172zM528 446q47 0 73.5 -24t26.5 -67q0 -42 -26.5 -66t-73.5 -24t-73.5 24t-26.5 66q0 43 26.5 67t73.5 24z" />
    <glyph glyph-name="ldot" unicode="&#x140;" horiz-adv-x="497" 
d="M229 712v-539q0 -34 10 -48t36 -14q24 0 51 9l-11 -105q-40 -25 -104 -25q-80 0 -116 37.5t-36 120.5v564h170zM394 444q47 0 73.5 -24t26.5 -67q0 -42 -26.5 -66t-73.5 -24t-73.5 24t-26.5 66q0 43 26.5 67t73.5 24z" />
    <glyph glyph-name="Lslash" unicode="&#x141;" horiz-adv-x="644" 
d="M287 133h331v-133h-503v219l-110 -53v125l110 53v316h172v-234l170 81v-125l-170 -81v-168z" />
    <glyph glyph-name="lslash" unicode="&#x142;" horiz-adv-x="394" 
d="M375 386l-104 -50v-163q0 -34 10 -48t36 -14q24 0 51 9l-11 -105q-40 -25 -104 -25q-80 0 -116 37.5t-36 120.5v87l-87 -56v124l87 42v367h170v-269l104 68v-125z" />
    <glyph glyph-name="Nacute" unicode="&#x143;" horiz-adv-x="741" 
d="M355 882h161l-92 -159h-124zM668 660v-660h-191l-205 357l-50 100h-1l4 -124v-333h-152v660h191l205 -357l50 -100h1l-4 124v333h152z" />
    <glyph glyph-name="nacute" unicode="&#x144;" horiz-adv-x="620" 
d="M461 738l-101 -173h-124l67 173h158zM389 510q79 0 126 -46t47 -131v-333h-170v286q0 94 -71 94q-40 0 -65 -28.5t-25 -87.5v-264h-170v500h152l5 -96q48 106 171 106z" />
    <glyph glyph-name="uni0145" unicode="&#x145;" horiz-adv-x="741" 
d="M668 660v-660h-191l-205 357l-50 100h-1l4 -124v-333h-152v660h191l205 -357l50 -100h1l-4 124v333h152zM461 -60l-71 -181h-110l32 181h149z" />
    <glyph glyph-name="uni0146" unicode="&#x146;" horiz-adv-x="620" 
d="M389 510q79 0 126 -46t47 -131v-333h-170v286q0 94 -71 94q-40 0 -65 -28.5t-25 -87.5v-264h-170v500h152l5 -96q48 106 171 106zM215 -241l32 181h149l-71 -181h-110z" />
    <glyph glyph-name="Ncaron" unicode="&#x147;" horiz-adv-x="741" 
d="M562 888l-111 -167h-164l-111 167h126l67 -88l67 88h126zM668 660v-660h-191l-205 357l-50 100h-1l4 -124v-333h-152v660h191l205 -357l50 -100h1l-4 124v333h152z" />
    <glyph glyph-name="ncaron" unicode="&#x148;" horiz-adv-x="620" 
d="M392 565h-166l-108 173h123l68 -87l68 87h123zM389 510q79 0 126 -46t47 -131v-333h-170v286q0 94 -71 94q-40 0 -65 -28.5t-25 -87.5v-264h-170v500h152l5 -96q48 106 171 106z" />
    <glyph glyph-name="Omacron" unicode="&#x14c;" horiz-adv-x="737" 
d="M555 834v-105h-372v105h372zM369 670q151 0 237 -90.5t86 -249.5t-86 -249.5t-237 -90.5t-237.5 90.5t-86.5 249.5t86.5 249.5t237.5 90.5zM369 535q-72 0 -110 -52t-38 -153t38 -153t110 -52t109.5 52t37.5 153t-37.5 153t-109.5 52z" />
    <glyph glyph-name="omacron" unicode="&#x14d;" horiz-adv-x="602" 
d="M487 674v-105h-372v105h372zM301 510q125 0 194.5 -68.5t69.5 -191.5t-69.5 -191.5t-194.5 -68.5t-194.5 68.5t-69.5 191.5t69.5 191.5t194.5 68.5zM301 389q-48 0 -71 -33t-23 -106t23 -106t71 -33t71 33t23 106t-23 106t-71 33z" />
    <glyph glyph-name="Ohungarumlaut" unicode="&#x150;" horiz-adv-x="737" 
d="M245 882h161l-92 -159h-124zM469 882h161l-92 -159h-124zM369 670q151 0 237 -90.5t86 -249.5t-86 -249.5t-237 -90.5t-237.5 90.5t-86.5 249.5t86.5 249.5t237.5 90.5zM369 535q-72 0 -110 -52t-38 -153t38 -153t110 -52t109.5 52t37.5 153t-37.5 153t-109.5 52z" />
    <glyph glyph-name="ohungarumlaut" unicode="&#x151;" horiz-adv-x="602" 
d="M336 738l-95 -173h-118l69 173h144zM548 738l-95 -173h-118l69 173h144zM301 510q125 0 194.5 -68.5t69.5 -191.5t-69.5 -191.5t-194.5 -68.5t-194.5 68.5t-69.5 191.5t69.5 191.5t194.5 68.5zM301 389q-48 0 -71 -33t-23 -106t23 -106t71 -33t71 33t23 106t-23 106
t-71 33z" />
    <glyph glyph-name="OE" unicode="&#x152;" horiz-adv-x="1048" 
d="M675 133h343v-133h-458v77q-79 -87 -206 -87q-143 0 -226 90.5t-83 249.5t83 249.5t228 90.5q124 0 204 -86v76h445v-133h-330v-134h259v-125h-259v-135zM363 125q69 0 106 52.5t37 152.5t-37 152.5t-106 52.5q-145 0 -145 -205t145 -205z" />
    <glyph glyph-name="oe" unicode="&#x153;" horiz-adv-x="954" 
d="M918 270q0 -36 -5 -58h-341q13 -102 106 -102q75 0 92 55l138 -44q-21 -64 -81.5 -97.5t-148.5 -33.5q-129 0 -191 88q-62 -88 -193 -88q-120 0 -188.5 69t-68.5 191t68.5 191t188.5 69q131 0 193 -87q59 87 181 87q120 0 185 -66t65 -174zM669 391q-84 0 -97 -100h185
q-13 100 -88 100zM302 111q48 0 71 33t23 106t-23 106.5t-71 33.5q-93 0 -93 -140q0 -73 23 -106t70 -33z" />
    <glyph glyph-name="Racute" unicode="&#x154;" horiz-adv-x="689" 
d="M473 882l-92 -159h-124l55 159h161zM486 0l-141 241h-103v-241h-169v660h315q120 0 184.5 -54t64.5 -156q0 -145 -129 -191l168 -259h-190zM242 530v-167h117q55 0 80 20t25 64q0 43 -25 63t-80 20h-117z" />
    <glyph glyph-name="racute" unicode="&#x155;" horiz-adv-x="430" 
d="M381 738l-101 -173h-124l67 173h158zM370 510q34 0 54 -11l-18 -144q-24 15 -63 15q-48 0 -80 -30.5t-32 -87.5v-252h-170v500h150l7 -108q38 118 152 118z" />
    <glyph glyph-name="uni0156" unicode="&#x156;" horiz-adv-x="689" 
d="M508 259l168 -259h-190l-141 241h-103v-241h-169v660h315q120 0 184.5 -54t64.5 -156q0 -145 -129 -191zM242 530v-167h117q55 0 80 20t25 64q0 43 -25 63t-80 20h-117zM260 -241l32 181h149l-71 -181h-110z" />
    <glyph glyph-name="uni0157" unicode="&#x157;" horiz-adv-x="430" 
d="M370 510q34 0 54 -11l-18 -144q-24 15 -63 15q-48 0 -80 -30.5t-32 -87.5v-252h-170v500h150l7 -108q38 118 152 118zM43 -241l32 181h149l-71 -181h-110z" />
    <glyph glyph-name="Rcaron" unicode="&#x158;" horiz-adv-x="689" 
d="M408 721h-164l-111 167h126l67 -88l67 88h126zM486 0l-141 241h-103v-241h-169v660h315q120 0 184.5 -54t64.5 -156q0 -145 -129 -191l168 -259h-190zM242 530v-167h117q55 0 80 20t25 64q0 43 -25 63t-80 20h-117z" />
    <glyph glyph-name="rcaron" unicode="&#x159;" horiz-adv-x="430" 
d="M312 565h-166l-108 173h123l68 -87l68 87h123zM370 510q34 0 54 -11l-18 -144q-24 15 -63 15q-48 0 -80 -30.5t-32 -87.5v-252h-170v500h150l7 -108q38 118 152 118z" />
    <glyph glyph-name="Sacute" unicode="&#x15a;" horiz-adv-x="644" 
d="M312 882h161l-92 -159h-124zM331 670q94 0 160.5 -28t123.5 -91l-97 -112q-65 97 -184 97q-52 0 -80 -18t-28 -48q0 -26 29 -42.5t103 -29.5q136 -23 194 -70.5t58 -134.5q0 -94 -78 -148.5t-201 -54.5q-112 0 -182 27.5t-121 84.5l89 121q38 -55 87 -77.5t118 -22.5
q110 0 110 61q0 23 -28 37.5t-101 28.5q-138 25 -197 72.5t-59 132.5q0 95 75.5 155t208.5 60z" />
    <glyph glyph-name="sacute" unicode="&#x15b;" horiz-adv-x="533" 
d="M265 738h158l-101 -173h-124zM268 -10q-172 0 -244 88l88 96q43 -71 148 -71q35 0 55 9.5t20 25.5q0 14 -20.5 24.5t-70.5 20.5q-112 22 -159.5 60t-47.5 101q0 67 63 116.5t178 49.5q160 0 229 -94l-92 -90q-40 71 -132 71q-36 0 -56 -11t-20 -27q0 -15 20.5 -25.5
t71.5 -20.5q110 -19 158.5 -56.5t48.5 -102.5q0 -73 -61 -118.5t-177 -45.5z" />
    <glyph glyph-name="uni015E" unicode="&#x15e;" horiz-adv-x="644" 
d="M358 398q136 -23 194 -70.5t58 -134.5q0 -78 -55 -130t-147 -67q52 -38 52 -93q0 -57 -39 -87.5t-104 -30.5q-81 0 -124 40l39 79q28 -28 72 -28q25 0 40 13t15 36q0 22 -15 37.5t-53 28.5q-94 4 -155 31.5t-108 79.5l89 121q38 -55 87 -77.5t118 -22.5q110 0 110 61
q0 23 -28 37.5t-101 28.5q-138 25 -197 72.5t-59 132.5q0 95 75.5 155t208.5 60q94 0 160.5 -28t123.5 -91l-97 -112q-65 97 -184 97q-52 0 -80 -18t-28 -48q0 -26 29 -42.5t103 -29.5z" />
    <glyph glyph-name="uni015F" unicode="&#x15f;" horiz-adv-x="533" 
d="M299 313q110 -19 158.5 -56.5t48.5 -102.5q0 -58 -40 -100t-118 -57q54 -37 54 -94t-39 -87.5t-104 -30.5q-81 0 -124 40l39 79q28 -28 72 -28q25 0 40 13t15 36q0 22 -15 37.5t-53 28.5q-145 8 -209 87l88 96q43 -71 148 -71q35 0 55 9.5t20 25.5q0 14 -20.5 24.5
t-70.5 20.5q-112 22 -159.5 60t-47.5 101q0 67 63 116.5t178 49.5q160 0 229 -94l-92 -90q-40 71 -132 71q-36 0 -56 -11t-20 -27q0 -15 20.5 -25.5t71.5 -20.5z" />
    <glyph glyph-name="Scaron" unicode="&#x160;" horiz-adv-x="644" 
d="M518 888l-111 -167h-164l-111 167h126l67 -88l67 88h126zM331 670q94 0 160.5 -28t123.5 -91l-97 -112q-65 97 -184 97q-52 0 -80 -18t-28 -48q0 -26 29 -42.5t103 -29.5q136 -23 194 -70.5t58 -134.5q0 -94 -78 -148.5t-201 -54.5q-112 0 -182 27.5t-121 84.5l89 121
q38 -55 87 -77.5t118 -22.5q110 0 110 61q0 23 -28 37.5t-101 28.5q-138 25 -197 72.5t-59 132.5q0 95 75.5 155t208.5 60z" />
    <glyph glyph-name="scaron" unicode="&#x161;" horiz-adv-x="533" 
d="M462 738l-108 -173h-166l-108 173h123l68 -87l68 87h123zM268 -10q-172 0 -244 88l88 96q43 -71 148 -71q35 0 55 9.5t20 25.5q0 14 -20.5 24.5t-70.5 20.5q-112 22 -159.5 60t-47.5 101q0 67 63 116.5t178 49.5q160 0 229 -94l-92 -90q-40 71 -132 71q-36 0 -56 -11
t-20 -27q0 -15 20.5 -25.5t71.5 -20.5q110 -19 158.5 -56.5t48.5 -102.5q0 -73 -61 -118.5t-177 -45.5z" />
    <glyph glyph-name="uni0162" unicode="&#x162;" horiz-adv-x="653" 
d="M628 527h-215v-525q49 -34 49 -95q0 -60 -39.5 -91t-104.5 -31q-84 0 -127 41l45 82q28 -31 68 -31q24 0 40 14t16 40q0 25 -18.5 40.5t-57.5 28.5h-43v527h-216v133h603v-133z" />
    <glyph glyph-name="uni0163" unicode="&#x163;" horiz-adv-x="443" 
d="M334 -6q51 -38 51 -91q0 -57 -39.5 -87.5t-103.5 -30.5q-82 0 -125 40l40 79q26 -28 69 -28q27 0 42 13t15 37q0 25 -15.5 41t-56.5 31q-111 25 -112 152v229h-86v121h86v112l170 47v-159h150v-121h-150v-201q0 -67 66 -67q41 0 72 22l17 -105q-33 -24 -90 -34z" />
    <glyph glyph-name="Tcaron" unicode="&#x164;" horiz-adv-x="653" 
d="M405 721h-164l-111 167h126l67 -88l67 88h126zM628 660v-133h-215v-527h-172v527h-216v133h603z" />
    <glyph glyph-name="tcaron" unicode="&#x165;" horiz-adv-x="435" 
d="M466 767l-53 -218h-97l21 218h129zM335 111q41 0 72 22l17 -105q-55 -38 -141 -38q-183 0 -184 160v229h-86v121h86v112l170 47v-159h150v-121h-150v-201q0 -67 66 -67z" />
    <glyph glyph-name="Umacron" unicode="&#x16a;" horiz-adv-x="713" 
d="M542 834v-105h-372v105h372zM651 660v-391q0 -279 -295 -279t-295 279v391h173v-394q0 -141 122 -141q124 0 124 141v394h171z" />
    <glyph glyph-name="umacron" unicode="&#x16b;" horiz-adv-x="620" 
d="M492 674v-105h-372v105h372zM389 500h170v-500h-152l-5 93q-47 -103 -173 -103q-171 0 -171 176v334h170v-291q0 -49 17 -69t52 -20q42 0 67 28.5t25 86.5v265z" />
    <glyph glyph-name="Uring" unicode="&#x16e;" horiz-adv-x="713" 
d="M357 901q63 0 98.5 -32.5t35.5 -88.5t-35.5 -88.5t-98.5 -32.5t-99 32.5t-36 88.5t36 88.5t99 32.5zM357 831q-24 0 -38.5 -14t-14.5 -37t14.5 -37t38.5 -14q23 0 37.5 14t14.5 37t-14.5 37t-37.5 14zM651 660v-391q0 -279 -295 -279t-295 279v391h173v-394
q0 -141 122 -141q124 0 124 141v394h171z" />
    <glyph glyph-name="uring" unicode="&#x16f;" horiz-adv-x="620" 
d="M306 551q-63 0 -99 32.5t-36 88.5t36 88.5t99 32.5t98.5 -32.5t35.5 -88.5t-35.5 -88.5t-98.5 -32.5zM306 723q-24 0 -38.5 -14t-14.5 -37t14.5 -37t38.5 -14q23 0 37.5 14t14.5 37t-14.5 37t-37.5 14zM389 500h170v-500h-152l-5 93q-47 -103 -173 -103q-171 0 -171 176
v334h170v-291q0 -49 17 -69t52 -20q42 0 67 28.5t25 86.5v265z" />
    <glyph glyph-name="Uhungarumlaut" unicode="&#x170;" horiz-adv-x="713" 
d="M232 883h161l-92 -160h-124zM453 882h162l-92 -159h-124zM651 660v-391q0 -279 -295 -279t-295 279v391h173v-394q0 -141 122 -141q124 0 124 141v394h171z" />
    <glyph glyph-name="uhungarumlaut" unicode="&#x171;" horiz-adv-x="620" 
d="M340 738l-95 -173h-118l69 173h144zM457 565h-118l69 173h144zM389 500h170v-500h-152l-5 93q-47 -103 -173 -103q-171 0 -171 176v334h170v-291q0 -49 17 -69t52 -20q42 0 67 28.5t25 86.5v265z" />
    <glyph glyph-name="Uogonek" unicode="&#x172;" horiz-adv-x="713" 
d="M480 660h171v-391q0 -232 -204 -271q-75 -30 -75 -74q0 -20 15 -32t40 -12q30 0 46 10l22 -82q-37 -23 -103 -23q-62 0 -100.5 28.5t-38.5 82.5q0 60 53 96q-245 24 -245 277v391h173v-394q0 -141 122 -141q124 0 124 141v394z" />
    <glyph glyph-name="uogonek" unicode="&#x173;" horiz-adv-x="620" 
d="M543 -110l22 -81q-38 -24 -103 -24q-61 0 -97.5 28t-36.5 81q0 72 81 109l-8 96q-24 -53 -69 -81t-103 -28q-171 0 -171 176v334h170v-291q0 -49 17 -69t50 -20q41 0 67.5 31t26.5 87v262h170v-500q-113 -27 -113 -78q0 -42 51 -42q27 0 46 10z" />
    <glyph glyph-name="Ydieresis" unicode="&#x178;" horiz-adv-x="657" 
d="M217 870q40 0 63 -20.5t23 -56.5t-23 -56.5t-63 -20.5q-39 0 -61.5 20.5t-22.5 56.5t22.5 56.5t61.5 20.5zM437 870q40 0 63 -20.5t23 -56.5t-23 -56.5t-63 -20.5q-39 0 -61.5 20.5t-22.5 56.5t22.5 56.5t61.5 20.5zM647 660l-233 -419v-241h-172v241l-233 419h178
l93 -181l49 -110l50 110l93 181h175z" />
    <glyph glyph-name="Zacute" unicode="&#x179;" horiz-adv-x="634" 
d="M464 882l-92 -159h-124l55 159h161zM224 130h379v-130h-566v124l369 406h-362v130h547v-124z" />
    <glyph glyph-name="zacute" unicode="&#x17a;" horiz-adv-x="515" 
d="M242 738h158l-101 -173h-124zM36 0v104l198 226l54 53l-80 -2h-171v119h439v-104l-197 -224l-54 -55l88 2h172v-119h-449z" />
    <glyph glyph-name="Zdotaccent" unicode="&#x17b;" horiz-adv-x="634" 
d="M320 721q-91 0 -91 81q0 80 91 80q93 0 93 -80q0 -81 -93 -81zM224 130h379v-130h-566v124l369 406h-362v130h547v-124z" />
    <glyph glyph-name="zdotaccent" unicode="&#x17c;" horiz-adv-x="515" 
d="M252 722q93 0 93 -80q0 -81 -93 -81q-91 0 -91 81q0 80 91 80zM36 0v104l198 226l54 53l-80 -2h-171v119h439v-104l-197 -224l-54 -55l88 2h172v-119h-449z" />
    <glyph glyph-name="Zcaron" unicode="&#x17d;" horiz-adv-x="634" 
d="M398 721h-164l-111 167h126l67 -88l67 88h126zM224 130h379v-130h-566v124l369 406h-362v130h547v-124z" />
    <glyph glyph-name="zcaron" unicode="&#x17e;" horiz-adv-x="515" 
d="M439 738l-108 -173h-166l-108 173h123l68 -87l68 87h123zM36 0v104l198 226l54 53l-80 -2h-171v119h439v-104l-197 -224l-54 -55l88 2h172v-119h-449z" />
    <glyph glyph-name="longs" unicode="&#x17f;" horiz-adv-x="325" 
d="M59 0v546q0 90 52.5 135t138.5 45q66 0 97 -25l-10 -106q-17 12 -43 12q-70 0 -70 -74v-533h-165z" />
    <glyph glyph-name="florin" unicode="&#x192;" horiz-adv-x="516" 
d="M444 609q-69 0 -83 -77l-19 -115h135v-118h-155l-43 -252q-15 -85 -65.5 -130t-131.5 -45q-66 0 -108 27l22 107q22 -16 56 -16q33 0 54.5 19.5t27.5 56.5l40 233h-136v118h156l23 135q14 85 64.5 130t131.5 45q66 0 108 -27l-22 -107q-23 16 -55 16z" />
    <glyph glyph-name="uni0218" unicode="&#x218;" horiz-adv-x="644" 
d="M331 670q94 0 160.5 -28t123.5 -91l-97 -112q-65 97 -184 97q-52 0 -80 -18t-28 -48q0 -26 29 -42.5t103 -29.5q136 -23 194 -70.5t58 -134.5q0 -94 -78 -148.5t-201 -54.5q-112 0 -182 27.5t-121 84.5l89 121q38 -55 87 -77.5t118 -22.5q110 0 110 61q0 23 -28 37.5
t-101 28.5q-138 25 -197 72.5t-59 132.5q0 95 75.5 155t208.5 60zM424 -60l-71 -181h-110l32 181h149z" />
    <glyph glyph-name="uni0219" unicode="&#x219;" horiz-adv-x="533" 
d="M268 -10q-172 0 -244 88l88 96q43 -71 148 -71q35 0 55 9.5t20 25.5q0 14 -20.5 24.5t-70.5 20.5q-112 22 -159.5 60t-47.5 101q0 67 63 116.5t178 49.5q160 0 229 -94l-92 -90q-40 71 -132 71q-36 0 -56 -11t-20 -27q0 -15 20.5 -25.5t71.5 -20.5q110 -19 158.5 -56.5
t48.5 -102.5q0 -73 -61 -118.5t-177 -45.5zM353 -60l-71 -181h-110l32 181h149z" />
    <glyph glyph-name="uni021A" unicode="&#x21a;" horiz-adv-x="653" 
d="M628 660v-133h-215v-527h-172v527h-216v133h603zM219 -241l32 181h149l-71 -181h-110z" />
    <glyph glyph-name="uni021B" unicode="&#x21b;" horiz-adv-x="435" 
d="M424 28q-55 -38 -141 -38q-183 0 -184 160v229h-86v121h86v112l170 47v-159h150v-121h-150v-201q0 -67 66 -67q41 0 72 22zM150 -241l32 181h149l-71 -181h-110z" />
    <glyph glyph-name="circumflex" unicode="&#x2c6;" horiz-adv-x="500" 
d="M441 559h-123l-68 87l-68 -87h-123l108 173h166z" />
    <glyph glyph-name="caron" unicode="&#x2c7;" horiz-adv-x="500" 
d="M441 738l-108 -173h-166l-108 173h123l68 -87l68 87h123z" />
    <glyph glyph-name="uni02C9" unicode="&#x2c9;" horiz-adv-x="500" 
d="M436 674v-105h-372v105h372z" />
    <glyph glyph-name="breve" unicode="&#x2d8;" horiz-adv-x="500" 
d="M419 718q0 -76 -45 -119.5t-124 -43.5t-124 43.5t-45 119.5h110q0 -31 16 -49.5t43 -18.5t43 18.5t16 49.5h110z" />
    <glyph glyph-name="dotaccent" unicode="&#x2d9;" horiz-adv-x="500" 
d="M250 722q93 0 93 -80q0 -81 -93 -81q-91 0 -91 81q0 80 91 80z" />
    <glyph glyph-name="ring" unicode="&#x2da;" horiz-adv-x="500" 
d="M252 793q63 0 98.5 -32.5t35.5 -88.5t-35.5 -88.5t-98.5 -32.5t-99 32.5t-36 88.5t36 88.5t99 32.5zM252 723q-24 0 -38.5 -14t-14.5 -37t14.5 -37t38.5 -14q23 0 37.5 14t14.5 37t-14.5 37t-37.5 14z" />
    <glyph glyph-name="ogonek" unicode="&#x2db;" horiz-adv-x="530" 
d="M359 12q-115 -35 -115 -88q0 -20 15 -32t40 -12q30 0 46 10l22 -82q-37 -23 -103 -23q-62 0 -100.5 28.5t-38.5 82.5q0 105 166 140z" />
    <glyph glyph-name="tilde" unicode="&#x2dc;" horiz-adv-x="500" 
d="M448 718q-6 -159 -132 -159q-33 0 -57 14.5t-41 28.5t-33 14q-31 0 -37 -56h-96q6 159 132 159q33 0 57.5 -14.5t41 -28.5t31.5 -14q32 0 38 56h96z" />
    <glyph glyph-name="hungarumlaut" unicode="&#x2dd;" horiz-adv-x="500" 
d="M274 738l-95 -173h-118l69 173h144zM486 738l-95 -173h-118l69 173h144z" />
    <glyph glyph-name="uni0326" unicode="&#x326;" horiz-adv-x="0" 
d="M-168 -60l-71 -181h-110l32 181h149z" />
    <glyph glyph-name="pi" unicode="&#x3c0;" horiz-adv-x="789" 
d="M757 382h-132v-198q0 -79 97 -72l-16 -115q-141 -9 -196 27.5t-55 124.5v233h-141v-382h-170v382h-123v118h736v-118z" />
    <glyph glyph-name="uni1E9E" unicode="&#x1e9e;" horiz-adv-x="719" 
d="M508 363q86 -6 137 -49.5t51 -126.5q0 -91 -59.5 -141.5t-155.5 -50.5q-130 0 -183 58l46 100q38 -35 102 -35q40 0 64.5 20.5t24.5 54.5q0 36 -26.5 55t-73.5 19h-88v96l147 167h-119q-60 0 -95 -36.5t-35 -99.5v-394h-172v419q0 112 73.5 176.5t198.5 64.5h313v-128z
" />
    <glyph glyph-name="endash" unicode="&#x2013;" horiz-adv-x="692" 
d="M614 335v-135h-536v135h536z" />
    <glyph glyph-name="emdash" unicode="&#x2014;" horiz-adv-x="1006" 
d="M928 335v-135h-850v135h850z" />
    <glyph glyph-name="quoteleft" unicode="&#x2018;" horiz-adv-x="294" 
d="M149 362q-52 0 -80 36t-28 92q0 66 35.5 119.5t103.5 82.5l75 -53q-100 -39 -124 -107l4 -3q13 11 31 11q33 0 58 -22t25 -63q0 -44 -27.5 -68.5t-72.5 -24.5z" />
    <glyph glyph-name="quoteright" unicode="&#x2019;" horiz-adv-x="294" 
d="M150 690q53 0 80.5 -36t27.5 -92q0 -66 -35.5 -119.5t-103.5 -82.5l-75 53q99 37 125 107l-5 3q-10 -11 -30 -11q-33 0 -58.5 21.5t-25.5 62.5q0 45 27.5 69.5t72.5 24.5z" />
    <glyph glyph-name="quotesinglbase" unicode="&#x201a;" horiz-adv-x="290" 
d="M141 172q53 0 80.5 -36t27.5 -93q0 -66 -35.5 -119t-103.5 -82l-75 53q99 37 125 107l-5 3q-10 -11 -30 -11q-33 0 -58.5 21.5t-25.5 62.5q0 45 27.5 69.5t72.5 24.5z" />
    <glyph glyph-name="quotedblleft" unicode="&#x201c;" horiz-adv-x="539" 
d="M149 362q-53 0 -80.5 36t-27.5 93q0 66 35.5 119t103.5 82l75 -53q-99 -37 -124 -107l4 -3q11 11 31 11q33 0 58 -22t25 -62q0 -45 -27.5 -69.5t-72.5 -24.5zM394 362q-53 0 -80.5 36t-27.5 93q0 66 35.5 119t103.5 82l75 -53q-99 -37 -124 -107l4 -3q11 11 31 11
q33 0 58 -22t25 -62q0 -45 -27.5 -69.5t-72.5 -24.5z" />
    <glyph glyph-name="quotedblright" unicode="&#x201d;" horiz-adv-x="534" 
d="M150 690q53 0 80.5 -36t27.5 -93q0 -66 -35.5 -119t-103.5 -82l-75 53q99 37 124 107l-4 3q-11 -11 -31 -11q-33 0 -58 22t-25 62q0 45 27.5 69.5t72.5 24.5zM390 690q53 0 80.5 -36t27.5 -93q0 -66 -35.5 -119t-103.5 -82l-75 53q99 37 124 107l-4 3q-11 -11 -31 -11
q-33 0 -58 22t-25 62q0 45 27.5 69.5t72.5 24.5z" />
    <glyph glyph-name="quotedblbase" unicode="&#x201e;" horiz-adv-x="530" 
d="M141 172q53 0 80.5 -36t27.5 -93q0 -66 -35.5 -119t-103.5 -82l-75 53q99 37 125 107l-5 3q-10 -11 -30 -11q-33 0 -58.5 21.5t-25.5 62.5q0 45 27.5 69.5t72.5 24.5zM381 172q53 0 80.5 -36t27.5 -93q0 -66 -35.5 -119t-103.5 -82l-75 53q99 37 125 107l-5 3
q-10 -11 -30 -11q-33 0 -58 21.5t-25 62.5q0 45 27 69.5t72 24.5z" />
    <glyph glyph-name="dagger" unicode="&#x2020;" horiz-adv-x="595" 
d="M561 462v-130h-185v-432h-158v432h-184v130h184v198h158v-198h185z" />
    <glyph glyph-name="daggerdbl" unicode="&#x2021;" horiz-adv-x="595" 
d="M561 332h-185v-104h185v-130h-185v-198h-158v198h-184v130h184v104h-184v130h184v198h158v-198h185v-130z" />
    <glyph glyph-name="bullet" unicode="&#x2022;" horiz-adv-x="430" 
d="M215 481q71 0 112.5 -40t41.5 -108q0 -69 -41.5 -109t-112.5 -40t-112.5 40t-41.5 109q0 68 41.5 108t112.5 40z" />
    <glyph glyph-name="ellipsis" unicode="&#x2026;" horiz-adv-x="918" 
d="M150 172q47 0 73 -24t26 -67q0 -42 -26.5 -66t-72.5 -24q-47 0 -73.5 24t-26.5 66q0 43 26.5 67t73.5 24zM459 172q47 0 73.5 -24t26.5 -67q0 -42 -26.5 -66t-73.5 -24t-73.5 24t-26.5 66q0 43 26.5 67t73.5 24zM768 172q47 0 73.5 -24t26.5 -67q0 -42 -26.5 -66
t-73.5 -24t-73.5 24t-26.5 66q0 43 26.5 67t73.5 24z" />
    <glyph glyph-name="perthousand" unicode="&#x2030;" horiz-adv-x="1356" 
d="M216 670q84 0 135 -51.5t51 -136.5t-51 -136.5t-135 -51.5t-135 51.5t-51 136.5t51 136.5t135 51.5zM175 0l459 661h130l-459 -661h-130zM216 556q-59 0 -59 -74t59 -74q60 0 60 74t-60 74zM721 366q84 0 135 -51.5t51 -136.5t-51 -136.5t-135 -51.5t-135 51.5t-51 136.5
t51 136.5t135 51.5zM1139 366q84 0 135 -51.5t51 -136.5t-51 -136.5t-135 -51.5t-135 51.5t-51 136.5t51 136.5t135 51.5zM721 252q-29 0 -44.5 -19.5t-15.5 -54.5t15.5 -54.5t44.5 -19.5q60 0 60 74t-60 74zM1139 252q-29 0 -44.5 -19.5t-15.5 -54.5t15.5 -54.5t44.5 -19.5
q60 0 60 74t-60 74z" />
    <glyph glyph-name="guilsinglleft" unicode="&#x2039;" horiz-adv-x="343" 
d="M308 461l-121 -196l121 -196h-148l-125 196l125 196h148z" />
    <glyph glyph-name="guilsinglright" unicode="&#x203a;" horiz-adv-x="343" 
d="M35 461h148l125 -196l-125 -196h-148l121 196z" />
    <glyph glyph-name="fraction" unicode="&#x2044;" horiz-adv-x="263" 
d="M-167 0l477 661h120l-477 -661h-120z" />
    <glyph glyph-name="uni2070" unicode="&#x2070;" horiz-adv-x="413" 
d="M206 327q-92 0 -137 50.5t-45 153.5t45 153.5t137 50.5t137 -50.5t45 -153.5t-45 -153.5t-137 -50.5zM206 415q32 0 46 26.5t14 89.5t-14 89.5t-46 26.5t-45.5 -26.5t-13.5 -89.5t13.5 -89.5t45.5 -26.5z" />
    <glyph glyph-name="uni2074" unicode="&#x2074;" horiz-adv-x="395" 
d="M379 499v-81h-60v-85h-107v85h-201v56l161 257h147v-232h60zM117 499h95v78q0 44 3 80h-3q-16 -35 -31 -59z" />
    <glyph glyph-name="uni2075" unicode="&#x2075;" horiz-adv-x="385" 
d="M226 588q64 0 97.5 -32.5t33.5 -89.5q0 -69 -47 -104t-122 -35q-64 0 -107 18t-67 63l111 49q13 -42 60 -42q25 0 40 13.5t15 35.5q0 46 -53 46q-37 0 -57 -23l-100 10l24 233h286v-92h-193l-5 -48q-1 -14 -6 -25h1q25 23 89 23z" />
    <glyph glyph-name="uni2076" unicode="&#x2076;" horiz-adv-x="406" 
d="M214 327q-91 0 -139 51t-48 153q0 100 54 152t143 52q119 0 157 -86l-95 -46q-12 40 -60 40q-37 0 -58 -27.5t-21 -71.5q0 -8 1 -11h1q32 48 103 48q59 0 96 -32t37 -94q0 -61 -44.5 -94.5t-126.5 -33.5zM216 418q53 0 53 40q0 42 -53 42t-53 -42q0 -40 53 -40z" />
    <glyph glyph-name="uni2077" unicode="&#x2077;" horiz-adv-x="355" 
d="M10 730h337v-80q-121 -115 -121 -317h-125q0 174 119 299h-210v98z" />
    <glyph glyph-name="uni2078" unicode="&#x2078;" horiz-adv-x="417" 
d="M208 735q77 0 122 -31t45 -84q0 -65 -70 -87v-1q81 -21 81 -90q0 -55 -47 -85t-131 -30q-83 0 -130.5 30.5t-47.5 84.5q0 68 80 90v1q-69 20 -69 87q0 53 45 84t122 31zM208 656q-51 0 -51 -41t51 -41t51 41t-51 41zM208 406q57 0 57 43q0 44 -57 44q-56 0 -56 -44
q0 -20 15 -31.5t41 -11.5z" />
    <glyph glyph-name="uni2079" unicode="&#x2079;" horiz-adv-x="411" 
d="M195 735q91 0 140 -51.5t49 -152.5q0 -103 -53 -153.5t-144 -50.5q-129 0 -157 94l106 36q5 -38 55 -38q72 0 72 89q0 9 -1 14h-1q-10 -19 -35 -31t-57 -12q-66 0 -106 34.5t-40 90.5q0 63 46 97t126 34zM200 645q-53 0 -53 -42q0 -40 53 -40t53 40q0 20 -14 31t-39 11z
" />
    <glyph glyph-name="uni207A" unicode="&#x207a;" horiz-adv-x="353" 
d="M330 574v-85h-107v-111h-91v111h-109v85h109v111h91v-111h107z" />
    <glyph glyph-name="uni207B" unicode="&#x207b;" horiz-adv-x="353" 
d="M32 485v92h289v-92h-289z" />
    <glyph glyph-name="uni207C" unicode="&#x207c;" horiz-adv-x="405" 
d="M55 566v89h296v-89h-296zM55 412v89h296v-89h-296z" />
    <glyph glyph-name="uni207D" unicode="&#x207d;" horiz-adv-x="257" 
d="M194 813l64 -55q-47 -45 -66.5 -96t-19.5 -131t19.5 -131t66.5 -96l-64 -55q-137 96 -137 282t137 282z" />
    <glyph glyph-name="uni207E" unicode="&#x207e;" horiz-adv-x="257" 
d="M63 813q136 -96 136 -282t-136 -282l-65 55q47 44 67 95.5t20 131.5t-20 131.5t-67 95.5z" />
    <glyph glyph-name="uni2080" unicode="&#x2080;" horiz-adv-x="413" 
d="M206 -195q-92 0 -137 50.5t-45 153.5t45 153.5t137 50.5t137 -50.5t45 -153.5t-45 -153.5t-137 -50.5zM206 -107q32 0 46 26.5t14 89.5t-14 89.5t-46 26.5t-45.5 -26.5t-13.5 -89.5t13.5 -89.5t45.5 -26.5z" />
    <glyph glyph-name="uni2081" unicode="&#x2081;" horiz-adv-x="298" 
d="M152 208h104v-397h-123v216q0 27 3 64q-60 -44 -117 -48v101q33 5 75 24.5t58 39.5z" />
    <glyph glyph-name="uni2082" unicode="&#x2082;" horiz-adv-x="392" 
d="M29 -189v77q65 37 89 52q117 79 117 133q0 45 -47 45q-54 0 -54 -76l-119 32q1 66 48.5 102.5t127.5 36.5q88 0 131 -38.5t43 -91.5q0 -74 -97 -139q-36 -23 -77 -38v-2q42 4 91 4h88v-97h-341z" />
    <glyph glyph-name="uni2083" unicode="&#x2083;" horiz-adv-x="379" 
d="M188 213q77 0 118 -29.5t41 -83.5q0 -40 -23 -63.5t-61 -25.5v-3q43 -1 67.5 -23t24.5 -62q0 -54 -44 -86t-119 -32q-148 0 -183 101l115 42q4 -54 59 -54q23 0 36.5 11.5t13.5 31.5q0 36 -50 36h-23v65h19q47 0 47 40q0 41 -44 41q-47 0 -53 -52l-110 37q9 55 55 82
t114 27z" />
    <glyph glyph-name="uni2084" unicode="&#x2084;" horiz-adv-x="395" 
d="M379 -23v-81h-60v-85h-107v85h-201v56l161 257h147v-232h60zM117 -23h95v78q0 44 3 80h-3q-16 -35 -31 -59z" />
    <glyph glyph-name="uni2085" unicode="&#x2085;" horiz-adv-x="385" 
d="M226 66q64 0 97.5 -32.5t33.5 -89.5q0 -69 -47 -104t-122 -35q-64 0 -107 18t-67 63l111 49q13 -42 60 -42q25 0 40 13.5t15 35.5q0 46 -53 46q-37 0 -57 -23l-100 10l24 233h286v-92h-193l-5 -48q-1 -14 -6 -25h1q25 23 89 23z" />
    <glyph glyph-name="uni2086" unicode="&#x2086;" horiz-adv-x="406" 
d="M214 -195q-91 0 -139 51t-48 153q0 100 54 152t143 52q119 0 157 -86l-95 -46q-12 40 -60 40q-37 0 -58 -27.5t-21 -71.5q0 -8 1 -11h1q32 48 103 48q59 0 96 -32t37 -94q0 -61 -44.5 -94.5t-126.5 -33.5zM216 -104q53 0 53 40q0 42 -53 42t-53 -42q0 -40 53 -40z" />
    <glyph glyph-name="uni2087" unicode="&#x2087;" horiz-adv-x="355" 
d="M10 208h337v-80q-121 -115 -121 -317h-125q0 173 118 299h-209v98z" />
    <glyph glyph-name="uni2088" unicode="&#x2088;" horiz-adv-x="417" 
d="M208 213q77 0 122 -31t45 -84q0 -65 -70 -87v-1q81 -21 81 -90q0 -55 -47 -85t-131 -30q-83 0 -130.5 30.5t-47.5 84.5q0 68 80 90v1q-69 20 -69 87q0 53 45 84t122 31zM208 134q-51 0 -51 -41t51 -41t51 41t-51 41zM208 -116q57 0 57 43q0 44 -57 44q-56 0 -56 -44
q0 -20 15 -31.5t41 -11.5z" />
    <glyph glyph-name="uni2089" unicode="&#x2089;" horiz-adv-x="411" 
d="M195 213q91 0 140 -51.5t49 -152.5q0 -103 -53 -153.5t-144 -50.5q-129 0 -157 94l106 36q5 -38 55 -38q72 0 72 89q0 9 -1 14h-1q-10 -19 -35 -31t-57 -12q-66 0 -106 34.5t-40 90.5q0 63 46 97t126 34zM200 123q-53 0 -53 -42q0 -40 53 -40t53 40q0 20 -14 31t-39 11z
" />
    <glyph glyph-name="uni208A" unicode="&#x208a;" horiz-adv-x="353" 
d="M330 52v-85h-107v-111h-91v111h-109v85h109v111h91v-111h107z" />
    <glyph glyph-name="uni208B" unicode="&#x208b;" horiz-adv-x="353" 
d="M32 -37v92h289v-92h-289z" />
    <glyph glyph-name="uni208C" unicode="&#x208c;" horiz-adv-x="405" 
d="M55 44v89h296v-89h-296zM55 -110v89h296v-89h-296z" />
    <glyph glyph-name="uni208D" unicode="&#x208d;" horiz-adv-x="257" 
d="M194 291l64 -55q-47 -45 -66.5 -96t-19.5 -131t19.5 -131t66.5 -96l-64 -55q-137 96 -137 282t137 282z" />
    <glyph glyph-name="uni208E" unicode="&#x208e;" horiz-adv-x="257" 
d="M63 291q137 -96 137 -282t-137 -282l-64 55q47 45 66.5 96t19.5 131t-19.5 131t-66.5 96z" />
    <glyph glyph-name="Euro" unicode="&#x20ac;" horiz-adv-x="702" 
d="M546 213l131 -39q-22 -90 -92.5 -137t-171.5 -47q-115 0 -192 57t-105 162h-91v78h78q-2 28 -2 43q0 12 1 18h-77v77h85q23 117 102 181t201 64q97 0 167.5 -41.5t92.5 -114.5l-126 -60q-8 48 -42.5 72t-82.5 24q-122 0 -154 -125h236l-26 -77h-220v-18q0 -30 1 -43h205
l-25 -78h-164q36 -99 143 -99q48 0 82.5 26t45.5 77z" />
    <glyph glyph-name="uni20BA" unicode="&#x20ba;" horiz-adv-x="709" 
d="M509 303h165q-2 -145 -75 -224t-212 -79h-245v261l-104 -29v62l104 30v78l-104 -29v62l104 30v195h170v-148l175 49v-62l-175 -49v-79l175 49v-62l-175 -49v-180h57q140 0 140 174z" />
    <glyph glyph-name="uni20BD" unicode="&#x20bd;" horiz-adv-x="687" 
d="M397 271h-109v-64h181v-92h-181v-115h-170v115h-86v92h86v64h-86v96h86v293h279q124 0 189.5 -51t65.5 -144q0 -194 -255 -194zM288 531v-164h82q109 0 109 82q0 43 -26.5 62.5t-82.5 19.5h-82z" />
    <glyph glyph-name="uni2113" unicode="&#x2113;" horiz-adv-x="449" 
d="M319 101q51 0 84 13l-7 -106q-48 -18 -114 -18q-95 0 -137 37t-42 121v34q-27 -8 -66 -13v83q44 6 66 11v236q0 171 156 171q82 0 113 -39.5t31 -108.5q0 -78 -39 -148t-107 -120v-88q0 -32 14 -48.5t48 -16.5zM292 584q-35 0 -35 -66v-171q68 72 68 181q0 30 -7.5 43
t-25.5 13z" />
    <glyph glyph-name="trademark" unicode="&#x2122;" horiz-adv-x="828" 
d="M326 660v-74h-102v-256h-100v256h-102v74h304zM646 660h140v-330h-98v130l5 102h-2l-20 -70l-53 -162h-80l-55 163l-19 69h-2l5 -102v-130h-99v330h143l49 -151l17 -64h3l16 64z" />
    <glyph glyph-name="uni2126" unicode="&#x2126;" horiz-adv-x="778" 
d="M571 116h148v-116h-291v116q110 18 110 210q0 101 -38.5 155t-110.5 54t-110.5 -53.5t-38.5 -155.5q0 -192 109 -210v-116h-290v116h147q-141 67 -141 236q0 147 86.5 232.5t237.5 85.5q150 0 236.5 -85.5t86.5 -232.5q0 -169 -141 -236z" />
    <glyph glyph-name="estimated" unicode="&#x212e;" horiz-adv-x="775" 
d="M390 670q161 0 249 -95.5t86 -277.5h-530v-157q74 -83 214 -83q189 0 288 167v-93q-39 -70 -114.5 -105.5t-172.5 -35.5q-168 0 -264 92t-96 248q0 154 93 247t247 93zM391 603q-130 0 -196 -82v-156h390v161q-67 77 -194 77z" />
    <glyph glyph-name="arrowleft" unicode="&#x2190;" horiz-adv-x="750" 
d="M460 416h235v-170h-235q-92 0 -183 13q99 -72 174 -186l-127 -88q-136 227 -295 343v6q159 116 295 343l127 -88q-75 -114 -174 -186q91 13 183 13z" />
    <glyph glyph-name="arrowup" unicode="&#x2191;" horiz-adv-x="750" 
d="M377 666q116 -159 343 -295l-88 -127q-116 76 -186 174q13 -93 13 -183v-235h-170v235q0 90 13 183q-70 -98 -186 -174l-88 127q227 136 343 295h6z" />
    <glyph glyph-name="arrowright" unicode="&#x2192;" horiz-adv-x="750" 
d="M426 677q136 -227 295 -343v-6q-159 -116 -295 -343l-127 88q75 114 174 186q-91 -13 -183 -13h-235v170h235q92 0 183 -13q-99 72 -174 186z" />
    <glyph glyph-name="arrowdown" unicode="&#x2193;" horiz-adv-x="750" 
d="M634 416l88 -127q-227 -136 -343 -295h-6q-116 159 -343 295l88 127q114 -75 186 -174q-13 91 -13 183v235h170v-235q0 -92 -13 -183q72 99 186 174z" />
    <glyph glyph-name="arrowboth" unicode="&#x2194;" horiz-adv-x="1098" 
d="M774 695q138 -229 295 -342v-6q-159 -116 -295 -343l-130 84q75 115 176 189q-89 -12 -166 -12h-210q-77 0 -166 12q101 -74 176 -189l-130 -84q-136 227 -295 343v6q157 113 295 342l130 -84q-75 -114 -175 -188q87 12 165 12h210q78 0 165 -12q-100 74 -175 188z" />
    <glyph glyph-name="arrowupdn" unicode="&#x2195;" horiz-adv-x="750" 
d="M447 59q72 99 189 176l84 -130q-229 -138 -342 -295h-6q-116 159 -343 295l84 130q117 -77 189 -176q-12 78 -12 166v210q0 88 12 166q-72 -99 -189 -176l-84 130q227 136 343 295h6q113 -157 342 -295l-84 -130q-117 77 -189 176q13 -85 13 -166v-210q0 -81 -13 -166z
" />
    <glyph glyph-name="uni2196" unicode="&#x2196;" horiz-adv-x="750" 
d="M486 343l167 -167l-108 -108l-167 167q-82 80 -141 152q28 -129 17 -272l-151 7q37 209 4 488l4 4q279 -33 488 4l7 -151q-143 -11 -272 17q62 -51 152 -141z" />
    <glyph glyph-name="uni2197" unicode="&#x2197;" horiz-adv-x="750" 
d="M643 610q-33 -279 4 -488l-151 -7q-11 144 17 272q-59 -72 -141 -152l-167 -167l-108 108l167 167q91 91 153 141q-129 -28 -273 -17l7 151q209 -37 488 -4z" />
    <glyph glyph-name="uni2198" unicode="&#x2198;" horiz-adv-x="750" 
d="M642 574q-37 -209 -4 -488l-4 -4q-279 33 -488 -4l-7 151q143 11 272 -17q-62 51 -152 141l-167 167l108 108l167 -167q82 -80 141 -152q-28 129 -17 272z" />
    <glyph glyph-name="uni2199" unicode="&#x2199;" horiz-adv-x="750" 
d="M339 212q129 28 272 17l-7 -151q-209 37 -488 4l-4 4q33 279 -4 488l151 7q11 -143 -17 -272q59 72 141 152l167 167l108 -108l-167 -167q-90 -90 -152 -141z" />
    <glyph glyph-name="partialdiff" unicode="&#x2202;" horiz-adv-x="660" 
d="M312 670q141 0 215 -85t74 -244q0 -182 -75 -266.5t-223 -84.5q-100 0 -169.5 57t-69.5 159q0 99 66.5 157t163.5 58q104 0 151 -84q-9 196 -157 196q-81 0 -139 -54l-71 107q54 44 106.5 64t127.5 20zM329 121q86 0 108 101q-26 79 -107 79q-44 0 -68 -24t-24 -66
q0 -43 23.5 -66.5t67.5 -23.5z" />
    <glyph glyph-name="uni2206" unicode="&#x2206;" horiz-adv-x="733" 
d="M454 660l239 -556v-104h-653v104l239 556h175zM366 561l-189 -441h380z" />
    <glyph glyph-name="product" unicode="&#x220f;" horiz-adv-x="698" 
d="M631 660v-788h-160v655h-245v-655h-160v788h565z" />
    <glyph glyph-name="summation" unicode="&#x2211;" horiz-adv-x="673" 
d="M615 660v-127h-375l257 -251v-31l-259 -258h377v-121h-559v121l268 274l-268 266v127h559z" />
    <glyph glyph-name="minus" unicode="&#x2212;" 
d="M544 389v-129h-484v129h484z" />
    <glyph glyph-name="uni2215" unicode="&#x2215;" horiz-adv-x="263" 
d="M-167 0l477 661h120l-477 -661h-120z" />
    <glyph glyph-name="uni2219" unicode="&#x2219;" horiz-adv-x="274" 
d="M137 433q47 0 73.5 -24t26.5 -66q0 -43 -26.5 -66.5t-73.5 -23.5t-73.5 23.5t-26.5 66.5q0 42 26.5 66t73.5 24z" />
    <glyph glyph-name="radical" unicode="&#x221a;" horiz-adv-x="687" 
d="M584 818h145l-317 -818h-169l-126 319h-102v129h191l83 -216l39 -120l41 130z" />
    <glyph glyph-name="infinity" unicode="&#x221e;" horiz-adv-x="942" 
d="M712 525q83 0 137 -54.5t54 -173.5q0 -228 -207 -228q-63 0 -117 29t-127 101q-78 -83 -120 -106.5t-103 -23.5q-83 0 -136.5 54.5t-53.5 173.5t54 173.5t137 54.5q67 0 125.5 -26t134.5 -103q81 83 125 106t97 23zM702 240q78 0 78 92q0 90 -68 90q-29 0 -58 -18.5
t-92 -84.5q76 -79 140 -79zM232 172q28 0 55.5 18.5t91.5 85.5q-46 46 -75.5 62t-65.5 16q-35 0 -55.5 -22.5t-20.5 -69.5q0 -45 19 -67.5t51 -22.5z" />
    <glyph glyph-name="integral" unicode="&#x222b;" horiz-adv-x="478" 
d="M356 758q74 0 116 -30l-14 -107q-24 19 -64 19q-77 0 -77 -72v-516q0 -89 -54.5 -134.5t-139.5 -45.5q-73 0 -117 30l14 107q25 -19 64 -19q77 0 77 72v516q0 89 55 134.5t140 45.5z" />
    <glyph glyph-name="approxequal" unicode="&#x2248;" 
d="M189 533q49 0 120.5 -31.5t103.5 -31.5q74 0 133 53v-126q-58 -51 -128 -51q-45 0 -118 31t-111 31q-42 0 -71 -12t-60 -41v126q34 28 62.5 40t68.5 12zM189 299q49 0 120.5 -31t103.5 -31q75 0 133 52v-125q-58 -52 -128 -52q-45 0 -118 31t-111 31q-43 0 -71.5 -12
t-59.5 -41v126q33 29 61.5 40.5t69.5 11.5z" />
    <glyph glyph-name="notequal" unicode="&#x2260;" 
d="M548 375h-167l-53 -117h220v-115h-272l-53 -116h-106l52 116h-113v115h165l53 117h-218v114h270l55 121h107l-55 -121h115v-114z" />
    <glyph glyph-name="lessequal" unicode="&#x2264;" 
d="M550 655v-143l-406 -104l406 -103v-143l-489 151v190zM61 0v123h489v-123h-489z" />
    <glyph glyph-name="greaterequal" unicode="&#x2265;" 
d="M54 655l489 -152v-190l-489 -151v143l405 104l-405 103v143zM54 0v123h489v-123h-489z" />
    <glyph glyph-name="uni25AA" unicode="&#x25aa;" horiz-adv-x="600" 
d="M50 500h500v-500h-500v500z" />
    <glyph glyph-name="uni25AB" unicode="&#x25ab;" horiz-adv-x="600" 
d="M44 0v500h512v-500h-512zM165 110h270v280h-270v-280z" />
    <glyph glyph-name="uni25C6" unicode="&#x25c6;" horiz-adv-x="600" 
d="M300 -6l-265 265l265 265l265 -265z" />
    <glyph glyph-name="uni25C7" unicode="&#x25c7;" horiz-adv-x="600" 
d="M300 -6l-265 265l265 265l265 -265zM300 134l125 125l-125 125l-125 -125z" />
    <glyph glyph-name="lozenge" unicode="&#x25ca;" horiz-adv-x="653" 
d="M413 660l193 -330l-193 -330h-174l-192 330l192 330h174zM326 94l121 236l-121 236l-120 -236z" />
    <glyph glyph-name="circle" unicode="&#x25cb;" horiz-adv-x="600" 
d="M300 -10q-115 0 -191.5 74.5t-76.5 185.5t76.5 185.5t191.5 74.5t191.5 -74.5t76.5 -185.5t-76.5 -185.5t-191.5 -74.5zM300 104q61 0 102 42t41 104t-41 104t-102 42t-102 -42t-41 -104t41 -104t102 -42z" />
    <glyph glyph-name="uni25CF" unicode="&#x25cf;" horiz-adv-x="600" 
d="M300 -10q-111 0 -185.5 74.5t-74.5 185.5t74.5 185.5t185.5 74.5t185.5 -74.5t74.5 -185.5t-74.5 -185.5t-185.5 -74.5z" />
    <glyph glyph-name="uni275B" unicode="&#x275b;" horiz-adv-x="700" 
d="M571 665l53 -104q-187 0 -280 -36.5t-133 -107.5l7 -4q31 25 68 37t98 12q115 0 187.5 -59.5t72.5 -170.5q0 -120 -74 -181t-207 -61q-155 0 -229.5 77.5t-74.5 210.5q0 387 512 387z" />
    <glyph glyph-name="uni275C" unicode="&#x275c;" horiz-adv-x="700" 
d="M129 -135l-53 104q187 0 280 36.5t133 107.5l-7 4q-31 -25 -68 -37t-98 -12q-115 0 -187.5 59.5t-72.5 170.5q0 120 74 181t207 61q155 0 229.5 -77.5t74.5 -210.5q0 -387 -512 -387z" />
    <glyph glyph-name="uni275D" unicode="&#x275d;" horiz-adv-x="1234" 
d="M918 462q115 0 187.5 -59.5t72.5 -170.5q0 -120 -74 -181t-207 -61q-203 0 -272 137q-57 -137 -262 -137q-155 0 -229.5 77.5t-74.5 210.5q0 387 512 387l53 -104q-187 0 -280 -36.5t-133 -107.5l7 -4q31 25 68 37t98 12q150 0 217 -91q58 294 504 294l53 -104
q-187 0 -280 -36.5t-133 -107.5l7 -4q31 25 68 37t98 12z" />
    <glyph glyph-name="uni275E" unicode="&#x275e;" horiz-adv-x="1234" 
d="M871 540q155 0 229.5 -77.5t74.5 -210.5q0 -387 -512 -387l-53 104q187 0 280 36.5t133 107.5l-7 4q-31 -25 -68 -37t-98 -12q-148 0 -217 91q-58 -294 -504 -294l-53 104q187 0 280 36.5t133 107.5l-7 4q-31 -25 -68 -37t-98 -12q-115 0 -187.5 59.5t-72.5 170.5
q0 120 74 181t207 61q203 0 272 -137q57 137 262 137z" />
    <glyph glyph-name="uni2761" unicode="&#x2761;" horiz-adv-x="740" 
d="M679 660v-562q0 -61 -17.5 -114t-55.5 -99t-107 -73t-162 -27q-145 0 -209.5 64.5t-45.5 172.5l98 26q-15 -75 11.5 -114.5t77.5 -39.5q78 0 78 112v185h-38q-107 0 -182 62.5t-75 169.5t74 172t205 65h348zM549 548h-75v-522q0 -109 -61 -143l3 -4q133 31 133 202v467z
" />
    <glyph glyph-name="uni2780" unicode="&#x2780;" horiz-adv-x="910" 
d="M455 700q171 0 276 -102t105 -268t-105 -268t-276 -102t-276 102t-105 268t105 268t276 102zM455 39q131 0 211.5 80.5t80.5 210.5t-80.5 210.5t-211.5 80.5t-211.5 -80.5t-80.5 -210.5t80.5 -210.5t211.5 -80.5zM306 469q33 5 75 24.5t58 39.5h104v-397h-123v216
q0 26 3 64q-60 -44 -117 -48v101z" />
    <glyph glyph-name="uni2781" unicode="&#x2781;" horiz-adv-x="910" 
d="M455 -40q-171 0 -276 102t-105 268t105 268t276 102t276 -102t105 -268t-105 -268t-276 -102zM455 39q131 0 211.5 80.5t80.5 210.5t-80.5 210.5t-211.5 80.5t-211.5 -80.5t-80.5 -210.5t80.5 -210.5t211.5 -80.5zM287 145v77q65 36 89 52q117 79 117 133q0 45 -47 45
q-54 0 -54 -76l-119 32q1 66 48.5 102.5t127.5 36.5q88 0 131 -38.5t43 -91.5q0 -74 -97 -139q-36 -23 -77 -38v-2q42 4 91 4h88v-97h-341z" />
    <glyph glyph-name="uni2782" unicode="&#x2782;" horiz-adv-x="910" 
d="M455 -40q-171 0 -276 102t-105 268t105 268t276 102t276 -102t105 -268t-105 -268t-276 -102zM455 39q131 0 211.5 80.5t80.5 210.5t-80.5 210.5t-211.5 80.5t-211.5 -80.5t-80.5 -210.5t80.5 -210.5t211.5 -80.5zM460 535q77 0 118 -29.5t41 -83.5q0 -40 -23 -63.5
t-61 -25.5v-3q43 -1 67.5 -23t24.5 -62q0 -54 -44 -86t-119 -32q-148 0 -183 101l115 42q4 -54 59 -54q23 0 36.5 11.5t13.5 31.5q0 36 -50 36h-23v65h19q47 0 47 40q0 41 -44 41q-47 0 -53 -52l-110 37q9 55 55 82t114 27z" />
    <glyph glyph-name="uni2783" unicode="&#x2783;" horiz-adv-x="910" 
d="M455 -40q-171 0 -276 102t-105 268t105 268t276 102t276 -102t105 -268t-105 -268t-276 -102zM455 39q131 0 211.5 80.5t80.5 210.5t-80.5 210.5t-211.5 80.5t-211.5 -80.5t-80.5 -210.5t80.5 -210.5t211.5 -80.5zM616 302v-81h-60v-85h-107v85h-201v56l161 257h147v-232
h60zM354 302h95v78q0 44 3 80h-3q-16 -35 -31 -59z" />
    <glyph glyph-name="uni2784" unicode="&#x2784;" horiz-adv-x="910" 
d="M455 -40q-171 0 -276 102t-105 268t105 268t276 102t276 -102t105 -268t-105 -268t-276 -102zM455 39q131 0 211.5 80.5t80.5 210.5t-80.5 210.5t-211.5 80.5t-211.5 -80.5t-80.5 -210.5t80.5 -210.5t211.5 -80.5zM491 381q64 0 97.5 -32.5t33.5 -89.5q0 -69 -47 -104
t-122 -35q-64 0 -107 18t-67 63l111 49q13 -42 60 -42q25 0 40 13.5t15 35.5q0 46 -53 46q-37 0 -57 -23l-100 10l24 233h286v-92h-193l-5 -48q-1 -14 -6 -25h1q25 23 89 23z" />
    <glyph glyph-name="uni2785" unicode="&#x2785;" horiz-adv-x="910" 
d="M455 -40q-171 0 -276 102t-105 268t105 268t276 102t276 -102t105 -268t-105 -268t-276 -102zM455 39q131 0 211.5 80.5t80.5 210.5t-80.5 210.5t-211.5 80.5t-211.5 -80.5t-80.5 -210.5t80.5 -210.5t211.5 -80.5zM453 125q-91 0 -139 51t-48 153q0 100 54 152t143 52
q119 0 157 -86l-95 -46q-12 40 -60 40q-37 0 -58 -27.5t-21 -71.5q0 -8 1 -11h1q32 48 103 48q59 0 96 -32t37 -94q0 -61 -44.5 -94.5t-126.5 -33.5zM455 216q53 0 53 40q0 42 -53 42t-53 -42q0 -40 53 -40z" />
    <glyph glyph-name="uni2786" unicode="&#x2786;" horiz-adv-x="910" 
d="M455 700q171 0 276 -102t105 -268t-105 -268t-276 -102t-276 102t-105 268t105 268t276 102zM455 39q131 0 211.5 80.5t80.5 210.5t-80.5 210.5t-211.5 80.5t-211.5 -80.5t-80.5 -210.5t80.5 -210.5t211.5 -80.5zM292 418v98h337v-80q-121 -115 -121 -317h-125
q0 173 118 299h-209z" />
    <glyph glyph-name="uni2787" unicode="&#x2787;" horiz-adv-x="910" 
d="M455 -40q-171 0 -276 102t-105 268t105 268t276 102t276 -102t105 -268t-105 -268t-276 -102zM455 39q131 0 211.5 80.5t80.5 210.5t-80.5 210.5t-211.5 80.5t-211.5 -80.5t-80.5 -210.5t80.5 -210.5t211.5 -80.5zM455 536q77 0 122 -31t45 -84q0 -65 -70 -87v-1
q81 -21 81 -90q0 -55 -47 -85t-131 -30q-83 0 -130.5 30.5t-47.5 84.5q0 68 80 90v1q-69 20 -69 87q0 53 45 84t122 31zM455 457q-51 0 -51 -41t51 -41t51 41t-51 41zM455 207q57 0 57 43q0 44 -57 44q-56 0 -56 -44q0 -20 15 -31.5t41 -11.5z" />
    <glyph glyph-name="uni2788" unicode="&#x2788;" horiz-adv-x="910" 
d="M455 -40q-171 0 -276 102t-105 268t105 268t276 102t276 -102t105 -268t-105 -268t-276 -102zM455 39q131 0 211.5 80.5t80.5 210.5t-80.5 210.5t-211.5 80.5t-211.5 -80.5t-80.5 -210.5t80.5 -210.5t211.5 -80.5zM459 534q91 0 140 -51.5t49 -152.5q0 -103 -53 -153.5
t-144 -50.5q-129 0 -157 94l106 36q5 -38 55 -38q72 0 72 89q0 9 -1 14h-1q-10 -19 -35 -31t-57 -12q-66 0 -106 34.5t-40 90.5q0 63 46 97t126 34zM464 444q-53 0 -53 -42q0 -40 53 -40t53 40q0 20 -14 31t-39 11z" />
    <glyph glyph-name="uniF8FF" unicode="&#xf8ff;" horiz-adv-x="1130" 
d="M1041 331l49 -30l-54 -20l47 -24l-53 -20l42 -29l-61 -10l38 -34l-66 -3l35 -32l-61 -4q-14 -9 -28 -15v-81q0 -29 -29 -29h-46q-29 0 -29 23q0 25 29 25h11v39q-28 -7 -66 -10v-48q0 -29 -29 -29h-46q-29 0 -29 23q0 25 29 25h11v27h-226v-46q0 -29 -29 -29h-46
q-30 0 -30 23q0 25 30 25h12v27h-88v-46q0 -29 -30 -29h-44q-31 0 -31 23q0 25 31 25h10v37q-72 3 -138 27.5t-103 63.5q-13 1 -21.5 9.5t-8.5 21.5t9 22t22 9h3q41 25 74 79t33 101l-6 59l40 -18l-7 58l41 -23v57l43 -32v56l43 -28l3 58l42 -35l7 59l42 -38l6 55l44 -37
l15 57l36 -42l13 53l38 -43l17 52l32 -46l24 50l32 -45l31 55l27 -59l38 49l20 -58l43 53l10 -64l57 46l-8 -65l64 34l-22 -60l63 16l-26 -47l64 4l-36 -40h70l-48 -49h71l-50 -39l56 -13l-54 -33l58 -19zM334 256q31 7 44.5 32t2.5 54t-43 33.5t-56 -18.5l8 -16
q20 18 41 16t29 -23q18 -48 -35 -65zM212 248q23 0 36.5 14t14.5 39h-18q0 -14 -9 -22t-24 -8q-34 0 -34 30h-18q0 -24 14.5 -38.5t37.5 -14.5z" />
    <glyph glyph-name="E.swsh.001" horiz-adv-x="831" 
d="M654 376q81 -11 124 -59t43 -123q0 -99 -58 -146.5t-162 -47.5h-528v660h549v-133h-377v-138h204v-124h-204v-132h331q97 0 97 66q0 65 -76 71z" />
    <glyph glyph-name="Eacute.swsh.001" horiz-adv-x="831" 
d="M478 882l-92 -159h-124l55 159h161zM654 376q81 -11 124 -59t43 -123q0 -99 -58 -146.5t-162 -47.5h-528v660h549v-133h-377v-138h204v-124h-204v-132h331q97 0 97 66q0 65 -76 71z" />
    <glyph glyph-name="Ecaron.swsh.001" horiz-adv-x="831" 
d="M412 721h-164l-111 167h126l67 -88l67 88h126zM654 376q81 -11 124 -59t43 -123q0 -99 -58 -146.5t-162 -47.5h-528v660h549v-133h-377v-138h204v-124h-204v-132h331q97 0 97 66q0 65 -76 71z" />
    <glyph glyph-name="Ecircumflex.swsh.001" horiz-adv-x="831" 
d="M334 807l-67 -88h-126l111 167h164l111 -167h-126zM654 376q81 -11 124 -59t43 -123q0 -99 -58 -146.5t-162 -47.5h-528v660h549v-133h-377v-138h204v-124h-204v-132h331q97 0 97 66q0 65 -76 71z" />
    <glyph glyph-name="Edieresis.swsh.001" horiz-adv-x="831" 
d="M223 716q-39 0 -61.5 20.5t-22.5 56.5t22.5 56.5t61.5 20.5q40 0 63 -20.5t23 -56.5t-23 -56.5t-63 -20.5zM443 716q-39 0 -61.5 20.5t-22.5 56.5t22.5 56.5t61.5 20.5q40 0 63 -20.5t23 -56.5t-23 -56.5t-63 -20.5zM654 376q81 -11 124 -59t43 -123q0 -99 -58 -146.5
t-162 -47.5h-528v660h549v-133h-377v-138h204v-124h-204v-132h331q97 0 97 66q0 65 -76 71z" />
    <glyph glyph-name="Edotaccent.swsh.001" horiz-adv-x="831" 
d="M334 721q-91 0 -91 81q0 80 91 80q93 0 93 -80q0 -81 -93 -81zM654 376q81 -11 124 -59t43 -123q0 -99 -58 -146.5t-162 -47.5h-528v660h549v-133h-377v-138h204v-124h-204v-132h331q97 0 97 66q0 65 -76 71z" />
    <glyph glyph-name="Egrave.swsh.001" horiz-adv-x="831" 
d="M390 723h-124l-92 159h161zM654 376q81 -11 124 -59t43 -123q0 -99 -58 -146.5t-162 -47.5h-528v660h549v-133h-377v-138h204v-124h-204v-132h331q97 0 97 66q0 65 -76 71z" />
    <glyph glyph-name="Emacron.swsh.001" horiz-adv-x="831" 
d="M520 834v-105h-372v105h372zM654 376q81 -11 124 -59t43 -123q0 -99 -58 -146.5t-162 -47.5h-528v660h549v-133h-377v-138h204v-124h-204v-132h331q97 0 97 66q0 65 -76 71z" />
    <glyph glyph-name="M.swsh.001" horiz-adv-x="1158" 
d="M850 660h235v-660h-152v303l5 203h-2l-164 -506h-138l-163 506h-3l6 -203v-303h-153v534h-60q-47 0 -72 -22t-25 -61q0 -35 24 -59t66 -28l-50 -116q-86 6 -140 61t-54 145q0 98 63 152t181 54h312l103 -336l38 -140h2l38 139z" />
    <glyph glyph-name="R.swsh.001" horiz-adv-x="743" 
d="M586 118q74 -99 157 -116l-94 -98q-65 16 -105 45.5t-72 75.5l-151 216h-79v-241h-169v660h315q120 0 184.5 -54t64.5 -156q0 -158 -151 -198zM242 530v-167h117q55 0 80 20t25 64q0 43 -25 63t-80 20h-117z" />
    <glyph glyph-name="Racute.swsh.001" horiz-adv-x="743" 
d="M473 882l-92 -159h-124l55 159h161zM586 118q74 -99 157 -116l-94 -98q-65 16 -105 45.5t-72 75.5l-151 216h-79v-241h-169v660h315q120 0 184.5 -54t64.5 -156q0 -158 -151 -198zM242 530v-167h117q55 0 80 20t25 64q0 43 -25 63t-80 20h-117z" />
    <glyph glyph-name="Rcaron.swsh.001" horiz-adv-x="743" 
d="M408 721h-164l-111 167h126l67 -88l67 88h126zM586 118q74 -99 157 -116l-94 -98q-65 16 -105 45.5t-72 75.5l-151 216h-79v-241h-169v660h315q120 0 184.5 -54t64.5 -156q0 -158 -151 -198zM242 530v-167h117q55 0 80 20t25 64q0 43 -25 63t-80 20h-117z" />
    <glyph glyph-name="Rcommaaccent.swsh.001" horiz-adv-x="743" 
d="M586 118q74 -99 157 -116l-94 -98q-65 16 -105 45.5t-72 75.5l-151 216h-79v-241h-169v660h315q120 0 184.5 -54t64.5 -156q0 -158 -151 -198zM242 530v-167h117q55 0 80 20t25 64q0 43 -25 63t-80 20h-117zM260 -241l32 181h149l-71 -181h-110z" />
    <glyph glyph-name="Iacute_J.loclNLD" horiz-adv-x="939" 
d="M142 882h161l-92 -159h-124zM783 882h161l-92 -159h-124zM245 660v-660h-172v660h172zM877 660v-406q0 -125 -72.5 -194.5t-205.5 -69.5q-143 0 -205.5 74t-39.5 197l170 30q-13 -89 7 -127.5t76 -38.5q53 0 75.5 35t22.5 112v388h172z" />
    <glyph glyph-name="R.ss03" horiz-adv-x="685" 
d="M73 0v660h315q119 0 184 -53t65 -151q0 -132 -129 -169v-2q92 -21 102 -114q15 -127 37 -167v-4h-180q-5 12 -8.5 29t-5.5 31.5t-5.5 43t-6.5 50.5q-6 46 -32.5 66.5t-79.5 20.5h-87v-241h-169zM242 363h117q55 0 80 20t25 64q0 43 -25 63t-80 20h-117v-167z" />
    <glyph glyph-name="Racute.ss03" horiz-adv-x="685" 
d="M312 882h161l-92 -159h-124zM73 0v660h315q119 0 184 -53t65 -151q0 -132 -129 -169v-2q92 -21 102 -114q15 -127 37 -167v-4h-180q-5 12 -8.5 29t-5.5 31.5t-5.5 43t-6.5 50.5q-6 46 -32.5 66.5t-79.5 20.5h-87v-241h-169zM242 363h117q55 0 80 20t25 64q0 43 -25 63
t-80 20h-117v-167z" />
    <glyph glyph-name="Rcaron.ss03" horiz-adv-x="685" 
d="M519 888l-111 -167h-164l-111 167h126l67 -88l67 88h126zM73 0v660h315q119 0 184 -53t65 -151q0 -132 -129 -169v-2q92 -21 102 -114q15 -127 37 -167v-4h-180q-5 12 -8.5 29t-5.5 31.5t-5.5 43t-6.5 50.5q-6 46 -32.5 66.5t-79.5 20.5h-87v-241h-169zM242 363h117
q55 0 80 20t25 64q0 43 -25 63t-80 20h-117v-167z" />
    <glyph glyph-name="Rcommaaccent.ss03" horiz-adv-x="685" 
d="M73 0v660h315q119 0 184 -53t65 -151q0 -132 -129 -169v-2q92 -21 102 -114q15 -127 37 -167v-4h-180q-5 12 -8.5 29t-5.5 31.5t-5.5 43t-6.5 50.5q-6 46 -32.5 66.5t-79.5 20.5h-87v-241h-169zM242 363h117q55 0 80 20t25 64q0 43 -25 63t-80 20h-117v-167zM441 -60
l-71 -181h-110l32 181h149z" />
    <glyph glyph-name="G.ss04" horiz-adv-x="723" 
d="M367 358h308v-81q0 -143 -81 -215t-224 -72q-149 0 -237 89t-88 250q0 159 87.5 250t240.5 91q113 0 182 -40t108 -129l-159 -63q-25 97 -130 97q-71 0 -112 -53t-41 -152q0 -105 41 -155t125 -50q68 0 104.5 34.5t36.5 80.5v7h-161v111z" />
    <glyph glyph-name="Gbreve.ss04" horiz-adv-x="723" 
d="M368 715q-79 0 -124 43.5t-45 119.5h110q0 -31 16 -49.5t43 -18.5t43 18.5t16 49.5h110q0 -76 -45 -119.5t-124 -43.5zM367 358h308v-81q0 -143 -81 -215t-224 -72q-149 0 -237 89t-88 250q0 159 87.5 250t240.5 91q113 0 182 -40t108 -129l-159 -63q-25 97 -130 97
q-71 0 -112 -53t-41 -152q0 -105 41 -155t125 -50q68 0 104.5 34.5t36.5 80.5v7h-161v111z" />
    <glyph glyph-name="Gcommaaccent.ss04" horiz-adv-x="723" 
d="M367 358h308v-81q0 -143 -81 -215t-224 -72q-149 0 -237 89t-88 250q0 159 87.5 250t240.5 91q113 0 182 -40t108 -129l-159 -63q-25 97 -130 97q-71 0 -112 -53t-41 -152q0 -105 41 -155t125 -50q68 0 104.5 34.5t36.5 80.5v7h-161v111zM286 -241l32 181h149l-71 -181
h-110z" />
    <glyph glyph-name="IJ.ss05" horiz-adv-x="662" 
d="M601 660v-406q0 -124 -72.5 -194t-198.5 -70q-134 0 -201.5 60t-53.5 175h171q-15 -100 88 -100q95 0 95 132v403h172zM245 660v-370h-172v370h172z" />
    <glyph glyph-name="Iacute_J.loclNLD.ss05" horiz-adv-x="650" 
d="M130 882h161l-92 -159h-123zM494 882h162l-92 -159h-124zM589 660v-406q0 -124 -72.5 -194t-198.5 -70q-134 0 -201.5 60.5t-53.5 174.5h171q-13 -100 88 -100q95 0 95 132v403h172zM233 660v-370h-172v370h172z" />
    <glyph glyph-name="A.swsh" horiz-adv-x="899" 
d="M718 0l-45 149h-235l-24 -70q-30 -96 -89 -142.5t-164 -46.5q-145 0 -176 91l57 109q17 -41 42 -56.5t67 -15.5q45 0 73 29t53 100l136 387h-115q-47 0 -71.5 -22t-24.5 -61q0 -35 24 -59t66 -28l-51 -116q-86 6 -139.5 61t-53.5 145q0 98 63 152t180 54h373l231 -660
h-177zM477 266h160l-48 158l-29 104h-2l-27 -103z" />
    <glyph glyph-name="Aacute.swsh" horiz-adv-x="899" 
d="M705 882l-92 -159h-124l55 159h161zM718 0l-45 149h-235l-24 -70q-30 -96 -89 -142.5t-164 -46.5q-145 0 -176 91l57 109q17 -41 42 -56.5t67 -15.5q45 0 73 29t53 100l136 387h-115q-47 0 -71.5 -22t-24.5 -61q0 -35 24 -59t66 -28l-51 -116q-86 6 -139.5 61t-53.5 145
q0 98 63 152t180 54h373l231 -660h-177zM477 266h160l-48 158l-29 104h-2l-27 -103z" />
    <glyph glyph-name="Abreve.swsh" horiz-adv-x="899" 
d="M560 715q-79 0 -124 43.5t-45 119.5h110q0 -31 16 -49.5t43 -18.5t43 18.5t16 49.5h110q0 -76 -45 -119.5t-124 -43.5zM718 0l-45 149h-235l-24 -70q-30 -96 -89 -142.5t-164 -46.5q-145 0 -176 91l57 109q17 -41 42 -56.5t67 -15.5q45 0 73 29t53 100l136 387h-115
q-47 0 -71.5 -22t-24.5 -61q0 -35 24 -59t66 -28l-51 -116q-86 6 -139.5 61t-53.5 145q0 98 63 152t180 54h373l231 -660h-177zM477 266h160l-48 158l-29 104h-2l-27 -103z" />
    <glyph glyph-name="Acircumflex.swsh" horiz-adv-x="899" 
d="M560 807l-67 -88h-126l111 167h164l111 -167h-126zM718 0l-45 149h-235l-24 -70q-30 -96 -89 -142.5t-164 -46.5q-145 0 -176 91l57 109q17 -41 42 -56.5t67 -15.5q45 0 73 29t53 100l136 387h-115q-47 0 -71.5 -22t-24.5 -61q0 -35 24 -59t66 -28l-51 -116
q-86 6 -139.5 61t-53.5 145q0 98 63 152t180 54h373l231 -660h-177zM477 266h160l-48 158l-29 104h-2l-27 -103z" />
    <glyph glyph-name="Adieresis.swsh" horiz-adv-x="899" 
d="M449 716q-39 0 -61.5 20.5t-22.5 56.5t22.5 56.5t61.5 20.5q40 0 63 -20.5t23 -56.5t-23 -56.5t-63 -20.5zM669 716q-39 0 -61.5 20.5t-22.5 56.5t22.5 56.5t61.5 20.5q40 0 63 -20.5t23 -56.5t-23 -56.5t-63 -20.5zM718 0l-45 149h-235l-24 -70q-30 -96 -89 -142.5
t-164 -46.5q-145 0 -176 91l57 109q17 -41 42 -56.5t67 -15.5q45 0 73 29t53 100l136 387h-115q-47 0 -71.5 -22t-24.5 -61q0 -35 24 -59t66 -28l-51 -116q-86 6 -139.5 61t-53.5 145q0 98 63 152t180 54h373l231 -660h-177zM477 266h160l-48 158l-29 104h-2l-27 -103z" />
    <glyph glyph-name="Agrave.swsh" horiz-adv-x="899" 
d="M616 723h-124l-92 159h161zM718 0l-45 149h-235l-24 -70q-30 -96 -89 -142.5t-164 -46.5q-145 0 -176 91l57 109q17 -41 42 -56.5t67 -15.5q45 0 73 29t53 100l136 387h-115q-47 0 -71.5 -22t-24.5 -61q0 -35 24 -59t66 -28l-51 -116q-86 6 -139.5 61t-53.5 145
q0 98 63 152t180 54h373l231 -660h-177zM477 266h160l-48 158l-29 104h-2l-27 -103z" />
    <glyph glyph-name="Amacron.swsh" horiz-adv-x="899" 
d="M746 834v-105h-372v105h372zM718 0l-45 149h-235l-24 -70q-30 -96 -89 -142.5t-164 -46.5q-145 0 -176 91l57 109q17 -41 42 -56.5t67 -15.5q45 0 73 29t53 100l136 387h-115q-47 0 -71.5 -22t-24.5 -61q0 -35 24 -59t66 -28l-51 -116q-86 6 -139.5 61t-53.5 145
q0 98 63 152t180 54h373l231 -660h-177zM477 266h160l-48 158l-29 104h-2l-27 -103z" />
    <glyph glyph-name="Aogonek.swsh" horiz-adv-x="899" 
d="M879 -110l23 -82q-37 -23 -104 -23q-62 0 -100 29t-38 84q0 67 63 102h-5l-45 149h-235l-24 -70q-30 -96 -89 -142.5t-164 -46.5q-145 0 -176 91l57 109q17 -41 42 -56.5t67 -15.5q45 0 73 29t53 100l136 387h-115q-47 0 -71.5 -22t-24.5 -61q0 -35 24 -59t66 -28
l-51 -116q-86 6 -139.5 61t-53.5 145q0 98 63 152t180 54h373l231 -660q-65 -11 -91 -30t-26 -46q0 -21 14.5 -32.5t40.5 -11.5q31 0 46 10zM477 266h160l-48 158l-29 104h-2l-27 -103z" />
    <glyph glyph-name="Atilde.swsh" horiz-adv-x="899" 
d="M495 776q-31 0 -37 -56h-96q6 159 132 159q33 0 57.5 -14.5t41 -28.5t31.5 -14q32 0 38 56h96q-6 -159 -132 -159q-33 0 -57 14.5t-41 28.5t-33 14zM718 0l-45 149h-235l-24 -70q-30 -96 -89 -142.5t-164 -46.5q-145 0 -176 91l57 109q17 -41 42 -56.5t67 -15.5
q45 0 73 29t53 100l136 387h-115q-47 0 -71.5 -22t-24.5 -61q0 -35 24 -59t66 -28l-51 -116q-86 6 -139.5 61t-53.5 145q0 98 63 152t180 54h373l231 -660h-177zM477 266h160l-48 158l-29 104h-2l-27 -103z" />
    <glyph glyph-name="E.swsh" horiz-adv-x="894" 
d="M508 133h355v-133h-527v534h-75q-47 0 -72 -22t-25 -61q0 -35 24 -59t66 -28l-50 -116q-86 6 -140 61t-54 145q0 98 63 152t181 54h596v-133h-342v-134h271v-125h-271v-135z" />
    <glyph glyph-name="Eacute.swsh" horiz-adv-x="894" 
d="M730 882l-92 -159h-124l55 159h161zM508 133h355v-133h-527v534h-75q-47 0 -72 -22t-25 -61q0 -35 24 -59t66 -28l-50 -116q-86 6 -140 61t-54 145q0 98 63 152t181 54h596v-133h-342v-134h271v-125h-271v-135z" />
    <glyph glyph-name="Ecaron.swsh" horiz-adv-x="894" 
d="M665 721h-164l-111 167h126l67 -88l67 88h126zM508 133h355v-133h-527v534h-75q-47 0 -72 -22t-25 -61q0 -35 24 -59t66 -28l-50 -116q-86 6 -140 61t-54 145q0 98 63 152t181 54h596v-133h-342v-134h271v-125h-271v-135z" />
    <glyph glyph-name="Ecircumflex.swsh" horiz-adv-x="894" 
d="M586 807l-67 -88h-126l111 167h164l111 -167h-126zM508 133h355v-133h-527v534h-75q-47 0 -72 -22t-25 -61q0 -35 24 -59t66 -28l-50 -116q-86 6 -140 61t-54 145q0 98 63 152t181 54h596v-133h-342v-134h271v-125h-271v-135z" />
    <glyph glyph-name="Edieresis.swsh" horiz-adv-x="894" 
d="M475 716q-39 0 -61.5 20.5t-22.5 56.5t22.5 56.5t61.5 20.5q40 0 63 -20.5t23 -56.5t-23 -56.5t-63 -20.5zM695 716q-39 0 -61.5 20.5t-22.5 56.5t22.5 56.5t61.5 20.5q40 0 63 -20.5t23 -56.5t-23 -56.5t-63 -20.5zM508 133h355v-133h-527v534h-75q-47 0 -72 -22
t-25 -61q0 -35 24 -59t66 -28l-50 -116q-86 6 -140 61t-54 145q0 98 63 152t181 54h596v-133h-342v-134h271v-125h-271v-135z" />
    <glyph glyph-name="Edotaccent.swsh" horiz-adv-x="894" 
d="M586 721q-91 0 -91 81q0 80 91 80q93 0 93 -80q0 -81 -93 -81zM508 133h355v-133h-527v534h-75q-47 0 -72 -22t-25 -61q0 -35 24 -59t66 -28l-50 -116q-86 6 -140 61t-54 145q0 98 63 152t181 54h596v-133h-342v-134h271v-125h-271v-135z" />
    <glyph glyph-name="Egrave.swsh" horiz-adv-x="894" 
d="M642 723h-124l-92 159h161zM508 133h355v-133h-527v534h-75q-47 0 -72 -22t-25 -61q0 -35 24 -59t66 -28l-50 -116q-86 6 -140 61t-54 145q0 98 63 152t181 54h596v-133h-342v-134h271v-125h-271v-135z" />
    <glyph glyph-name="Emacron.swsh" horiz-adv-x="894" 
d="M772 834v-105h-372v105h372zM508 133h355v-133h-527v534h-75q-47 0 -72 -22t-25 -61q0 -35 24 -59t66 -28l-50 -116q-86 6 -140 61t-54 145q0 98 63 152t181 54h596v-133h-342v-134h271v-125h-271v-135z" />
    <glyph glyph-name="Eogonek.swsh" horiz-adv-x="894" 
d="M848 -110l23 -82q-37 -23 -104 -23q-62 0 -100.5 28.5t-38.5 82.5q0 69 79 104h-371v534h-75q-47 0 -72 -22t-25 -61q0 -35 24 -59t66 -28l-50 -116q-86 6 -140 61t-54 145q0 98 63 152t181 54h596v-133h-342v-134h271v-125h-271v-135h355v-132l1 -1q-65 -12 -91 -30.5
t-26 -45.5q0 -44 55 -44q31 0 46 10z" />
    <glyph glyph-name="F.swsh" horiz-adv-x="860" 
d="M834 527h-341v-140h271v-133h-271v-254h-172v534h-60q-47 0 -72 -22t-25 -61q0 -35 24 -59t66 -28l-50 -116q-86 6 -140 61t-54 145q0 98 63 152t181 54h580v-133z" />
    <glyph glyph-name="L.swsh" horiz-adv-x="698" 
d="M500 402q98 -3 143 -60t45 -136q0 -100 -63 -153t-181 -53h-371v660h172v-527h192q102 0 102 76q0 38 -22.5 60t-66.5 23z" />
    <glyph glyph-name="Lacute.swsh" horiz-adv-x="698" 
d="M303 882l-92 -159h-124l55 159h161zM500 402q98 -3 143 -60t45 -136q0 -100 -63 -153t-181 -53h-371v660h172v-527h192q102 0 102 76q0 38 -22.5 60t-66.5 23z" />
    <glyph glyph-name="Lcaron.swsh" horiz-adv-x="698" 
d="M348 888l-111 -167h-164l-111 167h126l67 -88l67 88h126zM500 402q98 -3 143 -60t45 -136q0 -100 -63 -153t-181 -53h-371v660h172v-527h192q102 0 102 76q0 38 -22.5 60t-66.5 23z" />
    <glyph glyph-name="Lcommaaccent.swsh" horiz-adv-x="698" 
d="M500 402q98 -3 143 -60t45 -136q0 -100 -63 -153t-181 -53h-371v660h172v-527h192q102 0 102 76q0 38 -22.5 60t-66.5 23zM266 -241l32 181h149l-71 -181h-110z" />
    <glyph glyph-name="Lslash.swsh" horiz-adv-x="740" 
d="M542 402q98 -3 143 -60t45 -136q0 -100 -63 -153t-181 -53h-371v219l-110 -53v125l110 53v316h172v-234l170 81v-125l-170 -81v-168h192q102 0 102 76q0 38 -22.5 60t-66.5 23z" />
    <glyph glyph-name="M.swsh" horiz-adv-x="1158" 
d="M850 660h235v-660h-152v303l5 203h-2l-164 -506h-138l-163 506h-3l6 -203v-193q0 -109 -60.5 -164.5t-168.5 -55.5q-76 0 -122.5 25t-72.5 77l63 104q29 -79 112 -79q46 0 71 24.5t25 69.5v423h-60q-47 0 -72 -22t-25 -61q0 -35 24 -59t66 -28l-50 -116q-86 6 -140 61
t-54 145q0 98 63 152t181 54h312l103 -336l38 -140h2l38 139z" />
    <glyph glyph-name="N.swsh" horiz-adv-x="814" 
d="M748 726q140 0 192 -96l-65 -102q-16 38 -40 54.5t-67 16.5q-47 0 -73.5 -29.5t-26.5 -82.5v-487h-191l-205 357l-50 100h-1l4 -124v-333h-152v660h191l205 -357l50 -100h1l-4 124v179q0 109 61.5 164.5t170.5 55.5z" />
    <glyph glyph-name="Nacute.swsh" horiz-adv-x="814" 
d="M516 882l-92 -159h-124l55 159h161zM748 726q140 0 192 -96l-65 -102q-16 38 -40 54.5t-67 16.5q-47 0 -73.5 -29.5t-26.5 -82.5v-487h-191l-205 357l-50 100h-1l4 -124v-333h-152v660h191l205 -357l50 -100h1l-4 124v179q0 109 61.5 164.5t170.5 55.5z" />
    <glyph glyph-name="Ncaron.swsh" horiz-adv-x="814" 
d="M451 721h-164l-111 167h126l67 -88l67 88h126zM748 726q140 0 192 -96l-65 -102q-16 38 -40 54.5t-67 16.5q-47 0 -73.5 -29.5t-26.5 -82.5v-487h-191l-205 357l-50 100h-1l4 -124v-333h-152v660h191l205 -357l50 -100h1l-4 124v179q0 109 61.5 164.5t170.5 55.5z" />
    <glyph glyph-name="Ncommaaccent.swsh" horiz-adv-x="814" 
d="M748 726q140 0 192 -96l-65 -102q-16 38 -40 54.5t-67 16.5q-47 0 -73.5 -29.5t-26.5 -82.5v-487h-191l-205 357l-50 100h-1l4 -124v-333h-152v660h191l205 -357l50 -100h1l-4 124v179q0 109 61.5 164.5t170.5 55.5zM280 -241l32 181h149l-71 -181h-110z" />
    <glyph glyph-name="Ntilde.swsh" horiz-adv-x="814" 
d="M307 776q-31 0 -37 -56h-96q6 159 132 159q33 0 57.5 -14.5t41 -28.5t31.5 -14q32 0 38 56h96q-6 -159 -132 -159q-33 0 -57 14.5t-41 28.5t-33 14zM748 726q140 0 192 -96l-65 -102q-16 38 -40 54.5t-67 16.5q-47 0 -73.5 -29.5t-26.5 -82.5v-487h-191l-205 357l-50 100
h-1l4 -124v-333h-152v660h191l205 -357l50 -100h1l-4 124v179q0 109 61.5 164.5t170.5 55.5z" />
    <glyph glyph-name="R.swsh" horiz-adv-x="937" 
d="M734 0l-141 241h-103v-125q0 -113 -63.5 -169.5t-175.5 -56.5q-152 0 -201 108l69 98q17 -42 42.5 -60.5t68.5 -18.5q42 0 66.5 27.5t24.5 72.5v417h-60q-47 0 -72 -22t-25 -61q0 -35 24 -59t66 -28l-50 -116q-86 6 -140 61t-54 145q0 98 63 152t181 54h382
q120 0 184.5 -54t64.5 -156q0 -145 -129 -191l167 -259h-189zM490 530v-167h117q55 0 80 20t25 64q0 43 -25 63t-80 20h-117z" />
    <glyph glyph-name="Racute.swsh" horiz-adv-x="937" 
d="M721 882l-92 -159h-124l55 159h161zM734 0l-141 241h-103v-125q0 -113 -63.5 -169.5t-175.5 -56.5q-152 0 -201 108l69 98q17 -42 42.5 -60.5t68.5 -18.5q42 0 66.5 27.5t24.5 72.5v417h-60q-47 0 -72 -22t-25 -61q0 -35 24 -59t66 -28l-50 -116q-86 6 -140 61t-54 145
q0 98 63 152t181 54h382q120 0 184.5 -54t64.5 -156q0 -145 -129 -191l167 -259h-189zM490 530v-167h117q55 0 80 20t25 64q0 43 -25 63t-80 20h-117z" />
    <glyph glyph-name="Rcaron.swsh" horiz-adv-x="937" 
d="M655 721h-164l-111 167h126l67 -88l67 88h126zM734 0l-141 241h-103v-125q0 -113 -63.5 -169.5t-175.5 -56.5q-152 0 -201 108l69 98q17 -42 42.5 -60.5t68.5 -18.5q42 0 66.5 27.5t24.5 72.5v417h-60q-47 0 -72 -22t-25 -61q0 -35 24 -59t66 -28l-50 -116q-86 6 -140 61
t-54 145q0 98 63 152t181 54h382q120 0 184.5 -54t64.5 -156q0 -145 -129 -191l167 -259h-189zM490 530v-167h117q55 0 80 20t25 64q0 43 -25 63t-80 20h-117z" />
    <glyph glyph-name="Rcommaaccent.swsh" horiz-adv-x="937" 
d="M756 259l167 -259h-189l-141 241h-103v-125q0 -113 -63.5 -169.5t-175.5 -56.5q-152 0 -201 108l69 98q17 -42 42.5 -60.5t68.5 -18.5q42 0 66.5 27.5t24.5 72.5v417h-60q-47 0 -72 -22t-25 -61q0 -35 24 -59t66 -28l-50 -116q-86 6 -140 61t-54 145q0 98 63 152t181 54
h382q120 0 184.5 -54t64.5 -156q0 -145 -129 -191zM490 530v-167h117q55 0 80 20t25 64q0 43 -25 63t-80 20h-117zM508 -241l32 181h149l-71 -181h-110z" />
    <glyph glyph-name="S.swsh" horiz-adv-x="644" 
d="M313 -110q-127 0 -201 48t-74 129q0 29 5 51l151 41q-5 -27 -5 -40q0 -48 33 -71t105 -23q122 0 122 86q0 37 -32.5 59.5t-118.5 40.5q-135 28 -192.5 81t-57.5 148q0 102 76.5 166t209.5 64q130 0 195.5 -48t70.5 -151l-155 -59q0 123 -114 123q-50 0 -78 -24.5
t-28 -68.5q0 -39 34 -63t120 -44q127 -29 179.5 -78t52.5 -138q0 -108 -81.5 -168.5t-216.5 -60.5z" />
    <glyph glyph-name="Sacute.swsh" horiz-adv-x="644" 
d="M312 882h161l-92 -159h-124zM313 -110q-127 0 -201 48t-74 129q0 29 5 51l151 41q-5 -27 -5 -40q0 -48 33 -71t105 -23q122 0 122 86q0 37 -32.5 59.5t-118.5 40.5q-135 28 -192.5 81t-57.5 148q0 102 76.5 166t209.5 64q130 0 195.5 -48t70.5 -151l-155 -59
q0 123 -114 123q-50 0 -78 -24.5t-28 -68.5q0 -39 34 -63t120 -44q127 -29 179.5 -78t52.5 -138q0 -108 -81.5 -168.5t-216.5 -60.5z" />
    <glyph glyph-name="Scaron.swsh" horiz-adv-x="644" 
d="M518 888l-111 -167h-164l-111 167h126l67 -88l67 88h126zM313 -110q-127 0 -201 48t-74 129q0 29 5 51l151 41q-5 -27 -5 -40q0 -48 33 -71t105 -23q122 0 122 86q0 37 -32.5 59.5t-118.5 40.5q-135 28 -192.5 81t-57.5 148q0 102 76.5 166t209.5 64q130 0 195.5 -48
t70.5 -151l-155 -59q0 123 -114 123q-50 0 -78 -24.5t-28 -68.5q0 -39 34 -63t120 -44q127 -29 179.5 -78t52.5 -138q0 -108 -81.5 -168.5t-216.5 -60.5z" />
    <glyph glyph-name="Scedilla.swsh" horiz-adv-x="644" 
d="M611 119q0 -94 -61.5 -152t-168.5 -73q50 -36 50 -91q0 -57 -39 -87.5t-104 -30.5q-81 0 -124 40l39 79q28 -28 72 -28q25 0 40 13t15 36t-16 39t-58 29q-102 10 -160 56.5t-58 117.5q0 29 5 51l151 41q-5 -27 -5 -40q0 -48 33 -71t105 -23q122 0 122 86q0 37 -32.5 59.5
t-118.5 40.5q-135 28 -192.5 81t-57.5 148q0 102 76.5 166t209.5 64q130 0 195.5 -48t70.5 -151l-155 -59q0 123 -114 123q-50 0 -78 -24.5t-28 -68.5q0 -39 34 -63t120 -44q127 -29 179.5 -78t52.5 -138z" />
    <glyph glyph-name="Scommaaccent.swsh" horiz-adv-x="644" 
d="M313 -110q-127 0 -201 48t-74 129q0 29 5 51l151 41q-5 -27 -5 -40q0 -48 33 -71t105 -23q122 0 122 86q0 37 -32.5 59.5t-118.5 40.5q-135 28 -192.5 81t-57.5 148q0 102 76.5 166t209.5 64q130 0 195.5 -48t70.5 -151l-155 -59q0 123 -114 123q-50 0 -78 -24.5
t-28 -68.5q0 -39 34 -63t120 -44q127 -29 179.5 -78t52.5 -138q0 -108 -81.5 -168.5t-216.5 -60.5zM394 -160l-71 -181h-110l32 181h149z" />
    <glyph glyph-name="T.swsh" horiz-adv-x="791" 
d="M766 660v-133h-216v-527h-172v527h-111q-103 0 -103 -76q0 -36 23 -59.5t67 -27.5l-50 -116q-85 6 -139.5 62.5t-54.5 143.5q0 98 63 152t181 54h512z" />
    <glyph glyph-name="Tcaron.swsh" horiz-adv-x="791" 
d="M542 721h-164l-111 167h126l67 -88l67 88h126zM766 660v-133h-216v-527h-172v527h-111q-103 0 -103 -76q0 -36 23 -59.5t67 -27.5l-50 -116q-85 6 -139.5 62.5t-54.5 143.5q0 98 63 152t181 54h512z" />
    <glyph glyph-name="uni0162.swsh" horiz-adv-x="791" 
d="M766 527h-216v-525q49 -34 49 -95q0 -60 -39.5 -91t-103.5 -31q-84 0 -128 41l46 82q26 -31 67 -31q24 0 40 14t16 40q0 25 -18 40.5t-58 28.5h-43v527h-111q-103 0 -103 -76q0 -36 23 -59.5t67 -27.5l-50 -116q-85 6 -139.5 62.5t-54.5 143.5q0 98 63 152t181 54h512
v-133z" />
    <glyph glyph-name="uni021A.swsh" horiz-adv-x="791" 
d="M766 660v-133h-216v-527h-172v527h-111q-103 0 -103 -76q0 -36 23 -59.5t67 -27.5l-50 -116q-85 6 -139.5 62.5t-54.5 143.5q0 98 63 152t181 54h512zM357 -241l32 181h149l-71 -181h-110z" />
    <glyph glyph-name="W.swsh" horiz-adv-x="1292" 
d="M1104 660h178l-190 -660h-188l-78 320l-29 161h-3l-29 -161l-77 -320h-193l-154 534h-77q-100 0 -100 -83q0 -35 24.5 -59t67.5 -28l-52 -116q-85 4 -139.5 60t-54.5 146q0 98 63 152t181 54h236l110 -525l118 525h156l121 -524z" />
    <glyph glyph-name="Adieresis.titl" horiz-adv-x="677" 
d="M152 522q-36 0 -56.5 18.5t-20.5 51.5t20 51.5t57 18.5q33 0 52 -19l-41 -119q-6 -2 -11 -2zM526 522q-6 0 -12 2l-41 119q19 19 53 19q36 0 56 -18.5t20 -51.5q0 -32 -20 -51t-56 -19zM496 0l-45 149h-228l-46 -149h-173l232 660h206l231 -660h-177zM259 266h156
l-48 158l-29 104h-2l-27 -103z" />
    <glyph glyph-name="Odieresis.titl" horiz-adv-x="737" 
d="M369 670q151 0 237 -90.5t86 -249.5t-86 -249.5t-237 -90.5t-237.5 90.5t-86.5 249.5t86.5 249.5t237.5 90.5zM189 646q-65 -36 -102 -93q-26 18 -26 52q0 30 19 47.5t51 17.5q39 0 58 -24zM651 552q-36 55 -102 94q18 24 56 24q34 0 53.5 -17.5t19.5 -47.5
q0 -36 -27 -53zM369 535q-72 0 -110 -52t-38 -153t38 -153t110 -52t109.5 52t37.5 153t-37.5 153t-109.5 52z" />
    <glyph glyph-name="Udieresis.titl" horiz-adv-x="713" 
d="M357 536q-32 -1 -50.5 16t-18.5 48q0 29 18.5 45.5t50.5 16.5t51 -16.5t19 -45.5q0 -31 -19 -48t-51 -16zM652 660v-391q0 -279 -295 -279q-296 0 -296 279v391h173v-394q0 -141 123 -141q122 0 122 141v394h173zM357 382q-32 0 -50.5 17t-18.5 47q0 29 18.5 46t50.5 17
t51 -17t19 -46q0 -30 -19 -47t-51 -17z" />
    <glyph glyph-name="i.loclTRK" horiz-adv-x="291" 
d="M146 558q-52 0 -75.5 19.5t-23.5 61.5q0 43 23.5 62.5t75.5 19.5t75.5 -19.5t23.5 -62.5q0 -42 -23.5 -61.5t-75.5 -19.5zM231 500v-500h-170v500h170z" />
    <glyph glyph-name="germandbls.calt" horiz-adv-x="719" 
d="M508 363q86 -6 137 -49.5t51 -126.5q0 -91 -59.5 -141.5t-155.5 -50.5q-130 0 -183 58l46 100q38 -35 102 -35q40 0 64.5 20.5t24.5 54.5q0 36 -26.5 55t-73.5 19h-88v96l147 167h-119q-60 0 -95 -36.5t-35 -99.5v-394h-172v419q0 112 73.5 176.5t198.5 64.5h313v-128z
" />
    <glyph glyph-name="longs.component" horiz-adv-x="288" 
d="M59 0v546q0 180 175 180q43 0 69 -16l-6 -112q-12 9 -30 9q-43 0 -43 -60v-547h-165z" />
    <glyph glyph-name="iacute_j.loclNLD" horiz-adv-x="581" 
d="M140 738h158l-101 -173h-124zM436 738h158l-101 -173h-124zM231 500v-500h-170v500h170zM522 500v-528q0 -187 -194 -187q-79 0 -131 32l24 110q23 -20 63 -20q68 0 68 80v513h170z" />
    <glyph glyph-name="g.ss01" horiz-adv-x="628" 
d="M416 500h152v-460q0 -255 -281 -255q-209 0 -232 146l163 43q4 -82 86 -82q43 0 68 28t25 79v92q-51 -77 -151 -77q-97 0 -151.5 65t-54.5 181q0 118 54.5 184t151.5 66q62 0 103.5 -30.5t60.5 -82.5zM305 138q43 0 67.5 30.5t24.5 88.5v9q0 57 -24 88t-68 31
q-94 0 -94 -123q0 -124 94 -124z" />
    <glyph glyph-name="gbreve.ss01" horiz-adv-x="628" 
d="M310 555q-79 0 -124 43.5t-45 119.5h110q0 -31 16 -49.5t43 -18.5t43 18.5t16 49.5h110q0 -76 -45 -119.5t-124 -43.5zM416 500h152v-460q0 -255 -281 -255q-209 0 -232 146l163 43q4 -82 86 -82q43 0 68 28t25 79v92q-51 -77 -151 -77q-97 0 -151.5 65t-54.5 181
q0 118 54.5 184t151.5 66q62 0 103.5 -30.5t60.5 -82.5zM305 138q43 0 67.5 30.5t24.5 88.5v9q0 57 -24 88t-68 31q-94 0 -94 -123q0 -124 94 -124z" />
    <glyph glyph-name="gcommaaccent.ss01" horiz-adv-x="628" 
d="M429 772l-36 -209h-142l70 209h108zM416 500h152v-460q0 -255 -281 -255q-209 0 -232 146l163 43q4 -82 86 -82q43 0 68 28t25 79v92q-51 -77 -151 -77q-97 0 -151.5 65t-54.5 181q0 118 54.5 184t151.5 66q62 0 103.5 -30.5t60.5 -82.5zM305 138q43 0 67.5 30.5
t24.5 88.5v9q0 57 -24 88t-68 31q-94 0 -94 -123q0 -124 94 -124z" />
    <glyph glyph-name="l.ss02" horiz-adv-x="293" 
d="M231 712v-712h-170v712h170z" />
    <glyph glyph-name="lacute.ss02" horiz-adv-x="293" 
d="M121 920h152l-79 -152h-123zM231 712v-712h-170v712h170z" />
    <glyph glyph-name="lcaron.ss02" horiz-adv-x="376" 
d="M231 712v-712h-170v712h170zM423 712l-53 -239h-97l21 239h129z" />
    <glyph glyph-name="lcommaaccent.ss02" horiz-adv-x="293" 
d="M231 712v-712h-170v712h170zM221 -60l-71 -181h-110l32 181h149z" />
    <glyph glyph-name="ldot.ss02" horiz-adv-x="507" 
d="M231 712v-712h-170v712h170zM400 444q47 0 73.5 -24t26.5 -67q0 -42 -26.5 -66t-73.5 -24t-73.5 24t-26.5 66q0 43 26.5 67t73.5 24z" />
    <glyph glyph-name="lslash.ss02" horiz-adv-x="350" 
d="M335 498v-119l-74 -40v-339h-170v236l-76 -50v119l76 41v366h170v-263z" />
    <glyph glyph-name="n.swsh" horiz-adv-x="650" 
d="M605 13q28 0 48 10l-12 -102q-51 -23 -101 -23q-68 0 -108 35.5t-40 103.5v249q0 94 -71 94q-40 0 -65 -28.5t-25 -87.5v-264h-170v500h152l5 -96q48 106 171 106q79 0 126 -46t47 -131v-274q0 -46 43 -46z" />
    <glyph glyph-name="nacute.swsh" horiz-adv-x="650" 
d="M461 738l-101 -173h-124l67 173h158zM605 13q28 0 48 10l-12 -102q-51 -23 -101 -23q-68 0 -108 35.5t-40 103.5v249q0 94 -71 94q-40 0 -65 -28.5t-25 -87.5v-264h-170v500h152l5 -96q48 106 171 106q79 0 126 -46t47 -131v-274q0 -46 43 -46z" />
    <glyph glyph-name="ncaron.swsh" horiz-adv-x="650" 
d="M392 565h-166l-108 173h123l68 -87l68 87h123zM605 13q28 0 48 10l-12 -102q-51 -23 -101 -23q-68 0 -108 35.5t-40 103.5v249q0 94 -71 94q-40 0 -65 -28.5t-25 -87.5v-264h-170v500h152l5 -96q48 106 171 106q79 0 126 -46t47 -131v-274q0 -46 43 -46z" />
    <glyph glyph-name="ncommaaccent.swsh" horiz-adv-x="650" 
d="M605 13q28 0 48 10l-12 -102q-51 -23 -101 -23q-68 0 -108 35.5t-40 103.5v249q0 94 -71 94q-40 0 -65 -28.5t-25 -87.5v-264h-170v500h152l5 -96q48 106 171 106q79 0 126 -46t47 -131v-274q0 -46 43 -46zM185 -241l32 181h149l-71 -181h-110z" />
    <glyph glyph-name="ntilde.swsh" horiz-adv-x="650" 
d="M247 616q-31 0 -37 -56h-96q6 159 132 159q33 0 57.5 -14.5t41 -28.5t31.5 -14q32 0 38 56h96q-6 -159 -132 -159q-33 0 -57 14.5t-41 28.5t-33 14zM605 13q28 0 48 10l-12 -102q-51 -23 -101 -23q-68 0 -108 35.5t-40 103.5v249q0 94 -71 94q-40 0 -65 -28.5t-25 -87.5
v-264h-170v500h152l5 -96q48 106 171 106q79 0 126 -46t47 -131v-274q0 -46 43 -46z" />
    <glyph glyph-name="r.swsh" horiz-adv-x="608" 
d="M375 510q63 0 126 -39t111 -46l-79 -121q-39 7 -91.5 37t-88.5 30q-58 0 -90 -37t-32 -94v-240h-170v500h150l7 -109q40 119 157 119z" />
    <glyph glyph-name="racute.swsh" horiz-adv-x="608" 
d="M417 738l-101 -173h-124l67 173h158zM375 510q63 0 126 -39t111 -46l-79 -121q-39 7 -91.5 37t-88.5 30q-58 0 -90 -37t-32 -94v-240h-170v500h150l7 -109q40 119 157 119z" />
    <glyph glyph-name="rcaron.swsh" horiz-adv-x="608" 
d="M349 565h-166l-108 173h123l68 -87l68 87h123zM375 510q63 0 126 -39t111 -46l-79 -121q-39 7 -91.5 37t-88.5 30q-58 0 -90 -37t-32 -94v-240h-170v500h150l7 -109q40 119 157 119z" />
    <glyph glyph-name="rcommaaccent.swsh" horiz-adv-x="608" 
d="M375 510q63 0 126 -39t111 -46l-79 -121q-39 7 -91.5 37t-88.5 30q-58 0 -90 -37t-32 -94v-240h-170v500h150l7 -109q40 119 157 119zM43 -241l32 181h149l-71 -181h-110z" />
    <glyph glyph-name="t.swsh" horiz-adv-x="515" 
d="M408 379h-139v-201q0 -67 66 -67q41 0 72 22l17 -105q-55 -38 -141 -38q-183 0 -184 160v229h-86v121h86v112l170 47v-159h133q57 0 91.5 10t65.5 36l51 -96q-63 -71 -202 -71z" />
    <glyph glyph-name="tcaron.swsh" horiz-adv-x="515" 
d="M466 767l-53 -218h-97l21 218h129zM408 379h-139v-201q0 -67 66 -67q41 0 72 22l17 -105q-55 -38 -141 -38q-183 0 -184 160v229h-86v121h86v112l170 47v-159h133q57 0 91.5 10t65.5 36l51 -96q-63 -71 -202 -71z" />
    <glyph glyph-name="uni0163.swsh" horiz-adv-x="541" 
d="M408 379h-139v-201q0 -67 66 -67q41 0 72 22l17 -105q-25 -18 -67 -29q57 -40 57 -96q0 -57 -39.5 -87.5t-103.5 -30.5q-82 0 -125 40l40 79q26 -28 69 -28q27 0 42.5 13t15.5 37q0 22 -12.5 37t-43.5 28q-157 10 -158 159v229h-86v121h86v112l170 47v-159h133
q57 0 91.5 10t65.5 36l51 -96q-63 -71 -202 -71z" />
    <glyph glyph-name="uni021B.swsh" horiz-adv-x="515" 
d="M408 379h-139v-201q0 -67 66 -67q41 0 72 22l17 -105q-55 -38 -141 -38q-183 0 -184 160v229h-86v121h86v112l170 47v-159h133q57 0 91.5 10t65.5 36l51 -96q-63 -71 -202 -71zM150 -241l32 181h149l-71 -181h-110z" />
    <glyph glyph-name="y.swsh" horiz-adv-x="614" 
d="M139 -215q-85 0 -136 37l36 114q29 -26 86 -26q31 0 49 10.5t29 37.5l12 31l-58 136l-149 375h187l77 -285l24 -106l27 110l70 223q42 148 181 148q71 0 113 -37l-31 -105q-21 13 -50 13q-30 0 -49 -16t-32 -54l-138 -391q-38 -118 -94.5 -166.5t-153.5 -48.5z" />
    <glyph glyph-name="yacute.swsh" horiz-adv-x="614" 
d="M293 738h158l-101 -173h-124zM139 -215q-85 0 -136 37l36 114q29 -26 86 -26q31 0 49 10.5t29 37.5l12 31l-58 136l-149 375h187l77 -285l24 -106l27 110l70 223q42 148 181 148q71 0 113 -37l-31 -105q-21 13 -50 13q-30 0 -49 -16t-32 -54l-138 -391
q-38 -118 -94.5 -166.5t-153.5 -48.5z" />
    <glyph glyph-name="ydieresis.swsh" horiz-adv-x="614" 
d="M192 710q40 0 63 -20.5t23 -56.5t-23 -56.5t-63 -20.5q-39 0 -61.5 20.5t-22.5 56.5t22.5 56.5t61.5 20.5zM412 710q40 0 63 -20.5t23 -56.5t-23 -56.5t-63 -20.5q-39 0 -61.5 20.5t-22.5 56.5t22.5 56.5t61.5 20.5zM139 -215q-85 0 -136 37l36 114q29 -26 86 -26
q31 0 49 10.5t29 37.5l12 31l-58 136l-149 375h187l77 -285l24 -106l27 110l70 223q42 148 181 148q71 0 113 -37l-31 -105q-21 13 -50 13q-30 0 -49 -16t-32 -54l-138 -391q-38 -118 -94.5 -166.5t-153.5 -48.5z" />
    <glyph glyph-name="c_t" horiz-adv-x="951" 
d="M924 133l17 -105q-55 -38 -141 -38q-184 0 -184 160v361q0 48 -17.5 70.5t-44.5 22.5q-60 0 -60 -83q0 -67 46 -166l-157 -52q-12 86 -77 86q-99 0 -99 -141q0 -137 99 -137q67 0 83 81l152 -49q-10 -68 -71 -110.5t-163 -42.5q-130 0 -200 68t-70 192q0 123 69.5 191.5
t193.5 68.5q40 0 79 -13q-11 25 -11 58q0 81 54.5 125t146.5 44q89 0 153 -45.5t64 -137.5v-41h150v-121h-150v-201q0 -67 66 -67q41 0 72 22z" />
    <glyph glyph-name="s_t" horiz-adv-x="916" 
d="M889 133l17 -105q-55 -38 -141 -38q-184 0 -184 160v355q0 48 -19 70.5t-47 22.5q-58 0 -58 -66q0 -58 45 -113l-84 -81q-38 61 -134 61q-36 0 -56.5 -12t-20.5 -28q0 -17 20 -26.5t77 -19.5q107 -17 154.5 -53t47.5 -103q0 -73 -61 -120t-177 -47q-174 0 -245 90l86 91
q51 -70 152 -70q34 0 54.5 10.5t20.5 27.5q0 33 -98 50q-107 20 -154.5 57.5t-47.5 99.5q0 66 63.5 115t178.5 49q37 0 67 -6q-15 25 -15 50q0 83 59 126.5t151 43.5q95 0 153 -45.5t58 -143.5v-35h150v-121h-150v-201q0 -67 66 -67q41 0 72 22z" />
    <glyph glyph-name="longs_i" horiz-adv-x="579" 
d="M59 0v546q0 180 175 180q43 0 69 -16l-6 -112q-12 9 -30 9q-43 0 -43 -60v-547h-165zM434 558q-52 0 -75.5 19.5t-23.5 61.5q0 43 23.5 62.5t75.5 19.5t75.5 -19.5t23.5 -62.5q0 -42 -23.5 -61.5t-75.5 -19.5zM519 500v-500h-170v500h170z" />
    <glyph glyph-name="longs_l" horiz-adv-x="652" 
d="M59 0v546q0 90 52.5 135t138.5 45q66 0 97 -25l-10 -106q-17 12 -43 12q-70 0 -70 -74v-533h-165zM554 712v-539q0 -33 10.5 -47.5t36.5 -14.5q23 0 50 9l-11 -105q-38 -25 -104 -25q-80 0 -116 37.5t-36 120.5v564h170z" />
    <glyph glyph-name="longs_s" horiz-adv-x="819" 
d="M59 0v546q0 90 52.5 135t138.5 45q66 0 97 -25l-10 -106q-17 12 -43 12q-70 0 -70 -74v-533h-165zM553 -10q-172 0 -244 88l88 96q43 -71 148 -71q35 0 55 9.5t20 25.5q0 14 -20.5 24.5t-70.5 20.5q-112 22 -159.5 60t-47.5 101q0 67 63 116.5t178 49.5q160 0 229 -94
l-92 -90q-40 71 -132 71q-36 0 -56 -11t-20 -27q0 -15 20.5 -25.5t71.5 -20.5q110 -19 158.5 -56.5t48.5 -102.5q0 -73 -61 -118.5t-177 -45.5z" />
    <glyph glyph-name="g.ss01_j" horiz-adv-x="909" 
d="M773 558q-98 0 -98 81q0 82 98 82q100 0 100 -82q0 -81 -100 -81zM410 397l6 103h152v-460q0 -255 -281 -255q-209 0 -232 146l163 43q4 -82 86 -82q43 0 68 28t25 79v92q-51 -77 -151 -77q-97 0 -151.5 65t-54.5 181q0 118 54.5 184t151.5 66q62 0 103.5 -30.5
t60.5 -82.5zM689 -25v525h170v-534q0 -181 -197 -181q-52 0 -93 22l24 121q21 -19 50 -19q46 0 46 66zM305 138q43 0 67.5 30.5t24.5 88.5v9q0 57 -24 88t-68 31q-94 0 -94 -123q0 -124 94 -124z" />
    <glyph glyph-name="fl.ss02" horiz-adv-x="708" 
d="M338 607q-83 0 -83 -72v-35h152v-121h-142v-379h-170v379h-80v121h80v46q0 90 56 135t146 45q78 0 115 -29l-17 -106q-22 16 -57 16zM476 712h170v-712h-170v712z" />
    <glyph glyph-name="longs_l.ss02" horiz-adv-x="616" 
d="M59 0v546q0 90 52.5 135t138.5 45q66 0 97 -25l-10 -106q-17 12 -43 12q-70 0 -70 -74v-533h-165zM554 712v-712h-170v712h170z" />
    <glyph glyph-name="Gcommaaccent.sc" horiz-adv-x="640" 
d="M328 207v98h262v-305h-107l-6 86q-48 -94 -166 -94q-124 0 -197.5 76t-73.5 212q0 137 78 212.5t216 75.5q99 0 166 -41.5t91 -119.5l-145 -48q-23 84 -106 84q-61 0 -95.5 -42t-34.5 -121q0 -167 137 -167q48 0 73.5 24.5t26.5 68.5v1h-119zM238 -241l32 181h149
l-71 -181h-110z" />
    <glyph glyph-name="Kcommaaccent.sc" horiz-adv-x="656" 
d="M432 327l217 -327h-193l-141 225l-76 -80v-145h-170v560h170v-243l221 243h182zM243 -241l32 181h149l-71 -181h-110z" />
    <glyph glyph-name="Lcommaaccent.sc" horiz-adv-x="580" 
d="M239 128h294v-128h-464v560h170v-432zM216 -241l32 181h149l-71 -181h-110z" />
    <glyph glyph-name="Ncommaaccent.sc" horiz-adv-x="690" 
d="M621 560v-560h-191l-165 294l-43 88h-2l6 -124v-258h-157v560h191l165 -293l43 -89h3l-6 124v258h156zM429 -60l-71 -181h-110l32 181h149z" />
    <glyph glyph-name="Rcommaaccent.sc" horiz-adv-x="624" 
d="M471 213l139 -213h-182l-106 194h-85v-194h-168v560h284q109 0 169.5 -48t60.5 -135q0 -120 -112 -164zM237 442v-142h95q85 0 85 71t-85 71h-95zM231 -241l32 181h149l-71 -181h-110z" />
    <glyph glyph-name="Scedilla.sc" horiz-adv-x="574" 
d="M546 174q0 -68 -46.5 -114t-129.5 -61q57 -37 57 -96q0 -57 -39 -87.5t-104 -30.5q-81 0 -124 40l39 79q28 -28 72 -28q25 0 40 13t15 36t-16 39t-58 29q-143 7 -230 87l74 116q41 -44 84 -61.5t106 -17.5q88 0 88 44q0 19 -25.5 30t-63 14.5t-82 13t-82 24t-63 50.5
t-25.5 90q0 84 69.5 134.5t187.5 50.5q89 0 146.5 -21t109.5 -68l-78 -113q-40 43 -78.5 60t-97.5 17q-87 0 -87 -48q0 -19 25.5 -30t63 -14.5t82 -13.5t82 -25t63 -50.5t25.5 -87.5z" />
    <glyph glyph-name="Scommaaccent.sc" horiz-adv-x="574" 
d="M290 568q89 0 146.5 -21t109.5 -68l-78 -113q-40 43 -78.5 60t-97.5 17q-87 0 -87 -48q0 -19 25.5 -30t63 -14.5t82 -13.5t82 -25t63 -50.5t25.5 -87.5q0 -85 -70 -133.5t-189 -48.5q-168 0 -265 88l74 116q41 -44 84 -61.5t106 -17.5q88 0 88 44q0 19 -25.5 30t-63 14.5
t-82 13t-82 24t-63 50.5t-25.5 90q0 84 69.5 134.5t187.5 50.5zM388 -60l-71 -181h-110l32 181h149z" />
    <glyph glyph-name="uni0162.sc" horiz-adv-x="607" 
d="M579 432h-190v-431q47 -32 47 -94q0 -60 -39.5 -91t-103.5 -31q-84 0 -128 41l46 82q26 -31 67 -31q24 0 40.5 14t16.5 40q0 25 -18.5 40.5t-58.5 28.5h-39v432h-191v128h551v-128z" />
    <glyph glyph-name="uni021A.sc" horiz-adv-x="607" 
d="M579 560v-128h-190v-432h-170v432h-191v128h551zM196 -241l32 181h149l-71 -181h-110z" />
    <glyph glyph-name="a.sc" horiz-adv-x="629" 
d="M454 0l-40 116h-206l-40 -116h-161l206 560h203l206 -560h-168zM247 230h129l-12 35l-51 171h-3l-51 -171z" />
    <glyph glyph-name="aacute.sc" horiz-adv-x="629" 
d="M459 782l-92 -159h-124l55 159h161zM454 0l-40 116h-206l-40 -116h-161l206 560h203l206 -560h-168zM247 230h129l-12 35l-51 171h-3l-51 -171z" />
    <glyph glyph-name="abreve.sc" horiz-adv-x="629" 
d="M314 615q-79 0 -124 43.5t-45 119.5h110q0 -31 16 -49.5t43 -18.5t43 18.5t16 49.5h110q0 -76 -45 -119.5t-124 -43.5zM454 0l-40 116h-206l-40 -116h-161l206 560h203l206 -560h-168zM247 230h129l-12 35l-51 171h-3l-51 -171z" />
    <glyph glyph-name="acircumflex.sc" horiz-adv-x="629" 
d="M314 707l-67 -88h-126l111 167h164l111 -167h-126zM454 0l-40 116h-206l-40 -116h-161l206 560h203l206 -560h-168zM247 230h129l-12 35l-51 171h-3l-51 -171z" />
    <glyph glyph-name="adieresis.sc" horiz-adv-x="629" 
d="M203 616q-39 0 -61.5 20.5t-22.5 56.5t22.5 56.5t61.5 20.5q40 0 63 -20.5t23 -56.5t-23 -56.5t-63 -20.5zM423 616q-39 0 -61.5 20.5t-22.5 56.5t22.5 56.5t61.5 20.5q40 0 63 -20.5t23 -56.5t-23 -56.5t-63 -20.5zM454 0l-40 116h-206l-40 -116h-161l206 560h203
l206 -560h-168zM247 230h129l-12 35l-51 171h-3l-51 -171z" />
    <glyph glyph-name="agrave.sc" horiz-adv-x="629" 
d="M370 623h-124l-92 159h161zM454 0l-40 116h-206l-40 -116h-161l206 560h203l206 -560h-168zM247 230h129l-12 35l-51 171h-3l-51 -171z" />
    <glyph glyph-name="amacron.sc" horiz-adv-x="629" 
d="M500 734v-105h-372v105h372zM454 0l-40 116h-206l-40 -116h-161l206 560h203l206 -560h-168zM247 230h129l-12 35l-51 171h-3l-51 -171z" />
    <glyph glyph-name="aogonek.sc" horiz-adv-x="629" 
d="M606 -110l23 -82q-37 -23 -104 -23q-62 0 -100 29t-38 84q0 68 66 104l-39 114h-206l-40 -116h-161l206 560h203l206 -560q-65 -11 -91 -30t-26 -46q0 -21 14.5 -32.5t40.5 -11.5q31 0 46 10zM247 230h129l-12 35l-51 171h-3l-51 -171z" />
    <glyph glyph-name="aring.sc" horiz-adv-x="629" 
d="M456 0l-41 116h-205l-40 -116h-163l202 538q-44 33 -44 94q0 58 40 93.5t110 35.5q69 0 109 -35.5t40 -93.5q0 -60 -45 -93l203 -539h-166zM314 682q-26 0 -42 -15.5t-16 -40.5t16 -40.5t42 -15.5q27 0 43 15t16 41t-16 41t-43 15zM249 230h126l-12 35l-48 165h-4
l-50 -165z" />
    <glyph glyph-name="atilde.sc" horiz-adv-x="629" 
d="M249 676q-31 0 -37 -56h-96q6 159 132 159q33 0 57.5 -14.5t41 -28.5t31.5 -14q32 0 38 56h96q-6 -159 -132 -159q-33 0 -57 14.5t-41 28.5t-33 14zM454 0l-40 116h-206l-40 -116h-161l206 560h203l206 -560h-168zM247 230h129l-12 35l-51 171h-3l-51 -171z" />
    <glyph glyph-name="ae.sc" horiz-adv-x="856" 
d="M528 117h295v-117h-451v158h-157l-61 -158h-160l240 560h577v-117h-283v-106h213v-114h-213v-106zM259 272h113v174h-46z" />
    <glyph glyph-name="b.sc" horiz-adv-x="627" 
d="M69 0v560h302q205 -1 205 -151q0 -49 -29.5 -83t-85.5 -44v-3q64 -7 97 -41t33 -88q0 -73 -52.5 -111.5t-154.5 -38.5h-315zM233 332h103q76 0 76 56q0 57 -76 57h-103v-113zM233 111h121q73 0 73 55q0 56 -73 56h-121v-111z" />
    <glyph glyph-name="c.sc" horiz-adv-x="607" 
d="M590 168q-13 -81 -83 -128.5t-180 -47.5q-135 0 -211 76t-76 212q0 137 77.5 212.5t215.5 75.5q98 0 167 -45.5t85 -129.5l-153 -45q-11 90 -101 90q-56 0 -88.5 -40t-32.5 -118t32 -118t90 -40q97 0 107 87z" />
    <glyph glyph-name="cacute.sc" horiz-adv-x="607" 
d="M319 782h161l-92 -159h-124zM590 168q-13 -81 -83 -128.5t-180 -47.5q-135 0 -211 76t-76 212q0 137 77.5 212.5t215.5 75.5q98 0 167 -45.5t85 -129.5l-153 -45q-11 90 -101 90q-56 0 -88.5 -40t-32.5 -118t32 -118t90 -40q97 0 107 87z" />
    <glyph glyph-name="ccaron.sc" horiz-adv-x="607" 
d="M525 788l-111 -167h-164l-111 167h126l67 -88l67 88h126zM590 168q-13 -81 -83 -128.5t-180 -47.5q-135 0 -211 76t-76 212q0 137 77.5 212.5t215.5 75.5q98 0 167 -45.5t85 -129.5l-153 -45q-11 90 -101 90q-56 0 -88.5 -40t-32.5 -118t32 -118t90 -40q97 0 107 87z" />
    <glyph glyph-name="ccedilla.sc" horiz-adv-x="607" 
d="M590 168q-11 -64 -58.5 -108.5t-123.5 -59.5q57 -38 57 -97q0 -57 -39 -87.5t-104 -30.5q-81 0 -124 40l39 79q28 -28 72 -28q25 0 40 13t15 36q0 24 -17 40t-60 29q-117 11 -182 86t-65 200q0 137 77.5 212.5t215.5 75.5q98 0 167 -45.5t85 -129.5l-153 -45
q-11 90 -101 90q-56 0 -88.5 -40t-32.5 -118t32 -118t90 -40q97 0 107 87z" />
    <glyph glyph-name="d.sc" horiz-adv-x="660" 
d="M320 560q141 0 217.5 -73t76.5 -207t-76.5 -207t-217.5 -73h-251v560h251zM320 127q123 0 123 153t-123 153h-81v-306h81z" />
    <glyph glyph-name="eth.sc" horiz-adv-x="678" 
d="M339 560q141 0 217.5 -73t76.5 -207t-76.5 -207t-217.5 -73h-251v243h-78v73h78v244h251zM339 127q123 0 123 153t-123 153h-81v-117h110v-73h-110v-116h81z" />
    <glyph glyph-name="dcaron.sc" horiz-adv-x="660" 
d="M379 621h-164l-111 167h126l67 -88l67 88h126zM320 560q141 0 217.5 -73t76.5 -207t-76.5 -207t-217.5 -73h-251v560h251zM320 127q123 0 123 153t-123 153h-81v-306h81z" />
    <glyph glyph-name="dcroat.sc" horiz-adv-x="678" 
d="M339 560q141 0 217.5 -73t76.5 -207t-76.5 -207t-217.5 -73h-251v243h-78v73h78v244h251zM339 127q123 0 123 153t-123 153h-81v-117h110v-73h-110v-116h81z" />
    <glyph glyph-name="e.sc" horiz-adv-x="582" 
d="M239 119h310v-119h-480v560h474v-119h-304v-102h236v-114h-236v-106z" />
    <glyph glyph-name="eacute.sc" horiz-adv-x="582" 
d="M451 782l-92 -159h-124l54 159h162zM239 119h310v-119h-480v560h474v-119h-304v-102h236v-114h-236v-106z" />
    <glyph glyph-name="ecaron.sc" horiz-adv-x="582" 
d="M379 621h-164l-111 167h126l67 -88l67 88h126zM239 119h310v-119h-480v560h474v-119h-304v-102h236v-114h-236v-106z" />
    <glyph glyph-name="ecircumflex.sc" horiz-adv-x="582" 
d="M300 707l-67 -88h-126l111 167h164l111 -167h-126zM239 119h310v-119h-480v560h474v-119h-304v-102h236v-114h-236v-106z" />
    <glyph glyph-name="edieresis.sc" horiz-adv-x="582" 
d="M189 616q-39 0 -61.5 20.5t-22.5 56.5t22.5 56.5t61.5 20.5q40 0 63 -20.5t23 -56.5t-23 -56.5t-63 -20.5zM409 616q-39 0 -61.5 20.5t-22.5 56.5t22.5 56.5t61.5 20.5q40 0 63 -20.5t23 -56.5t-23 -56.5t-63 -20.5zM239 119h310v-119h-480v560h474v-119h-304v-102h236
v-114h-236v-106z" />
    <glyph glyph-name="edotaccent.sc" horiz-adv-x="582" 
d="M300 621q-91 0 -91 81q0 80 91 80q93 0 93 -80q0 -81 -93 -81zM239 119h310v-119h-480v560h474v-119h-304v-102h236v-114h-236v-106z" />
    <glyph glyph-name="egrave.sc" horiz-adv-x="582" 
d="M364 623h-124l-92 159h161zM239 119h310v-119h-480v560h474v-119h-304v-102h236v-114h-236v-106z" />
    <glyph glyph-name="emacron.sc" horiz-adv-x="582" 
d="M486 734v-105h-372v105h372zM239 119h310v-119h-480v560h474v-119h-304v-102h236v-114h-236v-106z" />
    <glyph glyph-name="eogonek.sc" horiz-adv-x="582" 
d="M533 -110l23 -82q-37 -23 -104 -23q-62 0 -100.5 28.5t-38.5 82.5q0 69 79 104h-323v560h474v-119h-304v-102h236v-114h-236v-106h310v-119q-65 -12 -91 -30.5t-26 -45.5q0 -44 55 -44q31 0 46 10z" />
    <glyph glyph-name="f.sc" horiz-adv-x="571" 
d="M543 441h-304v-109h236v-119h-236v-213h-170v560h474v-119z" />
    <glyph glyph-name="g.sc" horiz-adv-x="640" 
d="M328 207v98h262v-305h-107l-6 86q-48 -94 -166 -94q-124 0 -197.5 76t-73.5 212q0 137 78 212.5t216 75.5q99 0 166 -41.5t91 -119.5l-145 -48q-23 84 -106 84q-61 0 -95.5 -42t-34.5 -121q0 -167 137 -167q48 0 73.5 24.5t26.5 68.5v1h-119z" />
    <glyph glyph-name="gbreve.sc" horiz-adv-x="640" 
d="M338 615q-79 0 -124 43.5t-45 119.5h110q0 -31 16 -49.5t43 -18.5t43 18.5t16 49.5h110q0 -76 -45 -119.5t-124 -43.5zM328 207v98h262v-305h-107l-6 86q-48 -94 -166 -94q-124 0 -197.5 76t-73.5 212q0 137 78 212.5t216 75.5q99 0 166 -41.5t91 -119.5l-145 -48
q-23 84 -106 84q-61 0 -95.5 -42t-34.5 -121q0 -167 137 -167q48 0 73.5 24.5t26.5 68.5v1h-119z" />
    <glyph glyph-name="h.sc" horiz-adv-x="681" 
d="M441 560h170v-560h-170v220h-202v-220h-170v560h170v-212h202v212z" />
    <glyph glyph-name="i.sc" horiz-adv-x="309" 
d="M239 560v-560h-170v560h170z" />
    <glyph glyph-name="iacute.sc" horiz-adv-x="309" 
d="M139 782h161l-92 -159h-123zM239 560v-560h-170v560h170z" />
    <glyph glyph-name="iacute_j.loclNLD.sc" horiz-adv-x="880" 
d="M138 782h162l-92 -159h-124zM726 782h161l-92 -159h-123zM239 560v-560h-170v560h170zM821 560v-345q0 -223 -248 -223q-132 0 -191 66.5t-37 174.5l159 27q-11 -76 6 -107t61 -31q43 0 61.5 25.5t18.5 81.5v331h170z" />
    <glyph glyph-name="icircumflex.sc" horiz-adv-x="309" 
d="M347 619h-126l-67 88l-67 -88h-126l111 167h164zM239 560v-560h-170v560h170z" />
    <glyph glyph-name="idieresis.sc" horiz-adv-x="309" 
d="M53 770q39 0 61.5 -20.5t22.5 -56.5t-22.5 -56.5t-61.5 -20.5q-38 0 -60 20.5t-22 56.5t22 56.5t60 20.5zM253 770q39 0 61.5 -20.5t22.5 -56.5t-22.5 -56.5t-61.5 -20.5q-38 0 -59.5 20.5t-21.5 56.5t21.5 56.5t59.5 20.5zM239 560v-560h-170v560h170z" />
    <glyph glyph-name="i.sc.loclTRK" horiz-adv-x="309" 
d="M154 764q93 0 93 -80q0 -81 -93 -81q-91 0 -91 81q0 80 91 80zM239 560v-560h-170v560h170z" />
    <glyph glyph-name="igrave.sc" horiz-adv-x="309" 
d="M155 782l55 -159h-124l-92 159h161zM239 560v-560h-170v560h170z" />
    <glyph glyph-name="ij.sc" horiz-adv-x="880" 
d="M239 560v-560h-170v560h170zM821 560v-345q0 -223 -248 -223q-132 0 -191 66.5t-37 174.5l159 27q-10 -77 6.5 -107.5t60.5 -30.5t62 25.5t18 81.5v331h170z" />
    <glyph glyph-name="imacron.sc" horiz-adv-x="309" 
d="M287 734v-105h-266v105h266zM239 560v-560h-170v560h170z" />
    <glyph glyph-name="iogonek.sc" horiz-adv-x="309" 
d="M230 -108l24 -83q-37 -24 -105 -24q-61 0 -99.5 28.5t-38.5 82.5q0 66 68 104h-10v560h170v-560h1q-111 -25 -111 -75q0 -44 53 -44q30 0 48 11z" />
    <glyph glyph-name="j.sc" horiz-adv-x="571" 
d="M512 560v-345q0 -223 -248 -223q-132 0 -191 66.5t-37 174.5l159 27q-10 -77 6.5 -107.5t60.5 -30.5t62 25.5t18 81.5v331h170z" />
    <glyph glyph-name="k.sc" horiz-adv-x="656" 
d="M456 0l-141 225l-76 -80v-145h-170v560h170v-243l221 243h182l-210 -233l217 -327h-193z" />
    <glyph glyph-name="l.sc" horiz-adv-x="580" 
d="M239 128h294v-128h-464v560h170v-432z" />
    <glyph glyph-name="lacute.sc" horiz-adv-x="580" 
d="M301 782l-92 -159h-124l55 159h161zM239 128h294v-128h-464v560h170v-432z" />
    <glyph glyph-name="lcaron.sc" horiz-adv-x="580" 
d="M239 128h294v-128h-464v560h170v-432zM478 560l-60 -239h-109l24 239h145z" />
    <glyph glyph-name="ldot.sc" horiz-adv-x="629" 
d="M239 560v-432h294v-128h-464v560h170zM502 407q47 0 73.5 -24t26.5 -66q0 -43 -26.5 -67t-73.5 -24t-73.5 24t-26.5 67q0 42 26.5 66t73.5 24z" />
    <glyph glyph-name="lslash.sc" horiz-adv-x="597" 
d="M270 128h293v-128h-463v183l-96 -47v109l96 47v268h170v-185l150 73v-109l-150 -73v-138z" />
    <glyph glyph-name="m.sc" horiz-adv-x="841" 
d="M69 0v560h232l86 -264l33 -112h3l32 112l85 264h231v-560h-154v210l10 199h-2l-141 -409h-127l-142 409h-1l9 -199v-210h-154z" />
    <glyph glyph-name="n.sc" horiz-adv-x="690" 
d="M621 560v-560h-191l-165 294l-43 88h-2l6 -124v-258h-157v560h191l165 -293l43 -89h3l-6 124v258h156z" />
    <glyph glyph-name="nacute.sc" horiz-adv-x="690" 
d="M333 782h161l-92 -159h-124zM621 560v-560h-191l-165 294l-43 88h-2l6 -124v-258h-157v560h191l165 -293l43 -89h3l-6 124v258h156z" />
    <glyph glyph-name="ncaron.sc" horiz-adv-x="690" 
d="M539 788l-111 -167h-164l-111 167h126l67 -88l67 88h126zM621 560v-560h-191l-165 294l-43 88h-2l6 -124v-258h-157v560h191l165 -293l43 -89h3l-6 124v258h156z" />
    <glyph glyph-name="ntilde.sc" horiz-adv-x="690" 
d="M547 778q-6 -159 -132 -159q-33 0 -57 14.5t-41 28.5t-33 14q-31 0 -37 -56h-96q6 159 132 159q33 0 57.5 -14.5t41 -28.5t31.5 -14q32 0 38 56h96zM621 560v-560h-191l-165 294l-43 88h-2l6 -124v-258h-157v560h191l165 -293l43 -89h3l-6 124v258h156z" />
    <glyph glyph-name="o.sc" horiz-adv-x="665" 
d="M332 568q137 0 215 -76.5t78 -211.5t-78 -211.5t-215 -76.5t-214.5 76.5t-77.5 211.5t77.5 211.5t214.5 76.5zM332 438q-122 0 -122 -158t122 -158q123 0 123 158t-123 158z" />
    <glyph glyph-name="oacute.sc" horiz-adv-x="665" 
d="M316 782h161l-92 -159h-124zM332 568q137 0 215 -76.5t78 -211.5t-78 -211.5t-215 -76.5t-214.5 76.5t-77.5 211.5t77.5 211.5t214.5 76.5zM332 438q-122 0 -122 -158t122 -158q123 0 123 158t-123 158z" />
    <glyph glyph-name="ocircumflex.sc" horiz-adv-x="665" 
d="M525 619h-126l-67 88l-67 -88h-126l111 167h164zM332 568q137 0 215 -76.5t78 -211.5t-78 -211.5t-215 -76.5t-214.5 76.5t-77.5 211.5t77.5 211.5t214.5 76.5zM332 438q-122 0 -122 -158t122 -158q123 0 123 158t-123 158z" />
    <glyph glyph-name="odieresis.sc" horiz-adv-x="665" 
d="M221 770q40 0 63 -20.5t23 -56.5t-23 -56.5t-63 -20.5q-39 0 -61.5 20.5t-22.5 56.5t22.5 56.5t61.5 20.5zM441 770q40 0 63 -20.5t23 -56.5t-23 -56.5t-63 -20.5q-39 0 -61.5 20.5t-22.5 56.5t22.5 56.5t61.5 20.5zM332 568q137 0 215 -76.5t78 -211.5t-78 -211.5
t-215 -76.5t-214.5 76.5t-77.5 211.5t77.5 211.5t214.5 76.5zM332 438q-122 0 -122 -158t122 -158q123 0 123 158t-123 158z" />
    <glyph glyph-name="ograve.sc" horiz-adv-x="665" 
d="M333 782l55 -159h-124l-92 159h161zM332 568q137 0 215 -76.5t78 -211.5t-78 -211.5t-215 -76.5t-214.5 76.5t-77.5 211.5t77.5 211.5t214.5 76.5zM332 438q-122 0 -122 -158t122 -158q123 0 123 158t-123 158z" />
    <glyph glyph-name="ohungarumlaut.sc" horiz-adv-x="665" 
d="M199 782h161l-92 -159h-124zM419 782h161l-92 -159h-124zM332 568q137 0 215 -76.5t78 -211.5t-78 -211.5t-215 -76.5t-214.5 76.5t-77.5 211.5t77.5 211.5t214.5 76.5zM332 438q-122 0 -122 -158t122 -158q123 0 123 158t-123 158z" />
    <glyph glyph-name="omacron.sc" horiz-adv-x="665" 
d="M518 734v-105h-372v105h372zM332 568q137 0 215 -76.5t78 -211.5t-78 -211.5t-215 -76.5t-214.5 76.5t-77.5 211.5t77.5 211.5t214.5 76.5zM332 438q-122 0 -122 -158t122 -158q123 0 123 158t-123 158z" />
    <glyph glyph-name="oslash.sc" horiz-adv-x="665" 
d="M541 497q84 -76 84 -217q0 -135 -78 -211.5t-215 -76.5q-97 0 -166 40l-37 -50h-66l63 79q-86 75 -86 219q0 135 77.5 211.5t214.5 76.5q99 0 169 -41l35 47h66zM332 438q-122 0 -122 -158q0 -64 20 -102l176 239q-28 21 -74 21zM332 122q123 0 123 158q0 55 -16 93
l-173 -235q26 -16 66 -16z" />
    <glyph glyph-name="otilde.sc" horiz-adv-x="665" 
d="M530 778q-6 -159 -132 -159q-33 0 -57 14.5t-41 28.5t-33 14q-31 0 -37 -56h-96q6 159 132 159q33 0 57.5 -14.5t41 -28.5t31.5 -14q32 0 38 56h96zM332 568q137 0 215 -76.5t78 -211.5t-78 -211.5t-215 -76.5t-214.5 76.5t-77.5 211.5t77.5 211.5t214.5 76.5zM332 438
q-122 0 -122 -158t122 -158q123 0 123 158t-123 158z" />
    <glyph glyph-name="oe.sc" horiz-adv-x="939" 
d="M607 119h299v-119h-414v87q-48 -95 -184 -95q-117 0 -192.5 78t-75.5 210t75.5 210t193.5 78q135 0 183 -94v86h408v-119h-293v-102h231v-114h-231v-106zM330 122q118 0 118 158t-118 158q-123 0 -123 -158t123 -158z" />
    <glyph glyph-name="p.sc" horiz-adv-x="608" 
d="M355 560q105 0 163.5 -50.5t58.5 -141.5q0 -89 -59 -139.5t-163 -50.5h-116v-178h-170v560h286zM326 293q85 0 85 74q0 75 -85 75h-87v-149h87z" />
    <glyph glyph-name="thorn.sc" horiz-adv-x="617" 
d="M350 472q110 0 170 -50t60 -140t-60 -140t-170 -50h-111v-92h-170v560h170v-88h111zM327 209q86 0 86 73q0 74 -86 74h-88v-147h88z" />
    <glyph glyph-name="q.sc" horiz-adv-x="665" 
d="M475 -55q66 0 100 38l41 -113q-58 -45 -143 -44q-92 2 -141.5 43t-45.5 126q-116 13 -181 87.5t-65 197.5q0 135 77.5 211.5t214.5 76.5t215 -76.5t78 -211.5q0 -123 -65 -198t-182 -88q14 -49 97 -49zM210 280q0 -158 122 -158q123 0 123 158t-123 158q-122 0 -122 -158
z" />
    <glyph glyph-name="r.sc" horiz-adv-x="624" 
d="M428 0l-106 194h-85v-194h-168v560h284q109 0 169.5 -48t60.5 -135q0 -120 -112 -164l139 -213h-182zM237 442v-142h95q85 0 85 71t-85 71h-95z" />
    <glyph glyph-name="racute.sc" horiz-adv-x="624" 
d="M450 782l-92 -159h-124l55 159h161zM428 0l-106 194h-85v-194h-168v560h284q109 0 169.5 -48t60.5 -135q0 -120 -112 -164l139 -213h-182zM237 442v-142h95q85 0 85 71t-85 71h-95z" />
    <glyph glyph-name="rcaron.sc" horiz-adv-x="624" 
d="M384 621h-164l-111 167h126l67 -88l67 88h126zM428 0l-106 194h-85v-194h-168v560h284q109 0 169.5 -48t60.5 -135q0 -120 -112 -164l139 -213h-182zM237 442v-142h95q85 0 85 71t-85 71h-95z" />
    <glyph glyph-name="s.sc" horiz-adv-x="574" 
d="M290 568q89 0 146.5 -21t109.5 -68l-78 -113q-40 43 -78.5 60t-97.5 17q-87 0 -87 -48q0 -19 25.5 -30t63 -14.5t82 -13.5t82 -25t63 -50.5t25.5 -87.5q0 -85 -70 -133.5t-189 -48.5q-168 0 -265 88l74 116q41 -44 84 -61.5t106 -17.5q88 0 88 44q0 19 -25.5 30t-63 14.5
t-82 13t-82 24t-63 50.5t-25.5 90q0 84 69.5 134.5t187.5 50.5z" />
    <glyph glyph-name="sacute.sc" horiz-adv-x="574" 
d="M272 782h161l-92 -159h-124zM290 568q89 0 146.5 -21t109.5 -68l-78 -113q-40 43 -78.5 60t-97.5 17q-87 0 -87 -48q0 -19 25.5 -30t63 -14.5t82 -13.5t82 -25t63 -50.5t25.5 -87.5q0 -85 -70 -133.5t-189 -48.5q-168 0 -265 88l74 116q41 -44 84 -61.5t106 -17.5
q88 0 88 44q0 19 -25.5 30t-63 14.5t-82 13t-82 24t-63 50.5t-25.5 90q0 84 69.5 134.5t187.5 50.5z" />
    <glyph glyph-name="scaron.sc" horiz-adv-x="574" 
d="M478 788l-111 -167h-164l-111 167h126l67 -88l67 88h126zM290 568q89 0 146.5 -21t109.5 -68l-78 -113q-40 43 -78.5 60t-97.5 17q-87 0 -87 -48q0 -19 25.5 -30t63 -14.5t82 -13.5t82 -25t63 -50.5t25.5 -87.5q0 -85 -70 -133.5t-189 -48.5q-168 0 -265 88l74 116
q41 -44 84 -61.5t106 -17.5q88 0 88 44q0 19 -25.5 30t-63 14.5t-82 13t-82 24t-63 50.5t-25.5 90q0 84 69.5 134.5t187.5 50.5z" />
    <glyph glyph-name="germandbls.sc" horiz-adv-x="668" 
d="M470 309q171 -7 171 -148q0 -79 -52 -122t-139 -43q-111 0 -160 49l37 93q42 -32 91 -32q35 0 54.5 15t19.5 42q0 29 -20 41t-61 12h-87v93l137 129h-118q-44 0 -74 -30t-30 -78v-330h-170v333q0 102 70 164.5t182 62.5h291v-119z" />
    <glyph glyph-name="t.sc" horiz-adv-x="607" 
d="M579 560v-128h-190v-432h-170v432h-191v128h551z" />
    <glyph glyph-name="tcaron.sc" horiz-adv-x="607" 
d="M382 621h-164l-111 167h126l67 -88l67 88h126zM579 560v-128h-190v-432h-170v432h-191v128h551z" />
    <glyph glyph-name="u.sc" horiz-adv-x="657" 
d="M597 560v-326q0 -242 -269 -242t-269 242v326h170v-330q0 -108 99 -108q52 0 76 26t24 82v330h169z" />
    <glyph glyph-name="uacute.sc" horiz-adv-x="657" 
d="M312 782h161l-92 -159h-124zM597 560v-326q0 -242 -269 -242t-269 242v326h170v-330q0 -108 99 -108q52 0 76 26t24 82v330h169z" />
    <glyph glyph-name="ucircumflex.sc" horiz-adv-x="657" 
d="M521 619h-126l-67 88l-67 -88h-126l111 167h164zM597 560v-326q0 -242 -269 -242t-269 242v326h170v-330q0 -108 99 -108q52 0 76 26t24 82v330h169z" />
    <glyph glyph-name="udieresis.sc" horiz-adv-x="657" 
d="M217 770q40 0 63 -20.5t23 -56.5t-23 -56.5t-63 -20.5q-39 0 -61.5 20.5t-22.5 56.5t22.5 56.5t61.5 20.5zM437 770q40 0 63 -20.5t23 -56.5t-23 -56.5t-63 -20.5q-39 0 -61.5 20.5t-22.5 56.5t22.5 56.5t61.5 20.5zM597 560v-326q0 -242 -269 -242t-269 242v326h170
v-330q0 -108 99 -108q52 0 76 26t24 82v330h169z" />
    <glyph glyph-name="ugrave.sc" horiz-adv-x="657" 
d="M329 782l55 -159h-124l-92 159h161zM597 560v-326q0 -242 -269 -242t-269 242v326h170v-330q0 -108 99 -108q52 0 76 26t24 82v330h169z" />
    <glyph glyph-name="uhungarumlaut.sc" horiz-adv-x="657" 
d="M199 782h161l-92 -159h-124zM418 782h161l-92 -159h-123zM597 560v-326q0 -242 -269 -242t-269 242v326h170v-330q0 -108 99 -108q52 0 76 26t24 82v330h169z" />
    <glyph glyph-name="umacron.sc" horiz-adv-x="657" 
d="M514 734v-105h-372v105h372zM597 560v-326q0 -242 -269 -242t-269 242v326h170v-330q0 -108 99 -108q52 0 76 26t24 82v330h169z" />
    <glyph glyph-name="uogonek.sc" horiz-adv-x="657" 
d="M428 560h169v-326q0 -193 -171 -232q-80 -32 -80 -76q0 -20 15 -32t40 -12q30 0 46 10l22 -82q-37 -23 -103 -23q-62 0 -100.5 28.5t-38.5 82.5q0 60 53 96q-221 21 -221 240v326h170v-330q0 -108 99 -108q52 0 76 26t24 82v330z" />
    <glyph glyph-name="uring.sc" horiz-adv-x="657" 
d="M329 799q63 0 98.5 -32.5t35.5 -88.5t-35.5 -88.5t-98.5 -32.5t-99 32.5t-36 88.5t36 88.5t99 32.5zM329 729q-24 0 -38.5 -14t-14.5 -37t14.5 -37t38.5 -14q23 0 37.5 14t14.5 37t-14.5 37t-37.5 14zM597 560v-326q0 -242 -269 -242t-269 242v326h170v-330
q0 -108 99 -108q52 0 76 26t24 82v330h169z" />
    <glyph glyph-name="v.sc" horiz-adv-x="635" 
d="M631 560l-212 -560h-202l-212 560h181l96 -287l39 -140h2l37 139l97 288h174z" />
    <glyph glyph-name="w.sc" horiz-adv-x="940" 
d="M471 409l-37 -202l-52 -207h-210l-164 560h181l69 -302l30 -134l95 436h176l98 -436l29 134l69 302h177l-164 -560h-204l-53 207l-39 202h-1z" />
    <glyph glyph-name="x.sc" horiz-adv-x="596" 
d="M591 0h-198l-107 164l-110 -164h-177l203 284l-190 276h194l96 -160l100 160h176l-188 -273z" />
    <glyph glyph-name="y.sc" horiz-adv-x="594" 
d="M591 560l-209 -354v-206h-170v206l-209 354h175l81 -154l41 -84l40 84l82 154h169z" />
    <glyph glyph-name="yacute.sc" horiz-adv-x="594" 
d="M280 782h161l-92 -159h-124zM591 560l-209 -354v-206h-170v206l-209 354h175l81 -154l41 -84l40 84l82 154h169z" />
    <glyph glyph-name="ydieresis.sc" horiz-adv-x="594" 
d="M186 770q40 0 63 -20.5t23 -56.5t-23 -56.5t-63 -20.5q-39 0 -61.5 20.5t-22.5 56.5t22.5 56.5t61.5 20.5zM406 770q40 0 63 -20.5t23 -56.5t-23 -56.5t-63 -20.5q-39 0 -61.5 20.5t-22.5 56.5t22.5 56.5t61.5 20.5zM591 560l-209 -354v-206h-170v206l-209 354h175
l81 -154l41 -84l40 84l82 154h169z" />
    <glyph glyph-name="z.sc" horiz-adv-x="586" 
d="M221 125h329v-125h-507v111l250 267l65 57h-321v125h504v-113l-246 -257z" />
    <glyph glyph-name="zacute.sc" horiz-adv-x="586" 
d="M433 782l-92 -159h-124l55 159h161zM221 125h329v-125h-507v111l250 267l65 57h-321v125h504v-113l-246 -257z" />
    <glyph glyph-name="zcaron.sc" horiz-adv-x="574" 
d="M368 621h-165l-110 167h126l66 -88l67 88h126zM221 125h329v-125h-507v111l250 267l65 57h-321v125h504v-113l-246 -257z" />
    <glyph glyph-name="zdotaccent.sc" horiz-adv-x="586" 
d="M288 621q-91 0 -91 81q0 80 91 80q93 0 93 -80q0 -81 -93 -81zM221 125h329v-125h-507v111l250 267l65 57h-321v125h504v-113l-246 -257z" />
    <glyph glyph-name="Rcommaaccent.sc.ss03" horiz-adv-x="628" 
d="M69 0v560h284q108 0 169 -46.5t61 -126.5q0 -61 -33 -98.5t-89 -48.5v-2q85 -18 96 -92q17 -110 35 -142v-4h-179q-6 15 -9.5 34t-7 48.5t-6.5 47.5q-6 35 -27.5 49.5t-60.5 14.5h-65v-194h-168zM237 300h92q88 0 88 71t-88 71h-92v-142zM406 -60l-71 -181h-110l32 181
h149z" />
    <glyph glyph-name="r.sc.ss03" horiz-adv-x="628" 
d="M69 0v560h284q108 0 169 -46.5t61 -126.5q0 -61 -33 -98.5t-89 -48.5v-2q85 -18 96 -92q17 -110 35 -142v-4h-179q-6 15 -9.5 34t-7 48.5t-6.5 47.5q-6 35 -27.5 49.5t-60.5 14.5h-65v-194h-168zM237 300h92q88 0 88 71t-88 71h-92v-142z" />
    <glyph glyph-name="racute.sc.ss03" horiz-adv-x="628" 
d="M296 798h158l-101 -173h-124zM69 0v560h284q108 0 169 -46.5t61 -126.5q0 -61 -33 -98.5t-89 -48.5v-2q85 -18 96 -92q17 -110 35 -142v-4h-179q-6 15 -9.5 34t-7 48.5t-6.5 47.5q-6 35 -27.5 49.5t-60.5 14.5h-65v-194h-168zM237 300h92q88 0 88 71t-88 71h-92v-142z
" />
    <glyph glyph-name="rcaron.sc.ss03" horiz-adv-x="628" 
d="M493 798l-108 -173h-166l-108 173h123l68 -87l68 87h123zM69 0v560h284q108 0 169 -46.5t61 -126.5q0 -61 -33 -98.5t-89 -48.5v-2q85 -18 96 -92q17 -110 35 -142v-4h-179q-6 15 -9.5 34t-7 48.5t-6.5 47.5q-6 35 -27.5 49.5t-60.5 14.5h-65v-194h-168zM237 300h92
q88 0 88 71t-88 71h-92v-142z" />
    <glyph glyph-name="Gcommaaccent.sc.ss04" horiz-adv-x="641" 
d="M335 299h264v-61q0 -119 -67 -182.5t-194 -63.5q-139 0 -217 74.5t-78 212.5q0 136 78 212.5t218 76.5q96 0 164.5 -40t93.5 -121l-147 -43q-23 79 -107 79q-61 0 -96 -42.5t-35 -120.5q0 -167 134 -167q56 0 84.5 27t28.5 63v5h-124v91zM271 -241l32 181h149l-71 -181
h-110z" />
    <glyph glyph-name="g.sc.ss04" horiz-adv-x="641" 
d="M335 299h264v-61q0 -119 -67 -182.5t-194 -63.5q-139 0 -217 74.5t-78 212.5q0 136 78 212.5t218 76.5q96 0 164.5 -40t93.5 -121l-147 -43q-23 79 -107 79q-61 0 -96 -42.5t-35 -120.5q0 -167 134 -167q56 0 84.5 27t28.5 63v5h-124v91z" />
    <glyph glyph-name="gbreve.sc.ss04" horiz-adv-x="641" 
d="M343 615q-79 0 -124 43.5t-45 119.5h110q0 -31 16 -49.5t43 -18.5t43 18.5t16 49.5h110q0 -76 -45 -119.5t-124 -43.5zM335 299h264v-61q0 -119 -67 -182.5t-194 -63.5q-139 0 -217 74.5t-78 212.5q0 136 78 212.5t218 76.5q96 0 164.5 -40t93.5 -121l-147 -43
q-23 79 -107 79q-61 0 -96 -42.5t-35 -120.5q0 -167 134 -167q56 0 84.5 27t28.5 63v5h-124v91z" />
    <glyph glyph-name="iacute_j.loclNLD.sc.ss05" horiz-adv-x="605" 
d="M203 623l55 159h228l-92 -159h-191zM376 560h170v-339q0 -108 -68 -168.5t-182 -60.5q-124 0 -186 54.5t-49 155.5h165q-8 -80 73 -80q39 0 58 24t19 78v336zM229 560v-302h-170v302h170z" />
    <glyph glyph-name="ij.sc.ss05" horiz-adv-x="605" 
d="M546 560v-339q0 -108 -68 -168.5t-182 -60.5q-124 0 -186 54.5t-49 155.5h165q-8 -80 73 -80q39 0 58 24t19 78v336h170zM229 560v-302h-170v302h170z" />
    <glyph glyph-name="zero.osf" horiz-adv-x="616" 
d="M308 570q268 0 268 -290t-268 -290t-268 290t268 290zM308 450q-52 0 -76.5 -40.5t-24.5 -129.5t24.5 -129.5t76.5 -40.5t76.5 40.5t24.5 129.5t-24.5 129.5t-76.5 40.5z" />
    <glyph glyph-name="one.osf" horiz-adv-x="427" 
d="M220 560h136v-560h-166v390v1q-74 -69 -152 -79l-16 139q55 8 114.5 40.5t83.5 68.5z" />
    <glyph glyph-name="two.osf" horiz-adv-x="570" 
d="M282 570q123 0 183.5 -52.5t60.5 -136.5q0 -49 -18 -88t-53.5 -68.5t-67 -48t-80.5 -41.5q-29 -12 -55 -20v-2q83 5 104 5h184v-118h-495v106q191 92 255 141.5t64 123.5q0 79 -85 79q-48 0 -73 -32t-19 -93l-153 39q-2 90 58 148t190 58z" />
    <glyph glyph-name="three.osf" horiz-adv-x="559" 
d="M275 570q109 0 169 -50.5t60 -135.5q0 -73 -36 -109.5t-78 -41.5v-3q47 -2 87.5 -38t40.5 -108q0 -90 -69 -142t-178 -52q-106 0 -169.5 39t-90.5 125l146 63q12 -107 109 -107q44 0 69.5 24t25.5 64q0 42 -24 60t-74 18h-38v101h30q44 0 68.5 22.5t24.5 64.5
q0 86 -82 86q-88 0 -96 -100l-144 49q32 171 249 171z" />
    <glyph glyph-name="four.osf" horiz-adv-x="644" 
d="M616 163v-118h-101v-145h-152v145h-332v81l283 434h201v-397h101zM307 339l-116 -176h172v176l4 108h-2q-18 -45 -58 -108z" />
    <glyph glyph-name="five.osf" horiz-adv-x="574" 
d="M333 326q95 0 146.5 -55.5t51.5 -147.5q0 -114 -68.5 -173.5t-177.5 -59.5q-195 0 -258 145l144 73q19 -98 108 -98q48 0 73.5 26t25.5 74q0 47 -25.5 73t-71.5 26q-65 0 -104 -44l-126 22l43 373h411v-127h-289l-17 -136q-1 -15 -4 -21h1q42 50 137 50z" />
    <glyph glyph-name="six.osf" horiz-adv-x="596" 
d="M326 670q186 0 229 -155l-139 -53q-20 82 -92 82q-61 0 -96 -53t-35 -155v-14h3q16 43 61 66t98 23q92 0 150.5 -55.5t58.5 -149.5q0 -102 -66 -159t-182 -57q-131 0 -203.5 88t-72.5 252q0 166 78 253t208 87zM318 298q-44 0 -70 -25.5t-26 -68.5t26 -68.5t70 -25.5
q45 0 69.5 24.5t24.5 70.5q0 45 -24.5 69t-69.5 24z" />
    <glyph glyph-name="seven.osf" horiz-adv-x="590" 
d="M18 560h543v-122q-116 -116 -166 -248.5t-50 -289.5h-169q0 305 224 530h-382v130z" />
    <glyph glyph-name="eight.osf" horiz-adv-x="620" 
d="M310 668q113 0 178.5 -49t65.5 -135q0 -103 -105 -146v-1q60 -20 94 -61t34 -98q0 -89 -71 -138.5t-196 -49.5q-124 0 -195.5 49.5t-71.5 138.5q0 56 34 97.5t94 61.5v1q-105 42 -105 146q0 86 65 135t179 49zM310 551q-41 0 -65 -20.5t-24 -57.5t24 -57.5t65 -20.5
t65 20.5t24 57.5t-24 57.5t-65 20.5zM310 107q47 0 74 22.5t27 62.5t-27 62.5t-74 22.5t-74 -22.5t-27 -62.5t27 -62.5t74 -22.5z" />
    <glyph glyph-name="nine.osf" horiz-adv-x="612" 
d="M299 570q129 0 201 -88.5t72 -255.5q0 -158 -72.5 -247t-202.5 -89q-93 0 -153.5 35t-91.5 120l146 55q7 -46 30.5 -68t72.5 -22q58 0 90 48.5t32 141.5v30h-4q-26 -90 -156 -90q-95 0 -155 58t-60 154q0 100 67.5 159t183.5 59zM297 446q-46 0 -71 -25t-25 -70t25 -69.5
t71 -24.5q44 0 69.5 25t25.5 69t-25.5 69.5t-69.5 25.5z" />
    <glyph glyph-name="zero.tf" 
d="M302 -10q-265 0 -265 340t265 340t265 -340t-265 -340zM302 124q52 0 75 47.5t23 158.5t-23 158.5t-75 47.5t-75 -47.5t-23 -158.5t23 -158.5t75 -47.5z" />
    <glyph glyph-name="one.tf" 
d="M415 130h156v-130h-493v130h179v362v9q-81 -75 -170 -86l-16 134q54 6 118 40t89 71h137v-530z" />
    <glyph glyph-name="two.tf" 
d="M58 0v110q167 104 241 184.5t74 151.5q0 40 -23 64.5t-65 24.5q-99 0 -101 -135l-148 45q3 107 74.5 166t185.5 59q122 0 185 -63t63 -149q0 -93 -69 -171t-211 -159v-1q68 4 134 4h154v-131h-494z" />
    <glyph glyph-name="three.tf" 
d="M308 670q110 0 171.5 -50t61.5 -135q0 -74 -43 -113t-81 -39v-3q20 0 41.5 -7.5t44 -23.5t37 -47t14.5 -72q0 -85 -71 -137.5t-182 -52.5q-106 0 -170 39t-91 125l155 67q4 -53 29.5 -75.5t72.5 -22.5q42 0 66.5 22t23.5 59q-1 38 -24 54t-71 16h-37v109h30q88 0 89 76
q0 38 -20.5 58t-56.5 20q-86 0 -92 -89l-149 51q16 88 83 129.5t169 41.5z" />
    <glyph glyph-name="four.tf" 
d="M324 0v141h-296v85l245 434h203v-397h109v-122h-109v-141h-152zM174 263h155v123q0 78 3 158h-3q-17 -47 -40 -83z" />
    <glyph glyph-name="five.tf" 
d="M349 426q96 0 151.5 -55.5t55.5 -144.5q0 -116 -72.5 -176t-184.5 -60q-90 0 -153 31t-105 101l151 86q10 -44 34 -66t74 -22q47 0 74 24t27 70q0 45 -25.5 69t-74.5 24q-73 0 -105 -39l-131 19l43 373h411v-133h-286l-16 -124q-3 -17 -5 -24h1q42 47 136 47z" />
    <glyph glyph-name="six.tf" 
d="M332 670q176 0 231 -146l-141 -66q-19 76 -100 76q-53 0 -85.5 -52t-32.5 -141v-17h3q15 41 58.5 64t101.5 23q92 0 148.5 -56t56.5 -149q0 -99 -65.5 -157.5t-178.5 -58.5q-134 0 -206 88.5t-72 251.5q0 168 78 254t204 86zM325 295q-42 0 -66.5 -23.5t-24.5 -64.5
t24.5 -64.5t66.5 -23.5q43 0 67 23t24 65t-24 65t-67 23z" />
    <glyph glyph-name="seven.tf" 
d="M38 660h531v-122q-119 -125 -165 -242.5t-46 -295.5h-172q0 157 55 284t168 241h-371v135z" />
    <glyph glyph-name="eight.tf" 
d="M302 668q110 0 173.5 -49.5t63.5 -135.5q0 -103 -101 -145v-1q120 -43 120 -156q0 -90 -68 -140.5t-188 -50.5t-188 50.5t-68 140.5q0 56 31.5 96t88.5 60v1q-47 19 -74 56.5t-27 88.5q0 86 63.5 135.5t173.5 49.5zM302 544q-39 0 -61.5 -20t-22.5 -56q0 -35 22.5 -55
t61.5 -20t61.5 20t22.5 55q0 36 -22.5 56t-61.5 20zM303 114q45 0 70.5 21.5t25.5 60.5t-25.5 60.5t-70.5 21.5t-70.5 -21.5t-25.5 -60.5t25 -60.5t71 -21.5z" />
    <glyph glyph-name="nine.tf" 
d="M289 670q130 0 200.5 -88t70.5 -256q0 -173 -69.5 -254.5t-204.5 -81.5q-186 0 -244 144l157 61q10 -38 30.5 -56.5t62.5 -18.5q61 0 88.5 47t27.5 140v16h-4q-27 -84 -152 -87q-95 -2 -155 54.5t-60 155.5q0 103 67 163.5t185 60.5zM286 535q-43 0 -67 -23t-24 -65
t24 -65t67 -23t67 23.5t24 64.5t-24 64.5t-67 23.5z" />
    <glyph glyph-name="zero.tosf" 
d="M302 570q262 0 262 -290t-262 -290t-262 290t262 290zM302 450q-49 0 -72 -40.5t-23 -129.5t23 -129.5t72 -40.5t72 40.5t23 129.5t-23 129.5t-72 40.5z" />
    <glyph glyph-name="one.tosf" 
d="M421 125h157v-125h-495v125h184v257v21q-81 -68 -166 -79l-16 125q53 6 119.5 40.5t91.5 70.5h125v-435z" />
    <glyph glyph-name="two.tosf" 
d="M292 570q123 0 183.5 -52.5t60.5 -136.5q0 -49 -18 -88t-53.5 -68.5t-67 -48t-80.5 -41.5q-29 -12 -55 -20v-2q82 5 104 5h184v-118h-495v106q191 92 255 141.5t64 123.5q0 79 -85 79q-48 0 -73 -32t-19 -93l-153 39q-2 90 58 148t190 58z" />
    <glyph glyph-name="three.tosf" 
d="M302 570q109 0 169.5 -50.5t60.5 -135.5q0 -73 -36.5 -109.5t-78.5 -41.5v-3q47 -2 87.5 -38t40.5 -108q0 -90 -69 -142t-178 -52q-106 0 -169.5 39t-90.5 125l147 63q10 -107 109 -107q43 0 68.5 24t25.5 64q0 42 -24 60t-74 18h-37v101h29q44 0 68.5 22.5t24.5 64.5
q0 86 -82 86q-88 0 -96 -100l-144 49q32 171 249 171z" />
    <glyph glyph-name="four.tosf" 
d="M330 -100v145h-300v81l252 434h200v-397h100v-118h-100v-145h-152zM172 163h163v123q0 52 4 160h-2q-17 -42 -43 -84z" />
    <glyph glyph-name="five.tosf" 
d="M355 326q95 0 146.5 -55.5t51.5 -147.5q0 -114 -68 -173.5t-177 -59.5q-196 0 -259 145l144 73q19 -98 108 -98q48 0 73.5 26t25.5 74q0 47 -25 73t-72 26q-66 0 -103 -44l-127 22l43 373h412v-127h-290l-16 -136q-3 -17 -5 -21h1q42 50 137 50z" />
    <glyph glyph-name="six.tosf" 
d="M332 670q186 0 229 -155l-140 -53q-18 82 -91 82q-61 0 -96 -53t-35 -155v-14h3q16 43 61 66t98 23q92 0 150.5 -55.5t58.5 -149.5q0 -102 -66.5 -159t-182.5 -57q-131 0 -203 88t-72 252q0 166 78 253t208 87zM323 298q-44 0 -69.5 -25.5t-25.5 -68.5t25.5 -68.5
t69.5 -25.5q46 0 70.5 24.5t24.5 70.5q0 45 -24.5 69t-70.5 24z" />
    <glyph glyph-name="seven.tosf" 
d="M42 560h526v-122q-118 -115 -167.5 -245.5t-49.5 -292.5h-169q0 304 223 530h-363v130z" />
    <glyph glyph-name="eight.tosf" 
d="M301 668q113 0 178 -49t65 -135q0 -103 -104 -146v-1q60 -20 94 -61t34 -98q0 -89 -71 -138.5t-196 -49.5t-196 49.5t-71 138.5q0 56 34 97.5t94 61.5v1q-105 42 -105 146q0 86 65 135t179 49zM301 551q-41 0 -65 -20.5t-24 -57.5t24 -57.5t65 -20.5t64.5 20.5t23.5 57.5
t-23.5 57.5t-64.5 20.5zM301 107q47 0 74 22.5t27 62.5t-27 62.5t-74 22.5t-74 -22.5t-27 -62.5t27 -62.5t74 -22.5z" />
    <glyph glyph-name="nine.tosf" 
d="M289 570q129 0 201 -88.5t72 -255.5q0 -158 -72.5 -247t-202.5 -89q-94 0 -154 34.5t-91 120.5l145 55q7 -46 30.5 -68t73.5 -22q58 0 90 48.5t32 141.5q0 17 -1 30h-3q-27 -90 -156 -90q-95 0 -155.5 58t-60.5 154q0 100 68 159t184 59zM286 446q-46 0 -70.5 -25
t-24.5 -70t24.5 -69.5t70.5 -24.5q44 0 69.5 25t25.5 69t-25.5 69.5t-69.5 25.5z" />
    <glyph glyph-name="zero.zero" horiz-adv-x="644" 
d="M322 670q274 0 274 -340t-274 -340t-274 340t274 340zM322 536q-55 0 -79.5 -48t-24.5 -158q0 -78 12 -125l135 322q-18 9 -43 9zM322 124q55 0 79.5 48t24.5 158q0 67 -9 112l-130 -312q15 -6 35 -6z" />
    <glyph glyph-name="zero.osf.zero" horiz-adv-x="616" 
d="M308 570q268 0 268 -290t-268 -290t-268 290t268 290zM308 450q-52 0 -76.5 -40.5t-24.5 -129.5q0 -58 11 -97l129 260q-15 7 -39 7zM308 110q52 0 76.5 40.5t24.5 129.5q0 52 -9 88l-125 -254q13 -4 33 -4z" />
    <glyph glyph-name="zero.tf.zero" 
d="M302 670q265 0 265 -340t-265 -340t-265 340t265 340zM302 536q-52 0 -75 -47.5t-23 -158.5q0 -69 10 -119l127 317q-18 8 -39 8zM302 124q52 0 75 47.5t23 158.5q0 69 -9 113l-124 -312q14 -7 35 -7z" />
    <glyph glyph-name="zero.tosf.zero" 
d="M302 570q262 0 262 -290t-262 -290t-262 290t262 290zM302 450q-49 0 -72 -40.5t-23 -129.5q0 -54 10 -96l127 257q-18 9 -42 9zM302 110q49 0 72 40.5t23 129.5q0 43 -6 74l-118 -240q12 -4 29 -4z" />
    <glyph glyph-name="zero.dnom" horiz-adv-x="413" 
d="M206 -10q-92 0 -137 50.5t-45 153.5t45 153.5t137 50.5t137 -50.5t45 -153.5t-45 -153.5t-137 -50.5zM206 78q32 0 46 26.5t14 89.5t-14 89.5t-46 26.5t-45.5 -26.5t-13.5 -89.5t13.5 -89.5t45.5 -26.5z" />
    <glyph glyph-name="one.dnom" horiz-adv-x="298" 
d="M152 393h104v-397h-123v216q0 27 3 64q-60 -44 -117 -48v101q33 5 75 24.5t58 39.5z" />
    <glyph glyph-name="two.dnom" horiz-adv-x="392" 
d="M29 -4v77q65 36 89 52q117 79 117 133q0 45 -47 45q-54 0 -54 -76l-119 32q1 66 48.5 102.5t127.5 36.5q88 0 131 -38.5t43 -91.5q0 -74 -97 -139q-36 -23 -77 -38v-2q42 4 91 4h88v-97h-341z" />
    <glyph glyph-name="three.dnom" horiz-adv-x="379" 
d="M188 398q77 0 118 -29.5t41 -83.5q0 -40 -23 -63.5t-61 -25.5v-3q43 -1 67.5 -23t24.5 -62q0 -54 -44 -86t-119 -32q-148 0 -183 101l115 42q4 -54 59 -54q23 0 36.5 11.5t13.5 31.5q0 36 -50 36h-23v65h19q47 0 47 40q0 41 -44 41q-47 0 -53 -52l-110 37q9 55 55 82
t114 27z" />
    <glyph glyph-name="four.dnom" horiz-adv-x="395" 
d="M379 162v-81h-60v-85h-107v85h-201v56l161 257h147v-232h60zM117 162h95v78q0 44 3 80h-3q-16 -35 -31 -59z" />
    <glyph glyph-name="five.dnom" horiz-adv-x="385" 
d="M226 251q64 0 97.5 -32.5t33.5 -89.5q0 -69 -47 -104t-122 -35q-64 0 -107 18t-67 63l111 49q13 -42 60 -42q25 0 40 13.5t15 35.5q0 46 -53 46q-37 0 -57 -23l-100 10l24 233h286v-92h-193l-5 -48q-1 -14 -6 -25h1q25 23 89 23z" />
    <glyph glyph-name="six.dnom" horiz-adv-x="406" 
d="M214 -10q-91 0 -139 51t-48 153q0 100 54 152t143 52q119 0 157 -86l-95 -46q-12 40 -60 40q-37 0 -58 -27.5t-21 -71.5q0 -8 1 -11h1q32 48 103 48q59 0 96 -32t37 -94q0 -61 -44.5 -94.5t-126.5 -33.5zM216 81q53 0 53 40q0 42 -53 42t-53 -42q0 -40 53 -40z" />
    <glyph glyph-name="seven.dnom" horiz-adv-x="355" 
d="M10 393h337v-80q-121 -115 -121 -317h-125q0 173 118 299h-209v98z" />
    <glyph glyph-name="eight.dnom" horiz-adv-x="417" 
d="M208 398q77 0 122 -31t45 -84q0 -65 -70 -87v-1q81 -21 81 -90q0 -55 -47 -85t-131 -30q-83 0 -130.5 30.5t-47.5 84.5q0 68 80 90v1q-69 20 -69 87q0 53 45 84t122 31zM208 319q-51 0 -51 -41t51 -41t51 41t-51 41zM208 69q57 0 57 43q0 44 -57 44q-56 0 -56 -44
q0 -20 15 -31.5t41 -11.5z" />
    <glyph glyph-name="nine.dnom" horiz-adv-x="411" 
d="M195 398q91 0 140 -51.5t49 -152.5q0 -103 -53 -153.5t-144 -50.5q-129 0 -157 94l106 36q5 -38 55 -38q72 0 72 89q0 9 -1 14h-1q-10 -19 -35 -31t-57 -12q-66 0 -106 34.5t-40 90.5q0 63 46 97t126 34zM200 308q-53 0 -53 -42q0 -40 53 -40t53 40q0 20 -14 31t-39 11z
" />
    <glyph glyph-name="zero.numr" horiz-adv-x="413" 
d="M206 262q-92 0 -137 50.5t-45 153.5t45 153.5t137 50.5t137 -50.5t45 -153.5t-45 -153.5t-137 -50.5zM206 350q32 0 46 26.5t14 89.5t-14 89.5t-46 26.5t-45.5 -26.5t-13.5 -89.5t13.5 -89.5t45.5 -26.5z" />
    <glyph glyph-name="one.numr" horiz-adv-x="298" 
d="M152 665h104v-397h-123v216q0 27 3 64q-60 -44 -117 -48v101q33 5 75 24.5t58 39.5z" />
    <glyph glyph-name="two.numr" horiz-adv-x="392" 
d="M29 268v77q65 36 89 52q117 79 117 133q0 45 -47 45q-54 0 -54 -76l-119 32q1 66 48.5 102.5t127.5 36.5q88 0 131 -38.5t43 -91.5q0 -74 -97 -139q-36 -23 -77 -38v-2q42 4 91 4h88v-97h-341z" />
    <glyph glyph-name="three.numr" horiz-adv-x="379" 
d="M188 670q77 0 118 -29.5t41 -83.5q0 -40 -23 -63.5t-61 -25.5v-3q43 -1 67.5 -23t24.5 -62q0 -54 -44 -86t-119 -32q-148 0 -183 101l115 42q4 -54 59 -54q23 0 36.5 11.5t13.5 31.5q0 36 -50 36h-23v65h19q47 0 47 40q0 41 -44 41q-47 0 -53 -52l-110 37q9 55 55 82
t114 27z" />
    <glyph glyph-name="four.numr" horiz-adv-x="395" 
d="M379 434v-81h-60v-85h-107v85h-201v56l161 257h147v-232h60zM117 434h95v78q0 44 3 80h-3q-16 -35 -31 -59z" />
    <glyph glyph-name="five.numr" horiz-adv-x="385" 
d="M226 523q64 0 97.5 -32.5t33.5 -89.5q0 -69 -47 -104t-122 -35q-64 0 -107 18t-67 63l111 49q13 -42 60 -42q25 0 40 13.5t15 35.5q0 46 -53 46q-37 0 -57 -23l-100 10l24 233h286v-92h-193l-5 -48q-1 -14 -6 -25h1q25 23 89 23z" />
    <glyph glyph-name="six.numr" horiz-adv-x="406" 
d="M214 262q-91 0 -139 51t-48 153q0 100 54 152t143 52q119 0 157 -86l-95 -46q-12 40 -60 40q-37 0 -58 -27.5t-21 -71.5q0 -8 1 -11h1q32 48 103 48q59 0 96 -32t37 -94q0 -61 -44.5 -94.5t-126.5 -33.5zM216 353q53 0 53 40q0 42 -53 42t-53 -42q0 -40 53 -40z" />
    <glyph glyph-name="seven.numr" horiz-adv-x="355" 
d="M10 665h337v-80q-121 -115 -121 -317h-125q0 173 118 299h-209v98z" />
    <glyph glyph-name="eight.numr" horiz-adv-x="417" 
d="M208 670q77 0 122 -31t45 -84q0 -65 -70 -87v-1q81 -21 81 -90q0 -55 -47 -85t-131 -30q-83 0 -130.5 30.5t-47.5 84.5q0 68 80 90v1q-69 20 -69 87q0 53 45 84t122 31zM208 591q-51 0 -51 -41t51 -41t51 41t-51 41zM208 341q57 0 57 43q0 44 -57 44q-56 0 -56 -44
q0 -20 15 -31.5t41 -11.5z" />
    <glyph glyph-name="nine.numr" horiz-adv-x="411" 
d="M195 670q91 0 140 -51.5t49 -152.5q0 -103 -53 -153.5t-144 -50.5q-129 0 -157 94l106 36q5 -38 55 -38q72 0 72 89q0 9 -1 14h-1q-10 -19 -35 -31t-57 -12q-66 0 -106 34.5t-40 90.5q0 63 46 97t126 34zM200 580q-53 0 -53 -42q0 -40 53 -40t53 40q0 20 -14 31t-39 11z
" />
    <glyph glyph-name="zero.sc" horiz-adv-x="594" 
d="M297 569q125 0 191.5 -74.5t66.5 -214.5t-66.5 -214.5t-191.5 -74.5t-191.5 74.5t-66.5 214.5t66.5 214.5t191.5 74.5zM297 439q-48 0 -69.5 -36.5t-21.5 -122.5t21.5 -122.5t69.5 -36.5t69.5 36.5t21.5 122.5t-21.5 122.5t-69.5 36.5z" />
    <glyph glyph-name="one.sc" horiz-adv-x="415" 
d="M204 560h140v-560h-170v302q0 45 6 99q-68 -52 -144 -62l-18 132q49 6 102.5 31.5t83.5 57.5z" />
    <glyph glyph-name="two.sc" horiz-adv-x="557" 
d="M278 568q115 0 173 -51.5t58 -122.5q0 -42 -14 -78.5t-35.5 -63.5t-55 -52.5t-64 -42.5t-70.5 -36v-2q48 5 103 5h143v-124h-465v104q164 87 229.5 147t65.5 115q0 33 -20 52.5t-57 19.5q-44 0 -67 -30.5t-19 -80.5l-146 41q-2 85 58 142.5t183 57.5z" />
    <glyph glyph-name="three.sc" horiz-adv-x="552" 
d="M278 568q103 0 160.5 -44.5t57.5 -111.5q0 -66 -35.5 -97t-76.5 -32v-2q45 1 84.5 -28t39.5 -92q0 -76 -65 -122.5t-166 -46.5q-102 0 -163 33t-87 108l152 59q5 -41 25.5 -59.5t64.5 -18.5q36 0 57 17t21 46t-18.5 41.5t-58.5 12.5h-43v96h32q76 0 76 61q1 26 -16.5 42
t-51.5 16q-72 0 -77 -68l-146 44q11 70 76 108t158 38z" />
    <glyph glyph-name="four.sc" horiz-adv-x="612" 
d="M337 0v115h-298v83l249 362h203v-330h91v-115h-91v-115h-154zM190 230h148l4 231h-3q-10 -23 -44 -79z" />
    <glyph glyph-name="five.sc" horiz-adv-x="546" 
d="M329 359q78 0 126 -47t48 -123q0 -92 -60 -144.5t-167 -52.5q-176 0 -240 112l138 70q13 -30 34 -45t62 -15q38 0 60 20t22 53q0 34 -23 52t-61 18q-59 0 -87 -35l-127 15l37 323h388v-119h-265l-12 -94q-1 -13 -8 -34l2 -1q40 47 133 47z" />
    <glyph glyph-name="six.sc" horiz-adv-x="556" 
d="M295 -8q-124 0 -190.5 74t-66.5 216q0 138 70.5 212t189.5 74q84 0 134.5 -29t81.5 -94l-126 -59q-20 58 -88 58q-50 0 -81 -41t-31 -115v-12h2q19 34 58 52.5t90 18.5q78 0 130 -43.5t53 -123.5q1 -85 -58 -136.5t-168 -51.5zM294 111q36 0 56.5 16t20.5 45t-20.5 45
t-56.5 16t-56.5 -16t-20.5 -45t20.5 -45t56.5 -16z" />
    <glyph glyph-name="seven.sc" horiz-adv-x="551" 
d="M38 560h480v-120q-177 -152 -179 -440h-165q0 260 175 432h-311v128z" />
    <glyph glyph-name="eight.sc" horiz-adv-x="573" 
d="M286 -8q-114 0 -179.5 43t-65.5 117q0 94 107 134v2q-94 35 -94 118q0 76 62.5 119t169.5 43q108 0 170.5 -43t62.5 -119q0 -83 -94 -118v-2q107 -40 107 -134q0 -74 -66 -117t-180 -43zM286 334q35 0 55.5 16t20.5 44t-20.5 43.5t-55.5 15.5t-55.5 -15.5t-20.5 -43.5
t20.5 -44t55.5 -16zM286 106q40 0 62.5 17t22.5 47t-23 47.5t-62 17.5q-38 0 -61 -17.5t-23 -47.5t22.5 -47t61.5 -17z" />
    <glyph glyph-name="nine.sc" horiz-adv-x="561" 
d="M267 -8q-87 0 -141.5 28.5t-86.5 93.5l134 65q11 -68 90 -68q111 0 111 160v13h-3q-12 -37 -50.5 -56.5t-91.5 -19.5q-81 0 -136.5 45t-56.5 127q-1 85 60.5 136.5t173.5 51.5q121 0 187 -75t66 -216q0 -140 -65.5 -212.5t-190.5 -72.5zM267 318q36 0 57 16.5t21 45.5
t-21 45.5t-57 16.5t-57 -16.5t-21 -45.5t21 -45.5t57 -16.5z" />
    <glyph glyph-name="periodcentered.case" horiz-adv-x="274" 
d="M137 445q47 0 73.5 -23.5t26.5 -66.5q0 -42 -26.5 -66t-73.5 -24t-73.5 24t-26.5 66q0 43 26.5 66.5t73.5 23.5z" />
    <glyph glyph-name="exclamdown.case" horiz-adv-x="298" 
d="M149 501q-45 0 -70.5 22t-25.5 62q0 39 25.5 61t70.5 22t71 -22t26 -61q0 -40 -26 -62t-71 -22zM61 0v213l19 232h139l19 -232v-213h-177z" />
    <glyph glyph-name="periodcentered.loclCAT.case" horiz-adv-x="42" 
d="M-74 445q47 0 73.5 -23.5t26.5 -66.5q0 -42 -26.5 -66t-73.5 -24t-73.5 24t-26.5 66q0 43 26.5 66.5t73.5 23.5z" />
    <glyph glyph-name="questiondown.case" horiz-adv-x="605" 
d="M313 499q-45 0 -70.5 22t-25.5 62t25.5 62.5t70.5 22.5q46 0 71.5 -22.5t25.5 -62.5t-25.5 -62t-71.5 -22zM298 -10q-118 0 -187.5 45t-69.5 136q0 168 190 189l11 86h145l10 -153q-93 -7 -132.5 -31t-39.5 -65q0 -69 85 -69q44 0 70 25.5t30 74.5l164 -62
q-11 -80 -79 -128t-197 -48z" />
    <glyph glyph-name="periodcentered.loclCAT" horiz-adv-x="170" 
d="M67 443q47 0 73.5 -23.5t26.5 -66.5q0 -42 -26.5 -66t-73.5 -24t-73.5 24t-26.5 66q0 43 26.5 66.5t73.5 23.5z" />
    <glyph glyph-name="periodcentered.loclCAT.ss02" horiz-adv-x="274" 
d="M137 443q47 0 73.5 -23.5t26.5 -66.5q0 -42 -26.5 -66t-73.5 -24t-73.5 24t-26.5 66q0 43 26.5 66.5t73.5 23.5z" />
    <glyph glyph-name="colon.tf" horiz-adv-x="302" 
d="M151 510q47 0 73.5 -24t26.5 -66q0 -43 -26.5 -66.5t-73.5 -23.5t-73.5 23.5t-26.5 66.5q0 42 26.5 66t73.5 24zM151 172q47 0 73.5 -24t26.5 -67q0 -42 -26.5 -66t-73.5 -24t-73.5 24t-26.5 66q0 43 26.5 67t73.5 24z" />
    <glyph glyph-name="comma.tf" horiz-adv-x="304" 
d="M151 172q53 0 80.5 -36t27.5 -93q0 -66 -35.5 -119t-103.5 -82l-75 53q99 37 125 107l-5 3q-10 -11 -30 -11q-33 0 -58 21.5t-25 62.5q0 45 27 69.5t72 24.5z" />
    <glyph glyph-name="numbersign.tf" 
d="M589 400h-107l-22 -138h96v-102h-111l-25 -160h-99l25 160h-134l-24 -160h-99l25 160h-100v102h115l22 138h-104v102h119l25 158h99l-25 -158h134l24 158h99l-24 -158h91v-102zM362 262l21 138h-134l-21 -138h134z" />
    <glyph glyph-name="period.tf" horiz-adv-x="302" 
d="M151 172q47 0 73.5 -24t26.5 -67q0 -42 -26.5 -66t-73.5 -24t-73.5 24t-26.5 66q0 43 26.5 67t73.5 24z" />
    <glyph glyph-name="semicolon.tf" horiz-adv-x="302" 
d="M154 330q-47 0 -73.5 23.5t-26.5 66.5q0 42 26.5 66t73.5 24q46 0 72.5 -24t26.5 -66q0 -43 -26 -66.5t-73 -23.5zM150 172q53 0 80.5 -36t27.5 -93q0 -66 -35.5 -119t-103.5 -82l-75 53q99 37 125 107l-5 3q-10 -11 -30 -11q-33 0 -58.5 21.5t-25.5 62.5q0 45 27.5 69.5
t72.5 24.5z" />
    <glyph glyph-name="braceleft.case" horiz-adv-x="420" 
d="M289 71q0 -43 25.5 -62.5t81.5 -19.5l-5 -108q-129 0 -183.5 39t-54.5 131v119q0 56 -25.5 80t-86.5 24v110q61 0 86.5 24t25.5 80v119q0 92 54.5 131t183.5 39l5 -109q-56 0 -81.5 -19t-25.5 -62v-135q0 -94 -100 -123q100 -29 100 -123v-135z" />
    <glyph glyph-name="braceright.case" horiz-adv-x="420" 
d="M267 488q0 -56 25.5 -80t86.5 -24v-110q-61 0 -86.5 -24t-25.5 -80v-119q0 -92 -54.5 -131t-183.5 -39l-5 108q56 0 81.5 19.5t25.5 62.5v135q0 94 99 123q-99 29 -99 123v135q0 43 -25.5 62t-81.5 19l5 109q129 0 183.5 -39t54.5 -131v-119z" />
    <glyph glyph-name="bracketleft.case" horiz-adv-x="391" 
d="M365 633h-133v-611h133v-119h-280v849h280v-119z" />
    <glyph glyph-name="bracketright.case" horiz-adv-x="391" 
d="M306 752v-849h-280v119h133v611h-133v119h280z" />
    <glyph glyph-name="parenleft.case" horiz-adv-x="391" 
d="M301 790l80 -78q-86 -77 -123.5 -165.5t-37.5 -219.5t37.5 -220t123.5 -166l-80 -78q-234 158 -234 464q0 307 234 463z" />
    <glyph glyph-name="parenright.case" horiz-adv-x="391" 
d="M90 790q234 -156 234 -463q0 -306 -234 -464l-80 78q86 77 123.5 166t37.5 220t-37.5 219.5t-123.5 165.5z" />
    <glyph glyph-name="emdash.case" horiz-adv-x="1006" 
d="M928 400v-135h-850v135h850z" />
    <glyph glyph-name="endash.case" horiz-adv-x="692" 
d="M614 400v-135h-536v135h536z" />
    <glyph glyph-name="hyphen.case" horiz-adv-x="528" 
d="M447 401v-138h-366v138h366z" />
    <glyph glyph-name="guillemotleft.case" horiz-adv-x="586" 
d="M308 519l-121 -196l121 -196h-148l-125 196l125 196h148zM550 519l-121 -196l121 -196h-147l-126 196l126 196h147z" />
    <glyph glyph-name="guillemotright.case" horiz-adv-x="586" 
d="M35 519h147l126 -196l-126 -196h-147l121 196zM277 519h148l125 -196l-125 -196h-148l121 196z" />
    <glyph glyph-name="guilsinglleft.case" horiz-adv-x="343" 
d="M308 519l-121 -196l121 -196h-148l-125 196l125 196h148z" />
    <glyph glyph-name="guilsinglright.case" horiz-adv-x="343" 
d="M35 519h148l125 -196l-125 -196h-148l121 196z" />
    <glyph glyph-name="periodcentered.sc" horiz-adv-x="274" 
d="M137 400q47 0 73.5 -24t26.5 -66t-26.5 -66t-73.5 -24t-73.5 24t-26.5 66t26.5 66t73.5 24z" />
    <glyph glyph-name="exclam.sc" horiz-adv-x="283" 
d="M228 560v-146l-18 -220h-136l-18 220v146h172zM142 151q43 0 67 -21t24 -59q0 -37 -24 -58t-67 -21t-67.5 21t-24.5 58q0 38 24.5 59t67.5 21z" />
    <glyph glyph-name="exclamdown.sc" horiz-adv-x="283" 
d="M141 409q-43 0 -67 21t-24 59q0 37 24 58t67 21t67.5 -21t24.5 -58q0 -38 -24.5 -59t-67.5 -21zM55 0v146l19 220h135l19 -220v-146h-173z" />
    <glyph glyph-name="periodcentered.loclCAT.sc" horiz-adv-x="48" 
d="M-78 407q46 0 72.5 -24t26.5 -66q0 -43 -26 -67t-73 -24t-73.5 24t-26.5 67q0 42 26.5 66t73.5 24z" />
    <glyph glyph-name="question.sc" horiz-adv-x="528" 
d="M267 568q111 0 176.5 -38.5t65.5 -114.5q0 -68 -50 -104t-121 -41l-7 -73h-151l-3 115q98 10 132.5 27.5t34.5 50.5q0 55 -79 55q-87 0 -96 -77l-157 51q29 149 255 149zM254 151q43 0 67.5 -21.5t24.5 -58.5t-24.5 -58t-67.5 -21t-67 21t-24 58q0 38 24 59t67 21z" />
    <glyph glyph-name="questiondown.sc" horiz-adv-x="522" 
d="M266 411q-43 0 -67.5 21.5t-24.5 58.5t24.5 58t67.5 21t67 -21t24 -58q0 -38 -24 -59t-67 -21zM253 -6q-111 0 -176.5 38.5t-65.5 114.5q0 67 50 103.5t121 41.5l7 72h151l3 -114q-98 -10 -132.5 -27.5t-34.5 -50.5q0 -55 79 -55q87 0 96 76l157 -50q-29 -149 -255 -149z
" />
    <glyph glyph-name="quotedbl.sc" horiz-adv-x="449" 
d="M403 591l-29 -277h-113v277h142zM205 591l-29 -277h-113v277h142z" />
    <glyph glyph-name="quotedblleft.sc" horiz-adv-x="553" 
d="M153 276q-53 0 -80.5 36t-27.5 93q0 66 35.5 119t103.5 82l75 -53q-99 -37 -124 -107l4 -3q11 11 31 11q33 0 58 -22t25 -62q0 -45 -27.5 -69.5t-72.5 -24.5zM404 276q-53 0 -80.5 36t-27.5 93q0 66 35.5 119t103.5 82l75 -53q-99 -37 -124 -107l4 -3q11 11 31 11
q33 0 58 -22t25 -62q0 -45 -27.5 -69.5t-72.5 -24.5z" />
    <glyph glyph-name="quotedblright.sc" horiz-adv-x="548" 
d="M154 604q53 0 80.5 -36t27.5 -93q0 -66 -35.5 -119t-103.5 -82l-75 53q99 37 124 107l-4 3q-11 -11 -31 -11q-33 0 -58 22t-25 62q0 45 27.5 69.5t72.5 24.5zM400 604q53 0 80.5 -36t27.5 -93q0 -66 -35.5 -119t-103.5 -82l-75 53q99 37 124 107l-4 3q-11 -11 -31 -11
q-33 0 -58 22t-25 62q0 45 27.5 69.5t72.5 24.5z" />
    <glyph glyph-name="quoteleft.sc" horiz-adv-x="302" 
d="M153 276q-52 0 -80 36t-28 92q0 66 35.5 119.5t103.5 82.5l75 -53q-99 -37 -124 -107l4 -3q11 11 31 11q33 0 58 -22t25 -62q0 -45 -27.5 -69.5t-72.5 -24.5z" />
    <glyph glyph-name="quoteright.sc" horiz-adv-x="302" 
d="M154 603q53 0 80.5 -35.5t27.5 -92.5q0 -66 -35.5 -119.5t-103.5 -81.5l-75 53q99 37 125 106l-5 4q-10 -12 -30 -12q-33 0 -58.5 22t-25.5 63q0 45 27.5 69t72.5 24z" />
    <glyph glyph-name="quotesingle.sc" horiz-adv-x="251" 
d="M205 591l-29 -277h-113v277h142z" />
    <glyph glyph-name="space.tf" horiz-adv-x="302" 
 />
    <glyph glyph-name="cent.tf" 
d="M550 144q-6 -63 -57 -104t-138 -48v-92h-88v93q-106 13 -163 79.5t-57 177.5t57.5 178.5t162.5 79.5v92h88v-92q91 -8 138 -49.5t56 -103.5l-128 -46q-12 69 -66 88v-296q58 19 70 86zM196 248q0 -120 71 -145v294q-71 -25 -71 -149z" />
    <glyph glyph-name="currency.tf" 
d="M515 330q0 -56 -24 -104l98 -86l-99 -97l-89 98q-43 -20 -98 -20t-102 22l-88 -100l-98 97l98 88q-24 44 -24 102q0 57 24 102l-98 86l98 98l89 -100q44 21 101 21q55 0 99 -21l88 100l99 -98l-97 -88q23 -44 23 -100zM303 242q37 0 59.5 24t22.5 64q0 39 -22.5 63
t-59.5 24q-38 0 -61.5 -24t-23.5 -63q0 -40 23.5 -64t61.5 -24z" />
    <glyph glyph-name="dollar.tf" 
d="M360 383q36 -8 61 -15.5t55.5 -23t48.5 -34.5t31 -49.5t13 -69.5q0 -79 -57.5 -128.5t-151.5 -59.5v-91h-97v90q-160 12 -237 124l92 99q16 -41 56 -68t89 -37v151q-46 10 -76.5 20.5t-64.5 30.5t-51.5 54.5t-17.5 81.5q0 79 56 133.5t154 65.5v91h97v-90
q74 -7 121 -35.5t96 -83.5l-87 -96q-40 82 -130 98v-158zM197 468q0 -40 66 -62v133q-66 -16 -66 -71zM360 119q66 13 66 65q0 42 -66 64v-129z" />
    <glyph glyph-name="Euro.tf" 
d="M458 206l128 -36q-16 -83 -79.5 -131.5t-156.5 -48.5q-99 0 -164 56.5t-88 162.5h-84v78h73q-1 14 -1 43v18h-72v77h79q20 118 88.5 181.5t175.5 63.5q95 0 149 -36.5t73 -113.5l-126 -60q-10 90 -92 90q-46 0 -78 -32t-46 -93h169l-19 -77h-159v-18q0 -17 2 -43h143
l-18 -78h-112q31 -99 109 -99q96 0 106 96z" />
    <glyph glyph-name="florin.tf" 
d="M521 609q-74 0 -88 -77l-21 -115h146v-118h-167l-45 -252q-15 -85 -67 -130t-135 -45q-68 0 -110 27l22 107q22 -16 57 -16q74 0 88 76l42 233h-142v118h163l25 135q15 85 66.5 130t135.5 45q68 0 109 -27l-21 -107q-25 16 -58 16z" />
    <glyph glyph-name="uni20BA.tf" 
d="M430 285h146q-2 -133 -67.5 -209t-189.5 -76h-212v263l-100 -28v62l100 28v79l-100 -28v62l100 28v194h164v-148l175 49v-62l-175 -49v-79l175 49v-62l-175 -49v-184h30q129 0 129 160z" />
    <glyph glyph-name="uni20BD.tf" 
d="M343 268h-78v-61h166v-91h-166v-116h-161v116h-72v91h72v61h-72v97h72v295h239q118 0 182 -52.5t64 -143.5q0 -96 -63 -146t-183 -50zM265 533v-168h64q49 0 71.5 20t22.5 64t-22.5 64t-71.5 20h-64z" />
    <glyph glyph-name="sterling.tf" 
d="M565 176q4 -85 -29.5 -135.5t-105.5 -50.5q-64 0 -143 57q-54 -57 -136 -57q-54 0 -87.5 25t-33.5 68t35.5 68t91.5 25q35 0 70 -7q-1 51 -29 99h-149v93h86q-38 58 -38 113q0 83 61 139.5t170 56.5q95 0 147.5 -42.5t72.5 -131.5l-135 -54q-8 55 -30.5 80t-61.5 25
q-36 0 -57 -20.5t-21 -57.5q0 -34 41 -97q4 -6 7 -11h191v-93h-145q8 -28 8 -67t-13 -78q36 -18 69 -18q63 0 60 83zM156 54q44 0 61 41q-30 16 -61 16q-38 0 -38 -28q0 -29 38 -29z" />
    <glyph glyph-name="yen.tf" 
d="M399 304l47 1h106v-60h-171v-66h171v-58h-171v-121h-158v121h-171v58h171v66h-171v60h106l47 -1l-187 356h160l89 -209l34 -103h2l34 104l89 208h160z" />
    <glyph glyph-name="uni25CF.case" horiz-adv-x="804" 
d="M402 -10q-146 0 -243 97t-97 243t97 243t243 97t243 -97t97 -243t-97 -243t-243 -97z" />
    <glyph glyph-name="circle.case" horiz-adv-x="804" 
d="M402 -10q-148 0 -246.5 97t-98.5 243t98.5 243t246.5 97t246.5 -97t98.5 -243t-98.5 -243t-246.5 -97zM402 104q96 0 158 63.5t62 162.5t-62 162.5t-158 63.5t-158 -63.5t-62 -162.5t62 -162.5t158 -63.5z" />
    <glyph glyph-name="uni25C6.case" horiz-adv-x="804" 
d="M402 -13l-343 343l343 343l343 -343z" />
    <glyph glyph-name="uni25C7.case" horiz-adv-x="804" 
d="M402 -13l-343 343l343 343l343 -343zM402 159l171 171l-171 171l-171 -171z" />
    <glyph glyph-name="uni25AA.case" horiz-adv-x="804" 
d="M72 660h660v-660h-660v660z" />
    <glyph glyph-name="uni25AB.case" horiz-adv-x="804" 
d="M70 0v660h664v-660h-664zM191 111h422v438h-422v-438z" />
    <glyph glyph-name="bar.case" horiz-adv-x="320" 
d="M235 752v-849h-150v849h150z" />
    <glyph glyph-name="at.case" horiz-adv-x="946" 
d="M493 751q187 0 294.5 -106.5t107.5 -293.5q0 -128 -60.5 -194t-149.5 -66q-103 0 -139 85q-55 -83 -154 -83q-74 0 -118 52.5t-44 136.5q0 132 66 204t165 72q49 0 76.5 -23t35.5 -54l21 68h122l-45 -287q-6 -44 5.5 -64.5t46.5 -20.5q42 0 68 45t26 129q0 157 -86 241
t-238 84q-163 0 -261 -97t-98 -265q0 -156 94 -244.5t230 -88.5q76 0 120 14.5t81 42.5l43 -60q-50 -35 -104 -53t-143 -18q-180 0 -293 109t-113 298q0 196 124 316.5t320 120.5zM480 448q-45 0 -74.5 -39.5t-29.5 -106.5q0 -93 69 -93q31 0 55 19.5t29 55.5l11 81
q10 83 -60 83z" />
    <glyph glyph-name="ampersand.sc" horiz-adv-x="582" 
d="M585 95l-21 -103q-45 0 -78 10.5t-75 42.5q-62 -52 -172 -52q-107 0 -162.5 38t-55.5 107q0 105 126 152q-37 41 -51 70t-14 63q0 59 47 102t137 43q81 0 125.5 -36t44.5 -98q0 -52 -25.5 -89t-92.5 -68q11 -11 39 -41l21.5 -21.5l23 -23l17.5 -17.5q22 42 19 113l98 -7
q1 -99 -48 -160q40 -25 97 -25zM269 465q-46 0 -46 -48q0 -32 41 -79q29 22 39.5 39.5t10.5 42.5q0 45 -45 45zM251 93q43 0 85 15l-41 38q-28 26 -84 79q-48 -31 -48 -67q0 -29 25.5 -47t62.5 -18z" />
    <glyph glyph-name="spacesuperior" horiz-adv-x="150" 
 />
    <glyph glyph-name="emdashsuperior" horiz-adv-x="676" 
d="M625 577v-92h-573v92h573z" />
    <glyph glyph-name="endashsuperior" horiz-adv-x="466" 
d="M414 577v-92h-362v92h362z" />
    <glyph glyph-name="hyphensuperior" horiz-adv-x="342" 
d="M291 577v-92h-239v92h239z" />
    <glyph glyph-name="bracketleftsuperior" horiz-adv-x="252" 
d="M239 726h-83v-389h83v-84h-185v557h185v-84z" />
    <glyph glyph-name="bracketrightsuperior" horiz-adv-x="252" 
d="M198 810v-557h-185v84h83v389h-83v84h185z" />
    <glyph glyph-name="colonsuperior" horiz-adv-x="227" 
d="M113 670q36 0 55.5 -17t19.5 -49t-19.5 -49t-55.5 -17t-55.5 17t-19.5 49t19.5 49t55.5 17zM113 459q36 0 55.5 -17t19.5 -49t-19.5 -49t-55.5 -17t-55.5 17t-19.5 49t19.5 49t55.5 17z" />
    <glyph glyph-name="commasuperior" horiz-adv-x="227" 
d="M113 459q40 0 60.5 -25.5t20.5 -69.5q0 -49 -26.5 -88.5t-77.5 -60.5l-56 39q76 29 90 76l-4 2q-8 -5 -17 -5q-24 0 -44.5 17.5t-20.5 47.5q0 67 75 67z" />
    <glyph glyph-name="periodsuperior" horiz-adv-x="227" 
d="M113 459q36 0 55.5 -17t19.5 -49t-19.5 -49t-55.5 -17t-55.5 17t-19.5 49t19.5 49t55.5 17z" />
    <glyph glyph-name="Hsuperior" horiz-adv-x="482" 
d="M317 730h123v-397h-123v156h-152v-156h-124v397h124v-150h152v150z" />
    <glyph glyph-name="Osuperior" horiz-adv-x="470" 
d="M235 735q97 0 153 -54t56 -150t-56 -150t-153 -54t-152.5 54t-55.5 150t55.5 150t152.5 54zM235 647q-84 0 -84 -116t84 -116q85 0 85 116t-85 116z" />
    <glyph glyph-name="indexring" horiz-adv-x="910" 
d="M455 -40q-171 0 -276 102t-105 268t105 268t276 102t276 -102t105 -268t-105 -268t-276 -102zM455 39q131 0 211.5 80.5t80.5 210.5t-80.5 210.5t-211.5 80.5t-211.5 -80.5t-80.5 -210.5t80.5 -210.5t211.5 -80.5z" />
    <glyph glyph-name="registeredsuperior" horiz-adv-x="593" 
d="M297 670q124 0 199 -74t75 -196t-75 -196.5t-199 -74.5t-199.5 74.5t-75.5 196.5t75 196t200 74zM297 172q102 0 165 62.5t63 165.5q0 102 -63 165t-165 63t-165 -62.5t-63 -165.5t63 -165.5t165 -62.5zM442 457q0 -72 -66 -99l71 -118h-101l-60 106h-24v-106h-91v330
h140q62 0 96.5 -29t34.5 -84zM262 501v-93h40q26 0 37.5 11t11.5 35q0 47 -49 47h-40z" />
    <glyph glyph-name="daggerdblsuperior" horiz-adv-x="484" 
d="M450 511h-147v-83h147v-92h-147v-127h-123v127h-147v92h147v83h-147v92h147v127h123v-127h147v-92z" />
    <glyph glyph-name="daggersuperior" horiz-adv-x="484" 
d="M450 585v-104h-147v-272h-123v272h-147v104h147v145h123v-145h147z" />
    <glyph glyph-name="coloninferior" horiz-adv-x="227" 
d="M113 148q36 0 55.5 -17t19.5 -49t-19.5 -49t-55.5 -17t-55.5 17t-19.5 49t19.5 49t55.5 17zM113 -63q36 0 55.5 -17t19.5 -49t-19.5 -49t-55.5 -17t-55.5 17t-19.5 49t19.5 49t55.5 17z" />
    <glyph glyph-name="commainferior" horiz-adv-x="227" 
d="M113 -63q40 0 60.5 -25.5t20.5 -69.5q0 -49 -26.5 -88.5t-77.5 -60.5l-56 39q76 29 90 76l-4 2q-8 -5 -17 -5q-24 0 -44.5 17.5t-20.5 47.5q0 67 75 67z" />
    <glyph glyph-name="periodinferior" horiz-adv-x="227" 
d="M113 -63q36 0 55.5 -17t19.5 -49t-19.5 -49t-55.5 -17t-55.5 17t-19.5 49t19.5 49t55.5 17z" />
    <glyph glyph-name="bracketleftinferior" horiz-adv-x="252" 
d="M239 204h-83v-389h83v-84h-185v557h185v-84z" />
    <glyph glyph-name="bracketrightinferior" horiz-adv-x="252" 
d="M198 288v-557h-185v84h83v389h-83v84h185z" />
    <glyph glyph-name="emdashinferior" horiz-adv-x="676" 
d="M625 55v-92h-573v92h573z" />
    <glyph glyph-name="endashinferior" horiz-adv-x="466" 
d="M414 55v-92h-362v92h362z" />
    <glyph glyph-name="hypheninferior" horiz-adv-x="342" 
d="M291 55v-92h-239v92h239z" />
    <glyph glyph-name="Hinferior" horiz-adv-x="482" 
d="M317 208h123v-397h-123v156h-152v-156h-124v397h124v-150h152v150z" />
    <glyph glyph-name="Oinferior" horiz-adv-x="470" 
d="M235 213q97 0 153 -54t56 -150t-56 -150t-153 -54t-152.5 54t-55.5 150t55.5 150t152.5 54zM235 125q-84 0 -84 -116t84 -116q85 0 85 116t-85 116z" />
    </font>
</defs>
</svg>
